<svg xmlns="http://www.w3.org/2000/svg" xmlns:xlink="http://www.w3.org/1999/xlink" width="580.133" height="507" viewBox="0 0 580.133 507">
  <defs>
    <filter id="Trazado_1470" x="0" y="0" width="580.133" height="507" filterUnits="userSpaceOnUse">
      <feOffset dx="3" dy="3" input="SourceAlpha"/>
      <feGaussianBlur stdDeviation="6" result="blur"/>
      <feFlood flood-opacity="0.161"/>
      <feComposite operator="in" in2="blur"/>
      <feComposite in="SourceGraphic"/>
    </filter>
    <filter id="Trazado_1472" x="178.077" y="136" width="219.017" height="230.991" filterUnits="userSpaceOnUse">
      <feOffset dy="3" input="SourceAlpha"/>
      <feGaussianBlur stdDeviation="3" result="blur-2"/>
      <feFlood flood-opacity="0.161" result="color"/>
      <feComposite operator="out" in="SourceGraphic" in2="blur-2"/>
      <feComposite operator="in" in="color"/>
      <feComposite operator="in" in2="SourceGraphic"/>
    </filter>
    <filter id="Rectángulo_155">
      <feOffset dy="3" input="SourceAlpha"/>
      <feGaussianBlur stdDeviation="3" result="blur-3"/>
      <feFlood flood-opacity="0.161" result="color-2"/>
      <feComposite operator="out" in="SourceGraphic" in2="blur-3"/>
      <feComposite operator="in" in="color-2"/>
      <feComposite operator="in" in2="SourceGraphic"/>
    </filter>
    <filter id="Rectángulo_161">
      <feOffset dy="3" input="SourceAlpha"/>
      <feGaussianBlur stdDeviation="3" result="blur-4"/>
      <feFlood flood-opacity="0.161" result="color-3"/>
      <feComposite operator="out" in="SourceGraphic" in2="blur-4"/>
      <feComposite operator="in" in="color-3"/>
      <feComposite operator="in" in2="SourceGraphic"/>
    </filter>
    <filter id="Rectángulo_164">
      <feOffset dy="3" input="SourceAlpha"/>
      <feGaussianBlur stdDeviation="3" result="blur-5"/>
      <feFlood flood-opacity="0.161" result="color-4"/>
      <feComposite operator="out" in="SourceGraphic" in2="blur-5"/>
      <feComposite operator="in" in="color-4"/>
      <feComposite operator="in" in2="SourceGraphic"/>
    </filter>
    <filter id="Rectángulo_169">
      <feOffset dy="3" input="SourceAlpha"/>
      <feGaussianBlur stdDeviation="3" result="blur-6"/>
      <feFlood flood-opacity="0.161" result="color-5"/>
      <feComposite operator="out" in="SourceGraphic" in2="blur-6"/>
      <feComposite operator="in" in="color-5"/>
      <feComposite operator="in" in2="SourceGraphic"/>
    </filter>
    <filter id="Rectángulo_168">
      <feOffset dy="3" input="SourceAlpha"/>
      <feGaussianBlur stdDeviation="3" result="blur-7"/>
      <feFlood flood-opacity="0.161" result="color-6"/>
      <feComposite operator="out" in="SourceGraphic" in2="blur-7"/>
      <feComposite operator="in" in="color-6"/>
      <feComposite operator="in" in2="SourceGraphic"/>
    </filter>
    <filter id="Rectángulo_167">
      <feOffset dy="3" input="SourceAlpha"/>
      <feGaussianBlur stdDeviation="3" result="blur-8"/>
      <feFlood flood-opacity="0.161" result="color-7"/>
      <feComposite operator="out" in="SourceGraphic" in2="blur-8"/>
      <feComposite operator="in" in="color-7"/>
      <feComposite operator="in" in2="SourceGraphic"/>
    </filter>
  </defs>
  <g id="Grupo_21" data-name="Grupo 21" transform="translate(-314.923 -110)">
    <g id="Grupo_20" data-name="Grupo 20" transform="translate(0.5 0.5)">
      <g transform="matrix(1, 0, 0, 1, 314.42, 109.5)" filter="url(#Trazado_1470)">
        <path id="Trazado_1470-2" data-name="Trazado 1470" d="M1679.5,2789.623l135.433-235.5h272l135.542,235.451-135.527,234.549-272-.038Z" transform="translate(-1663.92 -2538.63)" fill="#77a8c5" stroke="#cdecfa" stroke-width="1"/>
      </g>
      <g id="Capa_x0020_1" transform="translate(468.089 227.965)">
        <g data-type="innerShadowGroup">
          <path id="Trazado_1472-2" data-name="Trazado 1472" d="M60.334,202.654c-2.239-.186-19.05-8.439-22.442-10.146-1.494-.752-1.742-1.293-3.057-1.9-5.013-2.315-4.859-2.7-8.845-4.968L15.253,177.6a8.263,8.263,0,0,0-2.738-2.221l-2.593,1.657c-.987.563-1.806,1.272-2.72,1.885C7.917,182,20.577,195.086,23.3,197.189c2.969,2.294,4.91,4.34,8.332,6.548a7.189,7.189,0,0,1,1.353,1.127c4.793,4.28,16.49,9.737,22.3,12.065a127.221,127.221,0,0,0,27.219,7.5c9.247,1.464,8.362.516,14.007.872,1.816.114.974-.3,1.739.741-3.036,0-10.035,2.472-13.107,3.187v.708a20.086,20.086,0,0,1,2.855.335l9.2.363c2.234,0,3.586.595,5.955.318,3.86-.454,6.908-.108,12.252-.86,2.161-.3,4.23-.508,5.975-.756a105.4,105.4,0,0,0,10.946-2.161c12.345-3.088,23.292-7.7,32.766-15.764a17.45,17.45,0,0,1,1.877-1.665l-5.427,8.389a12.355,12.355,0,0,0-1.657,2.946c2.2-.588,11.325-7.6,13.662-9.362,1.234-.931,2.2-1.5,3.346-2.321l9.292-8.064c1.03-1.033,1.8-1.806,2.835-2.833,4.839-4.783,11.96-13.6,14.218-20.142a23.411,23.411,0,0,1,1.631-4.389c0,2.932.153,5.031.354,7.439,1.854-1.358,6.617-12.6,7.69-15.335,6.021-15.356,7.642-33.164,2.541-49.094-.433-1.353-.9-2.769-1.474-4.193a35.274,35.274,0,0,1-1.672-4.35c1.21.81,1.953,1.912,3.183,2.838,1.406,1.06,2.281,2.137,3.548,2.474,0-4.4-5.384-18.386-7.221-21.117-2.423-3.606-3.1-5.541-6.745-10.614A80.538,80.538,0,0,0,191.2,67.54l-6.472-4.864c-1.491-1.03-2.61-.94-3.6-2.421,3.7.082,7.646,1.772,11.69,1.772-.656-1.813-11.572-9.045-13.039-9.987a79.978,79.978,0,0,0-7.03-4.307,79.007,79.007,0,0,0-18.381-6.8l3.549-8.4q1.247.322,2.44.676a20.032,20.032,0,0,0,4.12,1.193c-.518-1.942-3.779-3.907-4.958-5.666,1.7.14,4.848,1.991,6.525,2.684l6.587,2.979a232.161,232.161,0,0,1,20.963,11.626c1.136.706,1.825,1.256,2.915,2.044l10.477,8.3a14.3,14.3,0,0,0,5.314-3.542c-1.047-4.5-14.49-17.486-20.4-22.11-1.982-1.55-.376-.685-3.533-2.843a13.628,13.628,0,0,1-1.169-.958c-8.815-7.006-24.237-13.715-34.968-16.75-9.655-2.731-17.573-4.451-29.908-4.451V5c3.256-.073,10.413-2.783,12.753-2.834V1.1c-4.229,0-13.641-1.067-18.069-1.068-4.116,0-13.962.969-17.739,1.393a82.21,82.21,0,0,0-10.811,1.94c-7.015,1.766-13.2,3.541-19.032,6.472C65.7,11.71,60.64,14.361,57.449,16.987L53.6,19.873c.367-1.374,6.21-8.677,6.73-10.628-4.992,2.642-9.307,5.98-13.759,9.265-1.158.855-2.157,1.433-3.349,2.319A135.948,135.948,0,0,0,25.181,37.853l-2.7,3.319A44.011,44.011,0,0,0,15.5,54.381c-.129.461-.144.68-.291,1.125l-.566-6.942c-1.183.792-1.5,1.946-2.331,3.338C2.073,69.066-2.592,93.352,3.7,112.993l3.148,8.544c-1.055-.707-5.416-5.025-6.249-5.3-.761-.251-.659.4-.354,1.942l1.775,6.767C5.673,135.9,9.295,142.06,16.1,151.244a28.594,28.594,0,0,0,2.7,2.965,35.61,35.61,0,0,0,4.086,4.417l13.2,10.179c.539.346.391.29.831.586l.872.546c.046.026.154.08.225.128-2.861-.063-9.476-2.059-12.4-2.124.275.756.471.723,1.316,1.516l11.581,8.61c11.5,7.524,19.313,10.96,33.247,12.8,9.865,1.3,18.424-2.57,20.45-2.737-.654.975-1.582,1.391-2.571,2.388-1.816,1.833-2.259,1.365-2.388,2.924,13.2,0,31.284-4.021,42.226-10.908a40.887,40.887,0,0,0,7.1-6.005,27.612,27.612,0,0,0,5.464-8,30.655,30.655,0,0,0-2.767-31.366l-8.618-8.031-6.562-3.711a39.834,39.834,0,0,0-4.605-1.908l3.617-8.566-3.047-1.431c-1.72-.613-3.244-1.128-4.929-1.8-6.412-2.561-13.2-1.953-24.936-8.361l-3.931-2.8a45.766,45.766,0,0,1-6.761-6.7A30.747,30.747,0,0,1,76.623,62.37c5.993-12.128,18.252-18.539,31.335-21.8,5.489-1.367,17.481-3.345,23.222-3.345-.608,2.281-4.029,3.749-5.314,5.668,1.369-.319,2.86-1.068,4.476-1.548a47.471,47.471,0,0,1,24.025-.42l3.549-8.4a128.117,128.117,0,0,0-30.279-3.444,158.279,158.279,0,0,0-33.622,3.572c-.756.149-1.17.2-2.081.4l-1.846.634,8.5.356c-.872,1.3-1.639,1.091-3.325,1.633a72.39,72.39,0,0,0-10.14,4.384C72.8,46.461,63.684,60.761,62.459,75.483c2.172-1.456,2.349-4.742,4.958-4.959a43.7,43.7,0,0,0,.75,24.048c1.281,4.022,6.353,15.037,9.878,17.4v-7.439c1.742.407,1,.439,2.055,1.489,3.444,3.427,9.779,7.179,14.117,9.261,10.157,4.877,17.986,5.7,25.279,8.236l3.617-8.566,8.279,3.891,7.67,5.789c.864.86.82,1.183,2.035,1.508v-7.793c9.808,11.283,14.511,26.646,10.981,41.8,2.659-.62,2.561-3.353,4.958-4.959-.616,2.647-.872,5.277-1.553,8.012a38.723,38.723,0,0,1-2.459,7.106,48.949,48.949,0,0,1-7.591,11.892,40.9,40.9,0,0,1-4.962,4.6,50.419,50.419,0,0,1-12.228,6.9c-1.9.752-6.4,2.138-6.984,2.933,1.722.827,5.44.356,7.793.356-.889,1.213.111.412-1.656.822l-6.491,1.3c-16.467,2.7-31.189,4.166-48.469,1.71-9.128-1.3-9.644-2.107-17.063-3.835.519,1.942,3.78,3.907,4.959,5.667Z" transform="translate(24.396 17.505)" fill="#fff" fill-rule="evenodd"/>
          <g transform="matrix(1, 0, 0, 1, -153.67, -118.46)" filter="url(#Trazado_1472)">
            <path id="Trazado_1472-3" data-name="Trazado 1472" d="M60.334,202.654c-2.239-.186-19.05-8.439-22.442-10.146-1.494-.752-1.742-1.293-3.057-1.9-5.013-2.315-4.859-2.7-8.845-4.968L15.253,177.6a8.263,8.263,0,0,0-2.738-2.221l-2.593,1.657c-.987.563-1.806,1.272-2.72,1.885C7.917,182,20.577,195.086,23.3,197.189c2.969,2.294,4.91,4.34,8.332,6.548a7.189,7.189,0,0,1,1.353,1.127c4.793,4.28,16.49,9.737,22.3,12.065a127.221,127.221,0,0,0,27.219,7.5c9.247,1.464,8.362.516,14.007.872,1.816.114.974-.3,1.739.741-3.036,0-10.035,2.472-13.107,3.187v.708a20.086,20.086,0,0,1,2.855.335l9.2.363c2.234,0,3.586.595,5.955.318,3.86-.454,6.908-.108,12.252-.86,2.161-.3,4.23-.508,5.975-.756a105.4,105.4,0,0,0,10.946-2.161c12.345-3.088,23.292-7.7,32.766-15.764a17.45,17.45,0,0,1,1.877-1.665l-5.427,8.389a12.355,12.355,0,0,0-1.657,2.946c2.2-.588,11.325-7.6,13.662-9.362,1.234-.931,2.2-1.5,3.346-2.321l9.292-8.064c1.03-1.033,1.8-1.806,2.835-2.833,4.839-4.783,11.96-13.6,14.218-20.142a23.411,23.411,0,0,1,1.631-4.389c0,2.932.153,5.031.354,7.439,1.854-1.358,6.617-12.6,7.69-15.335,6.021-15.356,7.642-33.164,2.541-49.094-.433-1.353-.9-2.769-1.474-4.193a35.274,35.274,0,0,1-1.672-4.35c1.21.81,1.953,1.912,3.183,2.838,1.406,1.06,2.281,2.137,3.548,2.474,0-4.4-5.384-18.386-7.221-21.117-2.423-3.606-3.1-5.541-6.745-10.614A80.538,80.538,0,0,0,191.2,67.54l-6.472-4.864c-1.491-1.03-2.61-.94-3.6-2.421,3.7.082,7.646,1.772,11.69,1.772-.656-1.813-11.572-9.045-13.039-9.987a79.978,79.978,0,0,0-7.03-4.307,79.007,79.007,0,0,0-18.381-6.8l3.549-8.4q1.247.322,2.44.676a20.032,20.032,0,0,0,4.12,1.193c-.518-1.942-3.779-3.907-4.958-5.666,1.7.14,4.848,1.991,6.525,2.684l6.587,2.979a232.161,232.161,0,0,1,20.963,11.626c1.136.706,1.825,1.256,2.915,2.044l10.477,8.3a14.3,14.3,0,0,0,5.314-3.542c-1.047-4.5-14.49-17.486-20.4-22.11-1.982-1.55-.376-.685-3.533-2.843a13.628,13.628,0,0,1-1.169-.958c-8.815-7.006-24.237-13.715-34.968-16.75-9.655-2.731-17.573-4.451-29.908-4.451V5c3.256-.073,10.413-2.783,12.753-2.834V1.1c-4.229,0-13.641-1.067-18.069-1.068-4.116,0-13.962.969-17.739,1.393a82.21,82.21,0,0,0-10.811,1.94c-7.015,1.766-13.2,3.541-19.032,6.472C65.7,11.71,60.64,14.361,57.449,16.987L53.6,19.873c.367-1.374,6.21-8.677,6.73-10.628-4.992,2.642-9.307,5.98-13.759,9.265-1.158.855-2.157,1.433-3.349,2.319A135.948,135.948,0,0,0,25.181,37.853l-2.7,3.319A44.011,44.011,0,0,0,15.5,54.381c-.129.461-.144.68-.291,1.125l-.566-6.942c-1.183.792-1.5,1.946-2.331,3.338C2.073,69.066-2.592,93.352,3.7,112.993l3.148,8.544c-1.055-.707-5.416-5.025-6.249-5.3-.761-.251-.659.4-.354,1.942l1.775,6.767C5.673,135.9,9.295,142.06,16.1,151.244a28.594,28.594,0,0,0,2.7,2.965,35.61,35.61,0,0,0,4.086,4.417l13.2,10.179c.539.346.391.29.831.586l.872.546c.046.026.154.08.225.128-2.861-.063-9.476-2.059-12.4-2.124.275.756.471.723,1.316,1.516l11.581,8.61c11.5,7.524,19.313,10.96,33.247,12.8,9.865,1.3,18.424-2.57,20.45-2.737-.654.975-1.582,1.391-2.571,2.388-1.816,1.833-2.259,1.365-2.388,2.924,13.2,0,31.284-4.021,42.226-10.908a40.887,40.887,0,0,0,7.1-6.005,27.612,27.612,0,0,0,5.464-8,30.655,30.655,0,0,0-2.767-31.366l-8.618-8.031-6.562-3.711a39.834,39.834,0,0,0-4.605-1.908l3.617-8.566-3.047-1.431c-1.72-.613-3.244-1.128-4.929-1.8-6.412-2.561-13.2-1.953-24.936-8.361l-3.931-2.8a45.766,45.766,0,0,1-6.761-6.7A30.747,30.747,0,0,1,76.623,62.37c5.993-12.128,18.252-18.539,31.335-21.8,5.489-1.367,17.481-3.345,23.222-3.345-.608,2.281-4.029,3.749-5.314,5.668,1.369-.319,2.86-1.068,4.476-1.548a47.471,47.471,0,0,1,24.025-.42l3.549-8.4a128.117,128.117,0,0,0-30.279-3.444,158.279,158.279,0,0,0-33.622,3.572c-.756.149-1.17.2-2.081.4l-1.846.634,8.5.356c-.872,1.3-1.639,1.091-3.325,1.633a72.39,72.39,0,0,0-10.14,4.384C72.8,46.461,63.684,60.761,62.459,75.483c2.172-1.456,2.349-4.742,4.958-4.959a43.7,43.7,0,0,0,.75,24.048c1.281,4.022,6.353,15.037,9.878,17.4v-7.439c1.742.407,1,.439,2.055,1.489,3.444,3.427,9.779,7.179,14.117,9.261,10.157,4.877,17.986,5.7,25.279,8.236l3.617-8.566,8.279,3.891,7.67,5.789c.864.86.82,1.183,2.035,1.508v-7.793c9.808,11.283,14.511,26.646,10.981,41.8,2.659-.62,2.561-3.353,4.958-4.959-.616,2.647-.872,5.277-1.553,8.012a38.723,38.723,0,0,1-2.459,7.106,48.949,48.949,0,0,1-7.591,11.892,40.9,40.9,0,0,1-4.962,4.6,50.419,50.419,0,0,1-12.228,6.9c-1.9.752-6.4,2.138-6.984,2.933,1.722.827,5.44.356,7.793.356-.889,1.213.111.412-1.656.822l-6.491,1.3c-16.467,2.7-31.189,4.166-48.469,1.71-9.128-1.3-9.644-2.107-17.063-3.835.519,1.942,3.78,3.907,4.959,5.667Z" transform="translate(178.06 135.97)" fill="#fff" fill-rule="evenodd"/>
          </g>
        </g>
      </g>
    </g>
    <g id="Grupo_24" data-name="Grupo 24">
      <g data-type="innerShadowGroup">
        <path id="Rectángulo_155-2" data-name="Rectángulo 155" d="M6,0H6a6,6,0,0,1,6,6V70a0,0,0,0,1,0,0H0a0,0,0,0,1,0,0V6A6,6,0,0,1,6,0Z" transform="translate(597 525.9)" fill="#f7f7fc"/>
        <g transform="matrix(1, 0, 0, 1, 314.92, 110)" filter="url(#Rectángulo_155)">
          <path id="Rectángulo_155-3" data-name="Rectángulo 155" d="M6,0H6a6,6,0,0,1,6,6V70a0,0,0,0,1,0,0H0a0,0,0,0,1,0,0V6A6,6,0,0,1,6,0Z" transform="translate(282.08 415.9)" fill="#fff"/>
        </g>
        <g id="Rectángulo_155-4" data-name="Rectángulo 155" transform="translate(597 525.9)" fill="none" stroke="rgba(247,247,252,0.32)" stroke-width="1">
          <path d="M6,0H6a6,6,0,0,1,6,6V70a0,0,0,0,1,0,0H0a0,0,0,0,1,0,0V6A6,6,0,0,1,6,0Z" stroke="none"/>
          <path d="M6,.5H6A5.5,5.5,0,0,1,11.5,6V69.5a0,0,0,0,1,0,0H.5a0,0,0,0,1,0,0V6A5.5,5.5,0,0,1,6,.5Z" fill="none"/>
        </g>
      </g>
      <g data-type="innerShadowGroup">
        <path id="Rectángulo_161-2" data-name="Rectángulo 161" d="M6,0H6a6,6,0,0,1,6,6V70a0,0,0,0,1,0,0H0a0,0,0,0,1,0,0V6A6,6,0,0,1,6,0Z" transform="translate(607.989 195.5) rotate(180)" fill="#f7f7fc"/>
        <g transform="matrix(1, 0, 0, 1, 314.92, 110)" filter="url(#Rectángulo_161)">
          <path id="Rectángulo_161-3" data-name="Rectángulo 161" d="M6,0H6a6,6,0,0,1,6,6V70a0,0,0,0,1,0,0H0a0,0,0,0,1,0,0V6A6,6,0,0,1,6,0Z" transform="translate(293.07 85.5) rotate(180)" fill="#fff"/>
        </g>
        <g id="Rectángulo_161-4" data-name="Rectángulo 161" transform="translate(607.989 195.5) rotate(180)" fill="none" stroke="rgba(247,247,252,0.32)" stroke-width="1">
          <path d="M6,0H6a6,6,0,0,1,6,6V70a0,0,0,0,1,0,0H0a0,0,0,0,1,0,0V6A6,6,0,0,1,6,0Z" stroke="none"/>
          <path d="M6,.5H6A5.5,5.5,0,0,1,11.5,6V69.5a0,0,0,0,1,0,0H.5a0,0,0,0,1,0,0V6A5.5,5.5,0,0,1,6,.5Z" fill="none"/>
        </g>
      </g>
      <g data-type="innerShadowGroup">
        <path id="Rectángulo_164-2" data-name="Rectángulo 164" d="M6,0H6a6,6,0,0,1,6,6V70a0,0,0,0,1,0,0H0a0,0,0,0,1,0,0V6A6,6,0,0,1,6,0Z" transform="translate(748 282.392) rotate(-120)" fill="#f7f7fc"/>
        <g transform="matrix(1, 0, 0, 1, 314.92, 110)" filter="url(#Rectángulo_164)">
          <path id="Rectángulo_164-3" data-name="Rectángulo 164" d="M6,0H6a6,6,0,0,1,6,6V70a0,0,0,0,1,0,0H0a0,0,0,0,1,0,0V6A6,6,0,0,1,6,0Z" transform="translate(433.08 172.39) rotate(-120)" fill="#fff"/>
        </g>
        <g id="Rectángulo_164-4" data-name="Rectángulo 164" transform="translate(748 282.392) rotate(-120)" fill="none" stroke="rgba(247,247,252,0.32)" stroke-width="1">
          <path d="M6,0H6a6,6,0,0,1,6,6V70a0,0,0,0,1,0,0H0a0,0,0,0,1,0,0V6A6,6,0,0,1,6,0Z" stroke="none"/>
          <path d="M6,.5H6A5.5,5.5,0,0,1,11.5,6V69.5a0,0,0,0,1,0,0H.5a0,0,0,0,1,0,0V6A5.5,5.5,0,0,1,6,.5Z" fill="none"/>
        </g>
      </g>
      <g data-type="innerShadowGroup">
        <path id="Rectángulo_169-2" data-name="Rectángulo 169" d="M6,0H6a6,6,0,0,1,6,6V70a0,0,0,0,1,0,0H0a0,0,0,0,1,0,0V6A6,6,0,0,1,6,0Z" transform="translate(460.622 274) rotate(120)" fill="#f7f7fc"/>
        <g transform="matrix(1, 0, 0, 1, 314.92, 110)" filter="url(#Rectángulo_169)">
          <path id="Rectángulo_169-3" data-name="Rectángulo 169" d="M6,0H6a6,6,0,0,1,6,6V70a0,0,0,0,1,0,0H0a0,0,0,0,1,0,0V6A6,6,0,0,1,6,0Z" transform="translate(145.7 164) rotate(120)" fill="#fff"/>
        </g>
        <g id="Rectángulo_169-4" data-name="Rectángulo 169" transform="translate(460.622 274) rotate(120)" fill="none" stroke="rgba(247,247,252,0.32)" stroke-width="1">
          <path d="M6,0H6a6,6,0,0,1,6,6V70a0,0,0,0,1,0,0H0a0,0,0,0,1,0,0V6A6,6,0,0,1,6,0Z" stroke="none"/>
          <path d="M6,.5H6A5.5,5.5,0,0,1,11.5,6V69.5a0,0,0,0,1,0,0H.5a0,0,0,0,1,0,0V6A5.5,5.5,0,0,1,6,.5Z" fill="none"/>
        </g>
      </g>
      <g data-type="innerShadowGroup">
        <path id="Rectángulo_168-2" data-name="Rectángulo 168" d="M6,0H6a6,6,0,0,1,6,6V70a0,0,0,0,1,0,0H0a0,0,0,0,1,0,0V6A6,6,0,0,1,6,0Z" transform="matrix(0.5, 0.866, -0.866, 0.5, 456.012, 439.539)" fill="#f7f7fc"/>
        <g transform="matrix(1, 0, 0, 1, 314.92, 110)" filter="url(#Rectángulo_168)">
          <path id="Rectángulo_168-3" data-name="Rectángulo 168" d="M6,0H6a6,6,0,0,1,6,6V70a0,0,0,0,1,0,0H0a0,0,0,0,1,0,0V6A6,6,0,0,1,6,0Z" transform="matrix(0.5, 0.87, -0.87, 0.5, 141.09, 329.54)" fill="#fff"/>
        </g>
        <g id="Rectángulo_168-4" data-name="Rectángulo 168" transform="matrix(0.5, 0.866, -0.866, 0.5, 456.012, 439.539)" fill="none" stroke="rgba(247,247,252,0.32)" stroke-width="1">
          <path d="M6,0H6a6,6,0,0,1,6,6V70a0,0,0,0,1,0,0H0a0,0,0,0,1,0,0V6A6,6,0,0,1,6,0Z" stroke="none"/>
          <path d="M6,.5H6A5.5,5.5,0,0,1,11.5,6V69.5a0,0,0,0,1,0,0H.5a0,0,0,0,1,0,0V6A5.5,5.5,0,0,1,6,.5Z" fill="none"/>
        </g>
      </g>
      <g data-type="innerShadowGroup">
        <path id="Rectángulo_167-2" data-name="Rectángulo 167" d="M6,0H6a6,6,0,0,1,6,6V70a0,0,0,0,1,0,0H0a0,0,0,0,1,0,0V6A6,6,0,0,1,6,0Z" transform="matrix(0.5, -0.866, 0.866, 0.5, 742.845, 448.348)" fill="#f7f7fc"/>
        <g transform="matrix(1, 0, 0, 1, 314.92, 110)" filter="url(#Rectángulo_167)">
          <path id="Rectángulo_167-3" data-name="Rectángulo 167" d="M6,0H6a6,6,0,0,1,6,6V70a0,0,0,0,1,0,0H0a0,0,0,0,1,0,0V6A6,6,0,0,1,6,0Z" transform="matrix(0.5, -0.87, 0.87, 0.5, 427.92, 338.35)" fill="#fff"/>
        </g>
        <g id="Rectángulo_167-4" data-name="Rectángulo 167" transform="matrix(0.5, -0.866, 0.866, 0.5, 742.845, 448.348)" fill="none" stroke="rgba(247,247,252,0.32)" stroke-width="1">
          <path d="M6,0H6a6,6,0,0,1,6,6V70a0,0,0,0,1,0,0H0a0,0,0,0,1,0,0V6A6,6,0,0,1,6,0Z" stroke="none"/>
          <path d="M6,.5H6A5.5,5.5,0,0,1,11.5,6V69.5a0,0,0,0,1,0,0H.5a0,0,0,0,1,0,0V6A5.5,5.5,0,0,1,6,.5Z" fill="none"/>
        </g>
      </g>
    </g>
  </g>
</svg>
