<?xml version="1.0" encoding="utf-8"?>
<!-- Generator: Adobe Illustrator 24.3.0, SVG Export Plug-In . SVG Version: 6.00 Build 0)  -->
<svg version="1.1" xmlns="http://www.w3.org/2000/svg" xmlns:xlink="http://www.w3.org/1999/xlink" x="0px" y="0px"
	 viewBox="0 0 260 55" style="enable-background:new 0 0 260 55;" xml:space="preserve">
<style type="text/css">
	.st0{display:none;}
	.st1{display:inline;}
	.st2{fill-rule:evenodd;clip-rule:evenodd;fill:#C2C2C2;}
	.st3{fill:#C2C2C2;}
	.st4{display:inline;fill-rule:evenodd;clip-rule:evenodd;fill:#C2C2C2;}
	.st5{display:inline;fill:#C2C2C2;}
	.st6{fill-rule:evenodd;clip-rule:evenodd;fill:#002C5F;}
	.st7{fill:#002C5F;}
	.st8{fill:#C41230;}
	.st9{fill:#003362;}
	.st10{fill-rule:evenodd;clip-rule:evenodd;fill:#C8002D;}
	.st11{fill:#B23033;}
	.st12{fill-rule:evenodd;clip-rule:evenodd;fill:#C3360E;}
	.st13{fill-rule:evenodd;clip-rule:evenodd;fill:#005290;}
	.st14{fill:#007EC6;}
	.st15{fill:#313133;}
	.st16{fill:#0F8ECB;}
	.st17{fill:#67686A;}
	.st18{fill:#00ABD3;}
	.st19{fill:#FDFDFD;}
	.st20{fill:#616160;}
	.st21{fill-rule:evenodd;clip-rule:evenodd;fill:#616160;}
	.st22{fill-rule:evenodd;clip-rule:evenodd;fill:#0083C4;}
	.st23{fill:#0083C4;}
	.st24{fill:#006BAD;}
	.st25{fill:#505257;}
	.st26{fill:#505153;}
	.st27{fill-rule:evenodd;clip-rule:evenodd;fill:#007CC2;}
	.st28{fill:#1A1818;}
</style>
<g id="SOLANA" class="st0">
	<g id="Grupo_234" transform="translate(-148.598 16.639)" class="st1">
		<g id="Grupo_228" transform="translate(148.598 -16.639)">
			<path id="Trazado_590" class="st2" d="M19.6,46c3.1,0.9,6.4,1.3,9.6,1.1c2.5-0.1,4.9-0.5,7.3-1.1c-0.6-0.1-1.4-0.1-2.1-0.1v-0.1
				c1.3-0.4,2.6-0.9,3.7-1.7c0.1-0.1,0.2-0.1,0.3-0.2c2.3-1.8,3.8-4.5,4-7.4c0-0.1-0.3,0.3-0.4,0.4c-0.2,0.3-0.4,0.5-0.6,0.8h-0.1
				c0.7-3.4-0.2-6.9-2.5-9.5v1.8c0,0.2-0.3-0.1-0.4-0.2c-0.1-0.1-0.1-0.2-0.2-0.2c-0.2-0.2-0.6-0.5-0.9-0.7c0,0-0.1,0-0.2-0.1
				c-0.1,0-0.2-0.2-0.3-0.3c-0.2-0.1-0.5-0.3-0.8-0.4c-1.3-0.7-2.7-1.2-4.1-1.6c-0.6-0.2-1.3-0.3-1.9-0.4c-0.9-0.3-1.8-0.6-2.6-1.1
				c-0.1,0-0.2-0.1-0.3-0.1c-0.1,0-0.1-0.2-0.2-0.2s-0.2-0.1-0.3-0.1c-0.2-0.1-0.3-0.3-0.4-0.4c-0.8-0.6-1.4-1.3-1.9-2.2
				c-0.6-1.1-0.9-2.3-0.8-3.5c0.1-2.8,1.8-5.2,4.3-6.4c2.7-1.3,5.7-2,8.7-2c0,0.2-0.2,0.3-0.3,0.4c-0.3,0.3-0.7,0.6-1,1
				c1.5-0.7,3.2-0.9,4.8-0.8c2.1,0.2,4.2,0.8,6,1.8c0.3,0.2,0.6,0.4,0.9,0.6c0.2,0.1,0.4,0.2,0.6,0.4c0.6,0.3,1.1,0.7,1.6,1.1
				c0.1,0.1,0.2,0.1,0.3,0.2c0.1,0.1,0.1,0.1,0.2,0.2c0,0,0.1,0.1,0.1,0.1c0,0,0.1,0,0.2,0.1c0.1,0.1,0.3,0.3,0.5,0.5
				c0,0,0.3,0,0.2,0.2c-1-0.1-1.9-0.3-2.9-0.5C47.7,15,48,15,48.1,15.1c0.1,0,0.1,0.1,0.2,0.2c0.1,0.1,0.3,0.1,0.4,0.2
				c0.3,0.2,0.6,0.5,0.9,0.7c0.1,0,0.2,0.1,0.2,0.1c0.1,0.1,0.4,0.3,0.6,0.4c0.1,0.1,0.2,0.2,0.3,0.3c0.2,0.2,0.5,0.4,0.7,0.6
				c0.5,0.5,1,1,1.4,1.5c0.6,0.8,1.2,1.6,1.7,2.5c0,0.1,0.1,0.1,0.1,0.2c0.1,0.2,0.3,0.4,0.4,0.6c0.1,0.3,0.2,0.6,0.4,0.9
				c0.5,1.1,0.9,2.3,1.1,3.5c0,0.2-0.2-0.1-0.2-0.1c-0.1,0-0.1,0-0.2-0.1c0,0,0-0.1-0.1-0.1c-0.1-0.1-0.3-0.2-0.4-0.3
				c-0.2-0.3-0.5-0.5-0.8-0.7c1.1,2.3,1.6,4.9,1.5,7.4c-0.2,3.3-1.2,6.4-2.9,9.2c-0.1-0.8-0.1-1.5-0.1-2.3c-0.4,2-1.4,3.8-2.8,5.2
				c-0.7,0.7-1.3,1.4-2,2c-0.1,0.1-0.3,0.2-0.4,0.3S48,47.9,47.9,48c-0.1,0.1-0.3,0.2-0.4,0.3c-0.1,0.1-0.2,0.2-0.3,0.3
				c-0.3,0.2-0.5,0.4-0.8,0.6c-1,0.8-2.1,1.5-3.1,2.2c0,0-0.1,0-0.1,0.1c-0.1-0.1,0.1-0.2,0.2-0.3c0.5-0.7,1.1-1.7,1.6-2.4
				c-0.2-0.1-0.4,0.3-0.6,0.5c0,0-0.2,0.1-0.2,0.1c-0.1,0.1-0.3,0.3-0.4,0.4c-3,2.3-7.4,3.6-12.5,3.9c-1.6,0.1-3.3,0-4.9-0.2v-0.1
				c1-0.3,2.1-0.6,3.3-0.8c-0.5-0.1-1.1-0.1-1.7-0.1c-2.1-0.1-4.2-0.5-6.3-1.2c-2.2-0.7-4.4-1.7-6.3-2.9c-0.3-0.2-0.5-0.3-0.8-0.6
				c-0.1-0.1-0.1-0.2-0.2-0.2s-0.2-0.1-0.3-0.2s-0.1-0.2-0.2-0.2c-0.3-0.3-0.7-0.5-1-0.8c-0.1-0.1-0.1-0.1-0.2-0.2s-0.2-0.1-0.3-0.2
				c-0.3-0.3-0.6-0.6-0.9-0.9C10.3,44,9.4,43,8.7,42c0-0.1,0.2-0.2,0.3-0.3c0.1-0.1,0.2-0.1,0.3-0.2c0.1-0.1,0.2-0.1,0.3-0.2
				c0.1-0.1,0.2-0.2,0.3-0.2c0.2,0.1,0.4,0.3,0.6,0.5c0.2,0.2,0.4,0.3,0.6,0.5c0.3,0.2,0.6,0.5,0.9,0.7c0.1,0.1,0.3,0.2,0.4,0.3
				c0,0,0.1,0.1,0.2,0.1c0.1,0,0.1,0.1,0.2,0.1c0,0,0.1,0.1,0.2,0.1c0,0,0.3,0.1,0.4,0.2c0,0,0,0.1,0.1,0.1c0.3,0.1,0.5,0.3,0.8,0.4
				c0.1,0,0.1,0,0.1,0.1c0.2,0.1,0.5,0.3,0.8,0.4c0.1,0.1,0.2,0.2,0.3,0.2c1.7,0.9,3.6,1.8,5.6,2.6c0.1-0.1-0.2-0.2-0.3-0.3
				C20.3,46.8,19.9,46.4,19.6,46L19.6,46z"/>
			<path id="Trazado_591" class="st2" d="M44.1,9.1c-3.1-1-6.4-1.4-9.6-1.2C32,8,29.6,8.4,27.2,9C27.8,9,28.6,9,29.3,9.1v0.1
				c-1.3,0.4-2.6,0.9-3.8,1.7c-0.1,0.1-0.2,0.1-0.3,0.2c-2.3,1.8-3.8,4.5-4,7.4c0,0.1,0.3-0.3,0.4-0.4c0.2-0.3,0.4-0.5,0.6-0.8h0.1
				c-0.8,3.4,0.1,6.9,2.4,9.5c0-0.6,0-1.2,0-1.8c0-0.2,0.3,0.1,0.4,0.2c0.1,0.1,0.1,0.2,0.2,0.2c0.2,0.2,0.6,0.5,0.9,0.7
				c0,0,0.1,0,0.2,0.1c0.1,0.1,0.2,0.2,0.3,0.3c0.2,0.1,0.5,0.3,0.8,0.4c0.7,0.4,1.5,0.7,2.2,1c0.6,0.2,1.2,0.5,1.8,0.6
				c0.6,0.2,1.3,0.3,1.9,0.5c0.9,0.3,1.8,0.7,2.6,1.1c0.1,0,0.2,0.1,0.3,0.1c0.1,0,0.1,0.2,0.2,0.2c0.1,0.1,0.2,0.1,0.3,0.1
				c0.2,0.1,0.3,0.3,0.4,0.4c0.8,0.6,1.4,1.3,1.9,2.2c0.6,1.1,0.8,2.3,0.7,3.5c-0.2,2.8-1.8,5.2-4.4,6.4c-2.7,1.3-5.7,1.9-8.7,2
				c0-0.2,0.2-0.3,0.3-0.4c0.3-0.3,0.7-0.6,1.1-1c-1.5,0.6-3.2,0.9-4.8,0.8c-2.1-0.2-4.1-0.8-6-1.9c-0.3-0.2-0.6-0.4-0.9-0.6
				c-0.2-0.1-0.4-0.3-0.6-0.4c-0.6-0.3-1.1-0.7-1.6-1.1c-0.1-0.1-0.2-0.1-0.3-0.2c-0.1-0.1-0.1-0.1-0.2-0.2c0,0,0,0-0.1-0.1
				c0,0-0.1,0-0.2-0.1c-0.1-0.1-0.3-0.3-0.5-0.5c0,0-0.3,0-0.2-0.2c1,0.2,1.9,0.4,2.9,0.5c0.1-0.1-0.2-0.1-0.3-0.2
				c-0.1,0-0.1-0.1-0.2-0.2c-0.1-0.1-0.3-0.1-0.4-0.2c-0.3-0.2-0.6-0.5-0.9-0.7c-0.1,0-0.2-0.1-0.2-0.1c-0.1-0.1-0.4-0.3-0.5-0.4
				c-0.1-0.1-0.2-0.2-0.3-0.3c-0.2-0.2-0.5-0.4-0.7-0.6c-0.5-0.5-1-1-1.4-1.6C10,34.7,9.5,33.9,9,33c0-0.1-0.1-0.1-0.1-0.2
				c-0.1-0.2-0.3-0.4-0.4-0.6c-0.1-0.3-0.2-0.6-0.4-0.9c-0.5-1.1-0.9-2.3-1.1-3.5c0-0.2,0.2,0.1,0.2,0.1c0.1,0,0.1,0,0.2,0.1
				c0,0,0,0.1,0.1,0.1c0.1,0.1,0.3,0.2,0.4,0.3c0.3,0.2,0.5,0.6,0.8,0.7c-1.1-2.3-1.6-4.9-1.4-7.5c0.2-3.3,1.3-6.4,3-9.2
				c0.1,0.8,0.1,1.5,0,2.3c0.4-2,1.4-3.8,2.9-5.2c0.7-0.7,1.3-1.4,2-2c0.1-0.1,0.3-0.2,0.4-0.3c0.1-0.1,0.2-0.2,0.3-0.3
				c0.1-0.1,0.3-0.2,0.4-0.3c0.1-0.1,0.2-0.2,0.3-0.3c0.3-0.2,0.5-0.4,0.8-0.5c1-0.8,2.1-1.5,3.2-2.2c0,0,0.1,0,0.1-0.1
				c0.1,0.1-0.1,0.2-0.2,0.3c-0.5,0.7-1.1,1.6-1.6,2.4c0.2,0.1,0.4-0.3,0.6-0.5c0,0,0.2-0.1,0.2-0.1c0.1-0.1,0.3-0.3,0.4-0.4
				c3-2.3,7.4-3.6,12.5-3.7c1.6,0,3.3,0,4.9,0.2v0.1c-1,0.3-2.1,0.6-3.3,0.8c0.5,0.1,1.1,0.1,1.7,0.1c2.1,0.1,4.2,0.5,6.3,1.2
				c2.2,0.7,4.4,1.7,6.3,3c0.3,0.2,0.5,0.3,0.8,0.6c0.1,0.1,0.1,0.2,0.2,0.2c0.1,0.1,0.2,0.1,0.3,0.2S50,8,50.1,8.1
				c0.3,0.3,0.7,0.5,1,0.8c0.1,0.1,0.1,0.1,0.2,0.2c0.1,0.1,0.2,0.1,0.3,0.2c0.3,0.3,0.6,0.6,0.9,0.9c0.9,0.9,1.8,1.9,2.5,3
				c0,0.1-0.2,0.2-0.3,0.3c-0.1,0.1-0.2,0.1-0.3,0.2c-0.1,0.1-0.2,0.1-0.3,0.2c-0.1,0.1-0.2,0.2-0.3,0.2c-0.2-0.1-0.4-0.3-0.6-0.5
				c-0.2-0.2-0.4-0.3-0.6-0.5c-0.3-0.2-0.6-0.5-0.9-0.7c-0.1-0.1-0.3-0.2-0.4-0.3c0,0-0.1-0.1-0.2-0.1s-0.1-0.1-0.2-0.1
				c0,0-0.1-0.1-0.2-0.1c0,0-0.3-0.1-0.4-0.2c0,0,0-0.1-0.1-0.1c-0.3-0.1-0.5-0.3-0.8-0.4c-0.1,0-0.1,0-0.1-0.1
				c-0.2-0.2-0.5-0.3-0.8-0.4c-0.1-0.1-0.2-0.2-0.3-0.2c-1.7-0.9-3.6-1.8-5.5-2.6C42.8,7.8,43,7.9,43.2,8c0.3,0.3,0.7,0.7,1.1,1.1
				L44.1,9.1z"/>
		</g>
		<g id="Grupo_233" transform="translate(195.883 -16.639)">
			<g id="Grupo_229" transform="translate(14.332 10.442)">
				<path id="Trazado_592" class="st3" d="M37.1,1.4l-1.3,6c0,0-15.9-0.1-16.9-0.1c-2.7,0-3.5,3-3.5,3s-1.3,3.5,1.6,3.5
					c0,0,9.5,0.1,10.4,0.1s7.4,0.5,6.8,8.1c-0.6,8.3-6.7,10.9-12.2,11c-5.5,0.2-18.2-0.2-18.2-0.2l1.4-5.8h15.1c0,0,5,0.4,5.8-3.8
					c0.7-3.4-2.2-3.6-3.2-3.6s-10.4-0.1-10.4-0.1s-6.4-0.4-4.8-9.2S18,1.3,18.5,1.3S37.1,1.4,37.1,1.4z"/>
				<path id="Trazado_593" class="st3" d="M64.4,3.3C57-2.4,45.8,2.9,40.9,9.2c-3.9,4.4-7.2,15.3-0.2,21s18.5,1.1,23.8-5.8
					C67.7,20.2,72.2,10.2,64.4,3.3z M60.1,21.6c-3.3,4.4-10.6,7.3-15,3.7c-4.4-3.6-2.3-10.5,0.2-13.3c3.1-4,10.1-7.4,14.8-3.7
					C65,12.7,62.1,19,60.1,21.6z"/>
				<path id="Trazado_594" class="st3" d="M77.9,23.3c-1.1,3.9,3.5,3.8,3.5,3.8l9.9-0.2l-1.5,6H77.7c-8.5,0-6.7-10-6.7-10l4.9-21.7
					h6.7L77.9,23.3z"/>
				<path id="Trazado_595" class="st3" d="M119.4,1.3l-8.1-0.1L91.1,33.1l8.1,0.1l4.9-7.5l11.3,0.1l1.3,7.4l8.3,0.1L119.4,1.3z
					 M107.2,19.7l6.3-10.3l1.7,10.2L107.2,19.7z"/>
				<path id="Trazado_596" class="st3" d="M185.8,1.3l-8.1-0.1l-20.2,31.9l8.1,0.1l4.8-7.5l11.3,0.1l1.3,7.4l8.3,0.1L185.8,1.3z
					 M173.6,19.7l6.3-10.3l1.7,10.2L173.6,19.7z"/>
				<path id="Trazado_597" class="st3" d="M127.4,33.2h6.7l5.5-22.4l7.1,22.4l8.3-0.1L162,1.4h-6.5L150.3,24l-6.7-22.8h-8.5
					L127.4,33.2z"/>
			</g>
			<g id="Grupo_232" transform="translate(0)">
				<g id="Grupo_230">
					<path id="Trazado_598" class="st3" d="M6.9,6.3c-1.3,0-2.4-1.1-2.4-2.4c0-1.3,1.1-2.4,2.4-2.4c1.3,0,2.4,1.1,2.4,2.4
						C9.3,5.2,8.2,6.3,6.9,6.3z M6.9,1.8c-1.1,0-2,0.9-2,2c0,1.1,0.9,2,2,2c1.1,0,2-0.9,2-2C8.9,2.7,8,1.8,6.9,1.8z"/>
				</g>
				<g id="Grupo_231" transform="translate(1.435 1.311)">
					<path id="Trazado_599" class="st3" d="M4.4,3.7V1.4h1c0.2,0,0.4,0,0.5,0.1c0.1,0,0.2,0.1,0.3,0.2C6.3,1.8,6.3,1.9,6.3,2
						c0,0.2,0,0.3-0.2,0.4C6,2.6,5.9,2.7,5.7,2.7c0.1,0.1,0.2,0.1,0.3,0.2C6,3,6.1,3.1,6.2,3.2l0.3,0.5H5.9L5.6,3.2
						C5.5,3.1,5.4,3,5.3,2.9c0,0-0.1-0.1-0.1-0.1c-0.1,0-0.2,0-0.2,0H4.9v1L4.4,3.7z M4.9,2.4h0.4c0.1,0,0.3,0,0.4,0
						c0.1,0,0.1,0,0.1-0.1c0-0.1,0.1-0.1,0-0.2c0-0.1,0-0.1-0.1-0.2c0-0.1-0.1-0.1-0.2-0.1c0,0-0.2,0-0.3,0H4.9L4.9,2.4z"/>
				</g>
			</g>
		</g>
	</g>
</g>
<g id="JAC" class="st0">
	<g>
		<g id="Grupo_11" transform="translate(38.843 34.533)" class="st1">
			<g id="Grupo_10" transform="translate(1.541)">
				<path id="Trazado_11" class="st3" d="M94.1,13.3c0,0.2-0.1,0.3-0.3,0.3c-0.2,0-0.3-0.1-0.3-0.3c0-0.2,0.1-0.3,0.3-0.3
					C94,13,94.1,13.1,94.1,13.3z"/>
				<path id="Trazado_12" class="st3" d="M94.1,16c0,0.2-0.1,0.3-0.3,0.3c-0.2,0-0.3-0.1-0.3-0.3c0-0.2,0.1-0.3,0.3-0.3
					C94,15.7,94.1,15.8,94.1,16z"/>
				<path id="Trazado_13" class="st3" d="M93.3,16c0-0.3,0.2-0.5,0.5-0.5h0v-1.7h0c-0.3,0-0.5-0.2-0.5-0.5c0-0.3,0.2-0.5,0.5-0.5
					c0,0,0,0,0,0h0l0-0.1c0-0.1-0.1-0.1-0.1-0.1h-0.2l0,0h-0.1l-0.1,0.1l-0.2,0.1L93,13.3l0,0.1l0,0.1c-0.3,0.4-0.5,0.9-0.5,1.3
					c0,0.3,0,0.7,0,1l0,0.2l0,0l0.1,0c0.2,0.2,0.5,0.3,0.7,0.3l0.1,0.1c0.1,0,0.2,0,0.2,0h0c0.1,0.1,0.1,0,0.1,0
					C93.5,16.4,93.3,16.2,93.3,16z"/>
			</g>
			<path id="Trazado_14" class="st3" d="M96.7,14.2L96.7,14.2c-0.2-0.1-0.4-0.1-0.5,0s-0.1,0.4,0,0.5l0,0l0,0c0.9,0.8,1,2.1,0.2,3.1
				c-0.8,0.9-2.1,1-3.1,0.2c-0.9-0.8-1-2.1-0.2-3.1c0.1-0.1,0.1-0.2,0.2-0.2l0,0c0.2-0.1,0.2-0.4,0.1-0.5c-0.1-0.2-0.4-0.2-0.5-0.1
				c0,0,0,0,0,0l0,0c-1.2,1.1-1.4,2.9-0.3,4.1c1.1,1.2,2.9,1.4,4.1,0.3c1.2-1.1,1.4-2.9,0.3-4.1C96.9,14.4,96.8,14.3,96.7,14.2
				L96.7,14.2z"/>
		</g>
		<g id="Grupo_12" transform="translate(11.999 35.683)" class="st1">
			<path id="Trazado_15" class="st3" d="M83.4,15.2c0-0.3,0-0.7,0.1-1c0.1-0.4,0.2-0.7,0.3-1c0.9-0.1,1.9-0.1,2.8-0.1
				c0.9,0,1.9,0,2.8,0.1l-0.1,0.4c-0.8-0.1-1.7-0.1-2.6-0.1c-0.8,0-1.6,0-2.4,0.1c-0.1,0.2-0.1,0.4-0.2,0.7c0,0.2-0.1,0.4-0.1,0.6
				c1.6,0.1,3.3,0.1,5,0.4c0,0.4-0.1,0.7-0.1,1.1c-0.1,0.4-0.2,0.8-0.3,1.2c-1,0.1-1.9,0.1-2.8,0.1c-0.9,0-1.9,0-2.8-0.1l0.1-0.4
				c0.8,0.1,1.7,0.1,2.6,0.1c0.9,0,1.7,0,2.5-0.1c0.1-0.3,0.2-0.5,0.2-0.8c0.1-0.2,0.1-0.5,0.1-0.7C86.8,15.4,85.1,15.4,83.4,15.2z"
				/>
			<path id="Trazado_16" class="st3" d="M96.2,13.5c-1.3-0.1-2-0.1-2.7-0.1l-0.9,4.1H92l0.9-4.1c-0.7,0-1.5,0-2.7,0.1l0.1-0.4
				c1-0.1,2-0.1,3-0.1s2,0,3,0.1L96.2,13.5z"/>
			<path id="Trazado_17" class="st3" d="M100.6,13.1l1.4,4.4h-0.6l-0.4-1.3h-4.3l-1,1.3H95l3-4.1l-0.4-0.2l0-0.1
				c0.3,0,0.8-0.1,1.3-0.1c0.2,0,0.3,0,0.5,0C99.9,13,100.2,13.1,100.6,13.1z M98.6,13.5L97,15.8h3.9l-0.7-2.3c-0.2,0-0.5,0-0.7,0
				C99.1,13.5,98.9,13.5,98.6,13.5z"/>
			<path id="Trazado_18" class="st3" d="M103.7,17.5h-0.6l0.9-4.2l-0.4-0.2l0-0.1h3.3c0.9,0,1.9,0,2.8,0.1c0,0.4-0.1,0.8-0.1,1.2
				c-0.1,0.5-0.2,0.9-0.4,1.4c-0.8,0-1.6,0-2.4,0l2.1,1.7H108l-2.4-2l0-0.1h1.1c0.6,0,1.3,0,1.9,0c0.1-0.3,0.2-0.7,0.3-1
				c0.1-0.3,0.1-0.6,0.1-0.9c-0.7,0-1.5,0-2.3,0h-2.2L103.7,17.5z"/>
			<path id="Trazado_19" class="st3" d="M116.5,13.5c-1.3-0.1-2-0.1-2.7-0.1l-0.9,4.1h-0.6l0.9-4.1c-0.7,0-1.5,0-2.7,0.1l0.1-0.4
				c1-0.1,2-0.1,3-0.1c1,0,2,0,3,0.1L116.5,13.5z"/>
		</g>
		<g id="Grupo_13" transform="translate(44.835 35.683)" class="st1">
			<path id="Trazado_20" class="st3" d="M99.9,17.5h-0.6l-2.9-4c-0.4,0-0.7,0-1.1,0l-0.8,4h-0.6l0.9-4.2l-0.4-0.2l0-0.1H95
				c0.6,0,1.2,0,1.9,0l2.6,3.6l0.8-3.7h0.6L99.9,17.5z"/>
			<path id="Trazado_21" class="st3" d="M104.6,17.6c-1,0-2,0-3-0.1c0.1-0.7,0.2-1.4,0.4-2.1c0.2-0.7,0.3-1.4,0.5-2.1
				c1-0.1,2.1-0.1,3.1-0.1c1,0,2,0,3,0.1c-0.1,0.7-0.2,1.4-0.4,2.1c-0.2,0.7-0.3,1.4-0.5,2.1C106.7,17.5,105.6,17.6,104.6,17.6z
				 M102.3,17c0.8,0.1,1.6,0.1,2.4,0.1c0.8,0,1.6,0,2.5-0.1c0.2-0.6,0.3-1.1,0.4-1.7c0.1-0.6,0.2-1.2,0.3-1.7
				c-0.8-0.1-1.6-0.1-2.4-0.1s-1.6,0-2.5,0.1c-0.2,0.6-0.3,1.1-0.5,1.7C102.4,15.9,102.4,16.4,102.3,17z"/>
			<path id="Trazado_22" class="st3" d="M114.1,13.5l-2.3,4c-0.2,0-0.4,0-0.5,0c-0.2,0-0.4,0-0.6,0l-0.6-4l0-0.1l-0.4-0.2l0-0.1h1
				l0.6,4c0,0,0.1,0,0.1,0c0,0,0.1,0,0.1,0l2.3-4c0.2,0,0.4,0,0.6,0c0.2,0,0.4,0,0.5,0l0.6,4c0,0,0.1,0,0.1,0c0,0,0.1,0,0.1,0l2.3-4
				h0.6l-2.6,4.4c-0.2,0-0.4,0-0.6,0c-0.2,0-0.3,0-0.5,0l-0.7-4C114.2,13.5,114.2,13.5,114.1,13.5C114.1,13.5,114.1,13.5,114.1,13.5
				z"/>
		</g>
		<g id="Grupo_14" transform="translate(0)" class="st1">
			<path id="Trazado_23" class="st3" d="M181.1,21.5c-0.1,11.1-23,19.9-51.2,19.7c-28.2-0.2-51-9.3-50.9-20.4s23-19.9,51.2-19.7
				S181.1,10.4,181.1,21.5 M130,6.6c-13.5-0.1-26.9,2.5-34,5.9c-2.2,1.3-3.4,2.5-5.7,6.9c-1.8,3.6-3.6,7-1.1,8.8
				c3.9,3.1,12.4,6.1,20.2,7.4c2.1,0.2,4.3-0.1,6.3-1c1.9-0.7,3.8-1.1,5.8-1.1c3.1,0,5.6-0.1,8.5-0.1s5.3,0.1,8.5,0.1
				c2,0,4,0.4,5.8,1.1c2,0.9,4.1,1.2,6.3,1c7.8-1.3,16.4-4.3,20.2-7.4c2.5-1.8,0.7-5.2-1.1-8.8c-2.3-4.4-3.5-5.6-5.7-6.9
				c-7.1-3.4-20.2-5.9-33.6-5.9L130,6.6"/>
			<path id="Trazado_24" class="st3" d="M145.1,15.4c-0.9,1-1.4,2.2-1.4,3.6v4.4c0,1.3,0.5,2.6,1.4,3.6c1.2,1,2.7,1.6,4.3,1.5h12.4
				c0.5,0,0.9-0.4,0.9-0.9c0,0,0-0.1,0-0.1v-2.6H152c-1.4,0-2.6-1.1-2.6-2.5V20c0.1-1.4,1.2-2.5,2.6-2.5h10.7v-2.6
				c0.1-0.5-0.3-1-0.8-1c0,0-0.1,0-0.1,0h-12.5C147.7,13.8,146.2,14.4,145.1,15.4"/>
			<path id="Trazado_25" class="st3" d="M131.3,13.9h-4.4l0,0c-1,0-2,0.6-2.4,1.5l-6.1,13.1h4.4c1,0.1,1.9-0.4,2.5-1.2l2.7-5.9
				l0-0.1c0.1-0.3,0.5-0.5,0.8-0.5h0.8c0.3,0,0.7,0.2,0.8,0.5l0,0.1l2.7,5.9c0.5,0.8,1.5,1.3,2.5,1.2h4.4l-6.1-13.1
				C133.4,14.4,132.4,13.8,131.3,13.9L131.3,13.9L131.3,13.9z"/>
			<path id="Trazado_26" class="st3" d="M114,13.9h-13.6c-0.4-0.1-0.8,0.2-0.8,0.6c0,0,0,0.1,0,0.1v2.8h7.9l0,0
				c0.7,0,1.2,0.5,1.4,1.1c0,0.2,0.1,0.4,0.1,0.6v3.3c-0.1,1.4-1.2,2.5-2.6,2.5H95.5v2.6c-0.1,0.5,0.3,1,0.8,1c0,0,0.1,0,0.1,0h12.4
				c1.6,0.1,3.1-0.5,4.3-1.5c0.9-1,1.4-2.2,1.4-3.6v-8.9C114.6,14.2,114.4,13.9,114,13.9C114,13.8,114,13.8,114,13.9L114,13.9"/>
		</g>
	</g>
	<g class="st1">
		<g id="Grupo_11_1_" transform="translate(38.843 34.533)">
			<g id="Grupo_10_1_" transform="translate(1.541)">
				<path id="Trazado_11_1_" d="M94.1,13.3c0,0.2-0.1,0.3-0.3,0.3c-0.2,0-0.3-0.1-0.3-0.3c0-0.2,0.1-0.3,0.3-0.3
					C94,13,94.1,13.1,94.1,13.3z"/>
				<path id="Trazado_12_1_" d="M94.1,16c0,0.2-0.1,0.3-0.3,0.3c-0.2,0-0.3-0.1-0.3-0.3c0-0.2,0.1-0.3,0.3-0.3
					C94,15.7,94.1,15.8,94.1,16z"/>
				<path id="Trazado_13_1_" d="M93.3,16c0-0.3,0.2-0.5,0.5-0.5h0v-1.7h0c-0.3,0-0.5-0.2-0.5-0.5c0-0.3,0.2-0.5,0.5-0.5c0,0,0,0,0,0
					h0l0-0.1c0-0.1-0.1-0.1-0.1-0.1h-0.2l0,0h-0.1l-0.1,0.1l-0.2,0.1L93,13.3l0,0.1l0,0.1c-0.3,0.4-0.5,0.9-0.5,1.3c0,0.3,0,0.7,0,1
					l0,0.2l0,0l0.1,0c0.2,0.2,0.5,0.3,0.7,0.3l0.1,0.1c0.1,0,0.2,0,0.2,0h0c0.1,0.1,0.1,0,0.1,0C93.5,16.4,93.3,16.2,93.3,16z"/>
			</g>
			<path id="Trazado_14_1_" d="M96.7,14.2L96.7,14.2c-0.2-0.1-0.4-0.1-0.5,0s-0.1,0.4,0,0.5l0,0l0,0c0.9,0.8,1,2.1,0.2,3.1
				c-0.8,0.9-2.1,1-3.1,0.2c-0.9-0.8-1-2.1-0.2-3.1c0.1-0.1,0.1-0.2,0.2-0.2l0,0c0.2-0.1,0.2-0.4,0.1-0.5c-0.1-0.2-0.4-0.2-0.5-0.1
				c0,0,0,0,0,0l0,0c-1.2,1.1-1.4,2.9-0.3,4.1c1.1,1.2,2.9,1.4,4.1,0.3c1.2-1.1,1.4-2.9,0.3-4.1C96.9,14.4,96.8,14.3,96.7,14.2
				L96.7,14.2z"/>
		</g>
		<g id="Grupo_12_1_" transform="translate(11.999 35.683)">
			<path id="Trazado_15_1_" d="M83.4,15.2c0-0.3,0-0.7,0.1-1c0.1-0.4,0.2-0.7,0.3-1c0.9-0.1,1.9-0.1,2.8-0.1c0.9,0,1.9,0,2.8,0.1
				l-0.1,0.4c-0.8-0.1-1.7-0.1-2.6-0.1c-0.8,0-1.6,0-2.4,0.1c-0.1,0.2-0.1,0.4-0.2,0.7c0,0.2-0.1,0.4-0.1,0.6c1.6,0.1,3.3,0.1,5,0.4
				c0,0.4-0.1,0.7-0.1,1.1c-0.1,0.4-0.2,0.8-0.3,1.2c-1,0.1-1.9,0.1-2.8,0.1c-0.9,0-1.9,0-2.8-0.1l0.1-0.4c0.8,0.1,1.7,0.1,2.6,0.1
				c0.9,0,1.7,0,2.5-0.1c0.1-0.3,0.2-0.5,0.2-0.8c0.1-0.2,0.1-0.5,0.1-0.7C86.8,15.4,85.1,15.4,83.4,15.2z"/>
			<path id="Trazado_16_1_" d="M96.2,13.5c-1.3-0.1-2-0.1-2.7-0.1l-0.9,4.1H92l0.9-4.1c-0.7,0-1.5,0-2.7,0.1l0.1-0.4
				c1-0.1,2-0.1,3-0.1s2,0,3,0.1L96.2,13.5z"/>
			<path id="Trazado_17_1_" d="M100.6,13.1l1.4,4.4h-0.6l-0.4-1.3h-4.3l-1,1.3H95l3-4.1l-0.4-0.2l0-0.1c0.3,0,0.8-0.1,1.3-0.1
				c0.2,0,0.3,0,0.5,0C99.9,13,100.2,13.1,100.6,13.1z M98.6,13.5L97,15.8h3.9l-0.7-2.3c-0.2,0-0.5,0-0.7,0
				C99.1,13.5,98.9,13.5,98.6,13.5z"/>
			<path id="Trazado_18_1_" d="M103.7,17.5h-0.6l0.9-4.2l-0.4-0.2l0-0.1h3.3c0.9,0,1.9,0,2.8,0.1c0,0.4-0.1,0.8-0.1,1.2
				c-0.1,0.5-0.2,0.9-0.4,1.4c-0.8,0-1.6,0-2.4,0l2.1,1.7H108l-2.4-2l0-0.1h1.1c0.6,0,1.3,0,1.9,0c0.1-0.3,0.2-0.7,0.3-1
				c0.1-0.3,0.1-0.6,0.1-0.9c-0.7,0-1.5,0-2.3,0h-2.2L103.7,17.5z"/>
			<path id="Trazado_19_1_" d="M116.5,13.5c-1.3-0.1-2-0.1-2.7-0.1l-0.9,4.1h-0.6l0.9-4.1c-0.7,0-1.5,0-2.7,0.1l0.1-0.4
				c1-0.1,2-0.1,3-0.1c1,0,2,0,3,0.1L116.5,13.5z"/>
		</g>
		<g id="Grupo_13_1_" transform="translate(44.835 35.683)">
			<path id="Trazado_20_1_" d="M99.9,17.5h-0.6l-2.9-4c-0.4,0-0.7,0-1.1,0l-0.8,4h-0.6l0.9-4.2l-0.4-0.2l0-0.1H95c0.6,0,1.2,0,1.9,0
				l2.6,3.6l0.8-3.7h0.6L99.9,17.5z"/>
			<path id="Trazado_21_1_" d="M104.6,17.6c-1,0-2,0-3-0.1c0.1-0.7,0.2-1.4,0.4-2.1c0.2-0.7,0.3-1.4,0.5-2.1c1-0.1,2.1-0.1,3.1-0.1
				c1,0,2,0,3,0.1c-0.1,0.7-0.2,1.4-0.4,2.1c-0.2,0.7-0.3,1.4-0.5,2.1C106.7,17.5,105.6,17.6,104.6,17.6z M102.3,17
				c0.8,0.1,1.6,0.1,2.4,0.1c0.8,0,1.6,0,2.5-0.1c0.2-0.6,0.3-1.1,0.4-1.7c0.1-0.6,0.2-1.2,0.3-1.7c-0.8-0.1-1.6-0.1-2.4-0.1
				s-1.6,0-2.5,0.1c-0.2,0.6-0.3,1.1-0.5,1.7C102.4,15.9,102.4,16.4,102.3,17z"/>
			<path id="Trazado_22_1_" d="M114.1,13.5l-2.3,4c-0.2,0-0.4,0-0.5,0c-0.2,0-0.4,0-0.6,0l-0.6-4l0-0.1l-0.4-0.2l0-0.1h1l0.6,4
				c0,0,0.1,0,0.1,0c0,0,0.1,0,0.1,0l2.3-4c0.2,0,0.4,0,0.6,0c0.2,0,0.4,0,0.5,0l0.6,4c0,0,0.1,0,0.1,0c0,0,0.1,0,0.1,0l2.3-4h0.6
				l-2.6,4.4c-0.2,0-0.4,0-0.6,0c-0.2,0-0.3,0-0.5,0l-0.7-4C114.2,13.5,114.2,13.5,114.1,13.5C114.1,13.5,114.1,13.5,114.1,13.5z"/>
		</g>
		<g id="Grupo_14_1_" transform="translate(0)">
			<path id="Trazado_23_1_" d="M181.1,21.5c-0.1,11.1-23,19.9-51.2,19.7c-28.2-0.2-51-9.3-50.9-20.4s23-19.9,51.2-19.7
				S181.1,10.4,181.1,21.5 M130,6.6c-13.5-0.1-26.9,2.5-34,5.9c-2.2,1.3-3.4,2.5-5.7,6.9c-1.8,3.6-3.6,7-1.1,8.8
				c3.9,3.1,12.4,6.1,20.2,7.4c2.1,0.2,4.3-0.1,6.3-1c1.9-0.7,3.8-1.1,5.8-1.1c3.1,0,5.6-0.1,8.5-0.1s5.3,0.1,8.5,0.1
				c2,0,4,0.4,5.8,1.1c2,0.9,4.1,1.2,6.3,1c7.8-1.3,16.4-4.3,20.2-7.4c2.5-1.8,0.7-5.2-1.1-8.8c-2.3-4.4-3.5-5.6-5.7-6.9
				c-7.1-3.4-20.2-5.9-33.6-5.9L130,6.6"/>
			<path id="Trazado_24_1_" d="M145.1,15.4c-0.9,1-1.4,2.2-1.4,3.6v4.4c0,1.3,0.5,2.6,1.4,3.6c1.2,1,2.7,1.6,4.3,1.5h12.4
				c0.5,0,0.9-0.4,0.9-0.9c0,0,0-0.1,0-0.1v-2.6H152c-1.4,0-2.6-1.1-2.6-2.5V20c0.1-1.4,1.2-2.5,2.6-2.5h10.7v-2.6
				c0.1-0.5-0.3-1-0.8-1c0,0-0.1,0-0.1,0h-12.5C147.7,13.8,146.2,14.4,145.1,15.4"/>
			<path id="Trazado_25_1_" d="M131.3,13.9h-4.4l0,0c-1,0-2,0.6-2.4,1.5l-6.1,13.1h4.4c1,0.1,1.9-0.4,2.5-1.2l2.7-5.9l0-0.1
				c0.1-0.3,0.5-0.5,0.8-0.5h0.8c0.3,0,0.7,0.2,0.8,0.5l0,0.1l2.7,5.9c0.5,0.8,1.5,1.3,2.5,1.2h4.4l-6.1-13.1
				C133.4,14.4,132.4,13.8,131.3,13.9L131.3,13.9L131.3,13.9z"/>
			<path id="Trazado_26_1_" d="M114,13.9h-13.6c-0.4-0.1-0.8,0.2-0.8,0.6c0,0,0,0.1,0,0.1v2.8h7.9l0,0c0.7,0,1.2,0.5,1.4,1.1
				c0,0.2,0.1,0.4,0.1,0.6v3.3c-0.1,1.4-1.2,2.5-2.6,2.5H95.5v2.6c-0.1,0.5,0.3,1,0.8,1c0,0,0.1,0,0.1,0h12.4
				c1.6,0.1,3.1-0.5,4.3-1.5c0.9-1,1.4-2.2,1.4-3.6v-8.9C114.6,14.2,114.4,13.9,114,13.9C114,13.8,114,13.8,114,13.9L114,13.9"/>
		</g>
	</g>
</g>
<g id="HYUNDAI">
	<g id="Grupo_26" transform="translate(0 0)" class="st0">
		<path id="Trazado_39" class="st4" d="M228.2,14.7c-4.1,0-5.6,2-5.6,5.5v20.1h5.6V33h12.7v7.4h5.6V14.7H228.2z M240.9,27.9h-12.7
			v-5.9c0-2.1,0.5-2.6,2.2-2.7h10.4L240.9,27.9z"/>
		<path id="Trazado_40" class="st4" d="M211.5,14.7H194v25.6h17.5c3.1,0,5.6-1.8,5.6-6.2V20.2C217.1,17.7,216.3,14.7,211.5,14.7z
			 M211.5,32.9c0,1-0.2,2.3-2.4,2.5h-9.6v-16h9.6c1.2-0.1,2.3,0.8,2.3,2c0,0.1,0,0.2,0,0.3L211.5,32.9z"/>
		<path id="Trazado_41" class="st4" d="M80.6,14.7h5.6v10.1h12.4V14.7h5.6v25.6h-5.6V29.9H86.1v10.4h-5.6V14.7z"/>
		<path id="Trazado_42" class="st4" d="M41.3,31.3c0.5,2.5-0.8,4.6-1.9,6.7c-1.1,2.1-3.3,3.3-5.7,3.3c-5.3-0.1-10.6-0.9-15.7-2.4
			c-0.2-0.1-0.4-0.2-0.6-0.4c-0.1-0.3,0-0.6,0.2-0.7c4.5-3.7,9.9-5.4,15.2-7.1c2-0.7,4.2-1,6.3-0.9C40.1,29.8,40.9,30.4,41.3,31.3
			 M59.9,20.5c2.5,2.1,4.8,4.9,4,8.4c-1.3,5.1-6.8,7.8-11.2,9.5c-2.4,0.9-4.9,1.5-7.4,1.9c-0.2,0-0.4,0-0.5-0.2l0.1-0.3
			c3.6-4.2,6.6-8.7,9-13.7c1.1-2.1,2.2-4.4,3.2-6.5c0.1-0.1,0.3-0.2,0.5-0.3C58.5,19.4,59.3,19.8,59.9,20.5 M24.3,15.1l-0.1,0.3
			c-5,6.1-9.1,13-12.3,20.3c-0.7,0.6-1.3-0.2-1.9-0.5c-3-2-5.7-5.1-4.9-8.9c1.2-4.9,6.3-7.5,10.5-9.3c2.5-1,5.2-1.7,7.8-2.1
			C23.7,14.8,24.1,14.8,24.3,15.1 M50.9,16c0.3,0.2,0.7,0.2,0.9,0.5c0.2,0.3-0.2,0.6-0.3,0.8c-4.2,3.1-9,5.4-14,6.8
			c-2.5,0.6-5,1.7-7.8,1.1c-0.7-0.2-1.3-0.6-1.6-1.2c-0.4-1.9,0-4,1.1-5.6c1.1-2.1,3-4.6,5.7-4.6C40.2,13.8,45.6,14.5,50.9,16
			 M58,16.2c4.3,2.4,9.2,6.5,8.7,12.1c-0.6,5.2-5.4,8.8-9.7,10.9c-12.5,6-30.1,6.2-43.1,0.9c-4.4-1.8-9.3-4.9-11.1-9.7
			C1.7,26.7,2.9,22.5,6,20c6-5.5,13.7-7.4,21.6-8.4c8.5-1,17.2-0.2,25.3,2.5C54.7,14.6,56.4,15.4,58,16.2"/>
		<path id="Trazado_43" class="st4" d="M113.7,14.7l7,10.5l6.9-10.5h6.8l-10.9,16.4v9.2h-5.6v-9.2l-10.9-16.4L113.7,14.7z"/>
		<path id="Trazado_44" class="st4" d="M165.5,14.7h17.9c2.6,0,5,0.4,5,5.5v20.1h-5.6V22.1c0-2.2-0.3-2.7-2-2.7h-9.8v20.9h-5.6V14.7
			z"/>
		<rect id="Rectángulo_4" x="252" y="14.7" class="st5" width="5.6" height="25.6"/>
		<path id="Trazado_45" class="st4" d="M137.1,40.3H155c3.6,0,5-1,5-6.2V14.7h-5.6V33c0,2.2-0.3,2.5-2,2.5h-9.8V14.7h-5.6
			L137.1,40.3z"/>
	</g>
	<g id="Grupo_26_1_" transform="translate(0 0)">
		<path id="Trazado_39_1_" class="st6" d="M228.2,14.7c-4.1,0-5.6,2-5.6,5.5v20.1h5.6V33h12.7v7.4h5.6V14.7H228.2z M240.9,27.9
			h-12.7v-5.9c0-2.1,0.5-2.6,2.2-2.7h10.4L240.9,27.9z"/>
		<path id="Trazado_40_1_" class="st6" d="M211.5,14.7H194v25.6h17.5c3.1,0,5.6-1.8,5.6-6.2V20.2C217.1,17.7,216.3,14.7,211.5,14.7z
			 M211.5,32.9c0,1-0.2,2.3-2.4,2.5h-9.6v-16h9.6c1.2-0.1,2.3,0.8,2.3,2c0,0.1,0,0.2,0,0.3L211.5,32.9z"/>
		<path id="Trazado_41_1_" class="st6" d="M80.6,14.7h5.6v10.1h12.4V14.7h5.6v25.6h-5.6V29.9H86.1v10.4h-5.6V14.7z"/>
		<path id="Trazado_42_1_" class="st6" d="M41.3,31.3c0.5,2.5-0.8,4.6-1.9,6.7c-1.1,2.1-3.3,3.3-5.7,3.3c-5.3-0.1-10.6-0.9-15.7-2.4
			c-0.2-0.1-0.4-0.2-0.6-0.4c-0.1-0.3,0-0.6,0.2-0.7c4.5-3.7,9.9-5.4,15.2-7.1c2-0.7,4.2-1,6.3-0.9C40.1,29.8,40.9,30.4,41.3,31.3
			 M59.9,20.5c2.5,2.1,4.8,4.9,4,8.4c-1.3,5.1-6.8,7.8-11.2,9.5c-2.4,0.9-4.9,1.5-7.4,1.9c-0.2,0-0.4,0-0.5-0.2l0.1-0.3
			c3.6-4.2,6.6-8.7,9-13.7c1.1-2.1,2.2-4.4,3.2-6.5c0.1-0.1,0.3-0.2,0.5-0.3C58.5,19.4,59.3,19.8,59.9,20.5 M24.3,15.1l-0.1,0.3
			c-5,6.1-9.1,13-12.3,20.3c-0.7,0.6-1.3-0.2-1.9-0.5c-3-2-5.7-5.1-4.9-8.9c1.2-4.9,6.3-7.5,10.5-9.3c2.5-1,5.2-1.7,7.8-2.1
			C23.7,14.8,24.1,14.8,24.3,15.1 M50.9,16c0.3,0.2,0.7,0.2,0.9,0.5c0.2,0.3-0.2,0.6-0.3,0.8c-4.2,3.1-9,5.4-14,6.8
			c-2.5,0.6-5,1.7-7.8,1.1c-0.7-0.2-1.3-0.6-1.6-1.2c-0.4-1.9,0-4,1.1-5.6c1.1-2.1,3-4.6,5.7-4.6C40.2,13.8,45.6,14.5,50.9,16
			 M58,16.2c4.3,2.4,9.2,6.5,8.7,12.1c-0.6,5.2-5.4,8.8-9.7,10.9c-12.5,6-30.1,6.2-43.1,0.9c-4.4-1.8-9.3-4.9-11.1-9.7
			C1.7,26.7,2.9,22.5,6,20c6-5.5,13.7-7.4,21.6-8.4c8.5-1,17.2-0.2,25.3,2.5C54.7,14.6,56.4,15.4,58,16.2"/>
		<path id="Trazado_43_1_" class="st6" d="M113.7,14.7l7,10.5l6.9-10.5h6.8l-10.9,16.4v9.2h-5.6v-9.2l-10.9-16.4L113.7,14.7z"/>
		<path id="Trazado_44_1_" class="st6" d="M165.5,14.7h17.9c2.6,0,5,0.4,5,5.5v20.1h-5.6V22.1c0-2.2-0.3-2.7-2-2.7h-9.8v20.9h-5.6
			V14.7z"/>
		<rect id="Rectángulo_4_1_" x="252" y="14.7" class="st7" width="5.6" height="25.6"/>
		<path id="Trazado_45_1_" class="st6" d="M137.1,40.3H155c3.6,0,5-1,5-6.2V14.7h-5.6V33c0,2.2-0.3,2.5-2,2.5h-9.8V14.7h-5.6
			L137.1,40.3z"/>
	</g>
</g>
<g id="KIA" class="st0">
	<g id="layer1" transform="translate(0)" class="st1">
		<path id="path2996" class="st8" d="M127.1,53.6c-3.6-0.1-7.1-0.4-10.6-0.8c-14.4-1.9-26.4-6.9-33.1-13.6c-2.6-2.4-4.4-5.6-5.3-9.1
			c-0.2-0.9-0.3-1.7-0.2-2.6c0-0.9,0.1-1.8,0.2-2.6c0.5-2.2,1.4-4.3,2.7-6.2c3.2-4.5,8.7-8.4,16-11.4c12.1-5,28-7,43.5-5.4
			c18.2,1.8,33.1,8.5,39.1,17.3c2.7,3.7,3.4,8.4,1.9,12.8c-1,2.7-2.6,5.2-4.8,7.3c-6.4,6.3-17.5,11.1-31,13.2
			C139.5,53.4,133.3,53.8,127.1,53.6L127.1,53.6z M135.1,50.3c6.6-0.3,13.1-1.5,19.4-3.4c4.4-1.3,8.7-3.3,12.6-5.8
			c1.5-1,3-2.2,4.2-3.5c1.4-1.4,2.6-3,3.5-4.7c0.9-1.7,1.3-3.5,1.3-5.4c0-1.9-0.4-3.8-1.3-5.5c-0.9-1.7-2-3.3-3.4-4.6
			c-2.5-2.5-5.4-4.5-8.6-6c-7.7-3.6-16-5.8-24.5-6.4c-5.4-0.5-10.9-0.5-16.3,0c-13.2,1.2-24.5,5.1-31.5,10.9c-1.1,1-2.2,2-3.1,3.2
			c-2.2,2.6-3.4,5.9-3.2,9.3c0.4,3.6,2.1,6.9,4.8,9.3c2.5,2.4,5.3,4.4,8.4,5.9c7.9,4,17.6,6.3,29,6.8
			C127.3,50.4,133.8,50.3,135.1,50.3L135.1,50.3z M98.1,40.7c-0.1,0-0.2-0.1-0.2-0.2c-0.1-0.1-0.1-0.2-0.1-12.3l0-12.2l-0.2-0.2
			c-0.1-0.1-0.2-0.2-0.7-0.2l-0.6,0v-1.5l4.1,0l4.1,0l0.2,0.1l0.2,0.1v4.4c0,4.8,0,4.6,0.3,4.6c0.2,0,0.3-0.1,1.5-1.8
			c3.2-4.5,4.9-7,5.1-7.1c0.4-0.4,0.2-0.4,4.2-0.4h3.6l0.1,0.1c0.2,0.1,0.2,0.4,0.2,0.6c0,0.1-1.6,2.4-7,10.5
			c-0.6,0.9-0.8,1.2-0.8,1.3c0.6,1.1,1.3,2.1,2,3.1c7.3,10.3,7.3,10.3,7.3,10.5c0,0.1,0,0.3-0.1,0.4l-0.1,0.2l-3.8,0
			c-3.7,0-3.8,0-4-0.1c-0.2-0.1-0.3-0.2-0.4-0.3c-0.1-0.1-1.8-2.5-3.8-5.3c-2-2.8-3.7-5.2-3.8-5.2c-0.2-0.1-0.4-0.1-0.5,0.1
			c0,0,0,0,0,0c-0.1,0.1-0.1,1.3-0.1,5.3v5.2l-0.1,0.2l-0.1,0.2l-3.2,0C99.6,40.8,98.1,40.8,98.1,40.7L98.1,40.7z M126.6,40.7
			c-0.1,0-0.2-0.1-0.2-0.2c-0.1-0.1-0.1-2.8-0.1-12.3V16.1l-0.2-0.2c-0.2-0.2-0.2-0.2-0.7-0.2h-0.5v-1.6h8.4l0.2,0.2l0.2,0.2v25.9
			l-0.2,0.2l-0.2,0.2l-3.3,0C128.9,40.8,127.8,40.8,126.6,40.7z M138.8,40.7c-0.2-0.1-0.3-0.2-0.3-0.4c0-0.1,0.8-2.6,1.8-5.5
			l3.5-10.4c0.9-2.8,1.9-5.7,2.2-6.5c0.2-0.5,0.4-1.1,0.5-1.6c0-0.1,0-0.2-0.1-0.3c-0.1-0.1-0.2-0.1-0.7-0.2l-0.6,0l0-0.8l0-0.8h5
			c3.3,0,5.1,0,5.3,0.1c0.1,0,0.2,0.1,0.3,0.2c0.1,0.1,0.6,1.8,3.3,9.8c4.3,13,5.3,15.9,5.3,16.1c0,0.2-0.1,0.4-0.3,0.5
			c-0.1,0-1.1,0.1-3.3,0.1c-1.1,0.1-2.2,0.1-3.4-0.1c-0.1-0.1-0.2-0.1-0.3-0.2c-0.1-0.1-0.5-1.4-1-2.9c-4.6-14.3-4.5-13.9-4.6-14
			c-0.1-0.1-0.2-0.1-0.3,0c-0.1,0.1-0.3,0.6-2.8,8.5c-0.7,2.3-1.5,4.7-1.7,5.5s-0.5,1.6-0.7,2.1c-0.3,0.8-0.4,1-0.7,1.1
			C145.2,40.8,139,40.8,138.8,40.7L138.8,40.7z"/>
	</g>
</g>
<g id="VW" class="st0">
	<g id="Grupo_49" class="st1">
		<path id="Trazado_94" class="st9" d="M130,52.1C116.5,52,105.5,41,105.5,27.5c0-2.9,0.5-5.8,1.6-8.6l14.3,28.9
			c0.2,0.4,0.4,0.7,0.9,0.7c0.4,0,0.8-0.3,0.9-0.7l6.6-14.8c0.1-0.2,0.2-0.3,0.3-0.3s0.2,0.2,0.3,0.3l6.6,14.8
			c0.1,0.4,0.5,0.7,0.9,0.7c0.5,0,0.7-0.3,0.9-0.7L153,18.9c1,2.7,1.6,5.7,1.6,8.6C154.5,41,143.5,52,130,52.1 M130,21.9
			c-0.2,0-0.2-0.2-0.3-0.3L122,4.3c5.2-1.9,10.9-1.9,16.1,0l-7.7,17.3C130.2,21.8,130.2,21.9,130,21.9 M122.2,39.7
			c-0.2,0-0.2-0.2-0.3-0.3l-12.5-25.2c2.2-3.4,5.3-6.3,8.8-8.3l9,20c0.1,0.3,0.4,0.5,0.7,0.5h4.3c0.3,0,0.6-0.2,0.7-0.5l9-20
			c3.6,2,6.6,4.9,8.8,8.3l-12.5,25.2c-0.1,0.2-0.2,0.3-0.3,0.3s-0.2-0.2-0.3-0.3l-4.7-10.8c-0.1-0.3-0.4-0.5-0.7-0.5h-4.3
			c-0.3,0-0.6,0.2-0.7,0.5l-4.7,10.8C122.4,39.6,122.3,39.7,122.2,39.7 M130,54.6c15,0,27.1-12.1,27.1-27.1S145,0.4,130,0.4
			c-15,0-27.1,12.1-27.1,27.1c0,0,0,0,0,0C102.9,42.5,115,54.6,130,54.6C130,54.6,130,54.6,130,54.6"/>
	</g>
</g>
<g id="ISUZU" class="st0">
	<g id="Grupo_24" transform="translate(0 0)" class="st1">
		<path id="Trazado_34" class="st2" d="M13.8,45.3V9.7H2.9v35.6H13.8z"/>
		<path id="Trazado_35" class="st2" d="M122.9,45.3c9.8,0,12.6-4.5,12.6-10.4V9.7h-10.9v21.6c0,3.2-0.8,5.7-6.5,5.7H112
			c-5.8,0-6.5-2.6-6.5-5.7V9.7H94.6v25.2c0,5.9,2.7,10.4,12.6,10.4H122.9z"/>
		<path id="Trazado_36" class="st2" d="M244.5,45.3c9.8,0,12.6-4.5,12.6-10.4V9.7h-10.9v21.6c0,3.2-0.8,5.7-6.5,5.7h-6.1
			c-5.8,0-6.5-2.6-6.5-5.7V9.7h-10.9v25.2c0,5.9,2.7,10.4,12.6,10.4H244.5z"/>
		<path id="Trazado_37" class="st2" d="M30.6,37v8.3H66c4.1,0.2,7.7-2.6,8.5-6.6c0.5-2.3-0.2-7.2-4.1-8.8l-26.6-10
			c-1.1-0.5-0.5-2,0.8-2H71V9.7H43.8c-5.8,0-10.6,2.1-11.8,6c-1.1,3.5-1,9,4.3,10.8l23.9,8.8c1.5,0.6,1.1,1.7-0.2,1.7L30.6,37z"/>
		<path id="Trazado_38" class="st2" d="M196.2,37v8.3h-33.9c-5.9,0-7-3.3-7.4-5.6c-0.5-2.3,0.2-7.2,4.1-8.8l24.3-12.4
			c0.5-0.2,0.6-0.6,0-0.6h-27.5V9.7h27.6c5.8,0,10.6,0.2,12.3,4c1.8,3.6,0.2,8-3.4,9.8c-0.4,0.2-0.7,0.3-1.1,0.4l-22.8,11.6
			c-1.1,0.5-1.2,1.5,0.1,1.5L196.2,37z"/>
	</g>
	<g id="Grupo_24_1_" transform="translate(0 0)" class="st1">
		<path id="Trazado_34_1_" class="st10" d="M13.8,45.3V9.7H2.9v35.6H13.8z"/>
		<path id="Trazado_35_1_" class="st10" d="M122.9,45.3c9.8,0,12.6-4.5,12.6-10.4V9.7h-10.9v21.6c0,3.2-0.8,5.7-6.5,5.7H112
			c-5.8,0-6.5-2.6-6.5-5.7V9.7H94.6v25.2c0,5.9,2.7,10.4,12.6,10.4H122.9z"/>
		<path id="Trazado_36_1_" class="st10" d="M244.5,45.3c9.8,0,12.6-4.5,12.6-10.4V9.7h-10.9v21.6c0,3.2-0.8,5.7-6.5,5.7h-6.1
			c-5.8,0-6.5-2.6-6.5-5.7V9.7h-10.9v25.2c0,5.9,2.7,10.4,12.6,10.4H244.5z"/>
		<path id="Trazado_37_1_" class="st10" d="M30.6,37v8.3H66c4.1,0.2,7.7-2.6,8.5-6.6c0.5-2.3-0.2-7.2-4.1-8.8l-26.6-10
			c-1.1-0.5-0.5-2,0.8-2H71V9.7H43.8c-5.8,0-10.6,2.1-11.8,6c-1.1,3.5-1,9,4.3,10.8l23.9,8.8c1.5,0.6,1.1,1.7-0.2,1.7L30.6,37z"/>
		<path id="Trazado_38_1_" class="st10" d="M196.2,37v8.3h-33.9c-5.9,0-7-3.3-7.4-5.6c-0.5-2.3,0.2-7.2,4.1-8.8l24.3-12.4
			c0.5-0.2,0.6-0.6,0-0.6h-27.5V9.7h27.6c5.8,0,10.6,0.2,12.3,4c1.8,3.6,0.2,8-3.4,9.8c-0.4,0.2-0.7,0.3-1.1,0.4l-22.8,11.6
			c-1.1,0.5-1.2,1.5,0.1,1.5L196.2,37z"/>
	</g>
</g>
<g id="TOYOTA" class="st0">
	<g id="Grupo_44" class="st1">
		<path id="Trazado_85" class="st3" d="M53.6,9.2C48.3,7.1,42.5,6,36.7,6.1h0c-0.3,0-0.6,0-0.9,0h0c-6.1-0.2-12.2,0.9-18,3.2
			c-9.3,3.7-15,10.3-15,17.9c0,12.2,13.9,21.8,32.9,21.8s32.9-9.6,32.9-21.8C68.7,19.6,63,12.9,53.6,9.2z M54.8,15.3
			c0,3.4-5.3,5.7-11.5,6.6c-1-8.8-4.1-13.3-7.5-13.3s-6.5,4.5-7.5,13.3c-6.2-1-11.6-3.2-11.6-6.6c0-2,2.5-3.7,6.2-4.9
			c3.5-1.1,7.2-1.7,10.9-1.8h0c0.4,0,0.8,0,1.3,0h0.1c0.2,0,0.4,0,0.6,0h0h0.6h0.2l0.5,0c0.1,0,0.1,0,0.2,0l0.4,0c0.1,0,0.1,0,0.2,0
			c0.2,0,0.4,0,0.6,0h0.1c3.4,0.2,6.7,0.8,9.9,1.7C52.2,11.5,54.8,13.3,54.8,15.3L54.8,15.3z M40.9,27.4c0,8-2.8,12.2-5.1,12.2
			s-5.1-4.2-5.1-12.2v-0.1c1.6,0.1,3.3,0.2,5,0.2C37.6,27.5,39.3,27.4,40.9,27.4L40.9,27.4z M35.8,22.5c-1.5,0-3.1-0.1-4.7-0.2
			c0.8-5.9,3.1-8.5,4.7-8.5s3.9,2.6,4.7,8.5C39,22.5,37.3,22.5,35.8,22.5L35.8,22.5z M7.5,26c0-3.4,1.4-6.6,3.8-8.9
			c0.4,4.7,7,8.6,16.8,9.9c0,0.4,0,0.7,0,1.1c0,11.8,3.4,17.8,7.1,18.5C22.2,46.3,7.5,38.9,7.5,26L7.5,26z M36.6,46.6
			c3.7-0.7,7.1-6.7,7.1-18.5c0-0.4,0-0.8,0-1.1c9.7-1.4,16.3-5.2,16.7-9.9c2.4,2.4,3.7,5.6,3.8,8.9C64.1,38.9,49.4,46.3,36.6,46.6
			L36.6,46.6z"/>
		<g id="Grupo_43" transform="translate(42.406 2.912)">
			<path id="Trazado_86" class="st3" d="M42.5,14.7h-9.3V9.1h25.4v5.6h-9.7v24.1h-6.4V14.7z"/>
			<path id="Trazado_87" class="st3" d="M104.5,27.6L92.8,9.1h7.8l7.5,12.4l7.7-12.4h7.7l-12,18.5l-0.1,11.2h-6.8L104.5,27.6z"/>
			<path id="Trazado_88" class="st3" d="M128.5,13c3-3.1,7.1-4.8,11.4-4.8c8.8-0.1,16,7,16,15.8c0,0.1,0,0.2,0,0.3
				c0,3.7-1.4,7.2-3.8,10c-3,3.6-7.5,5.6-12.2,5.6c-8.6,0.2-15.8-6.6-16-15.2c0-0.1,0-0.2,0-0.4C123.8,20,125.5,16,128.5,13z
				 M139.8,33.9c5.9,0,8.5-4.6,8.5-9.6c0-5.4-2.5-10.1-8.5-10.1c-6.3,0-8.5,5.5-8.5,10.1C131.3,29.2,133.9,33.9,139.8,33.9
				L139.8,33.9z"/>
			<path id="Trazado_89" class="st3" d="M194.3,9.1h8.5l11.8,29.7h-7.1l-2.6-6.6h-12.9l-2.6,6.6h-7.1L194.3,9.1z M194.3,27h8.6
				l-4.3-10.7L194.3,27z"/>
			<path id="Trazado_90" class="st3" d="M167.2,14.7h-9.3V9.1h25.4v5.6h-9.7v24.1h-6.4L167.2,14.7z"/>
			<path id="Trazado_91" class="st3" d="M64.8,13c3-3.1,7.1-4.8,11.4-4.8c8.8-0.1,16,7,16,15.8c0,0.1,0,0.2,0,0.3
				c0,3.7-1.4,7.2-3.8,10c-3,3.6-7.5,5.6-12.2,5.6c-8.6,0.2-15.8-6.6-16-15.2c0-0.1,0-0.2,0-0.4C60.2,20,61.8,16,64.8,13z
				 M76.2,33.9c5.9,0,8.5-4.6,8.5-9.6c0-5.4-2.5-10.1-8.5-10.1c-6.3,0-8.5,5.5-8.5,10.1C67.7,29.2,70.3,33.9,76.2,33.9z"/>
		</g>
	</g>
	<g id="Grupo_44_1_" class="st1">
		<path id="Trazado_85_1_" class="st11" d="M53.6,9.2C48.3,7.1,42.5,6,36.7,6.1h0c-0.3,0-0.6,0-0.9,0h0c-6.1-0.2-12.2,0.9-18,3.2
			c-9.3,3.7-15,10.3-15,17.9c0,12.2,13.9,21.8,32.9,21.8s32.9-9.6,32.9-21.8C68.7,19.6,63,12.9,53.6,9.2z M54.8,15.3
			c0,3.4-5.3,5.7-11.5,6.6c-1-8.8-4.1-13.3-7.5-13.3s-6.5,4.5-7.5,13.3c-6.2-1-11.6-3.2-11.6-6.6c0-2,2.5-3.7,6.2-4.9
			c3.5-1.1,7.2-1.7,10.9-1.8h0c0.4,0,0.8,0,1.3,0h0.1c0.2,0,0.4,0,0.6,0h0h0.6h0.2l0.5,0c0.1,0,0.1,0,0.2,0l0.4,0c0.1,0,0.1,0,0.2,0
			c0.2,0,0.4,0,0.6,0h0.1c3.4,0.2,6.7,0.8,9.9,1.7C52.2,11.5,54.8,13.3,54.8,15.3L54.8,15.3z M40.9,27.4c0,8-2.8,12.2-5.1,12.2
			s-5.1-4.2-5.1-12.2v-0.1c1.6,0.1,3.3,0.2,5,0.2C37.6,27.5,39.3,27.4,40.9,27.4L40.9,27.4z M35.8,22.5c-1.5,0-3.1-0.1-4.7-0.2
			c0.8-5.9,3.1-8.5,4.7-8.5s3.9,2.6,4.7,8.5C39,22.5,37.3,22.5,35.8,22.5L35.8,22.5z M7.5,26c0-3.4,1.4-6.6,3.8-8.9
			c0.4,4.7,7,8.6,16.8,9.9c0,0.4,0,0.7,0,1.1c0,11.8,3.4,17.8,7.1,18.5C22.2,46.3,7.5,38.9,7.5,26L7.5,26z M36.6,46.6
			c3.7-0.7,7.1-6.7,7.1-18.5c0-0.4,0-0.8,0-1.1c9.7-1.4,16.3-5.2,16.7-9.9c2.4,2.4,3.7,5.6,3.8,8.9C64.1,38.9,49.4,46.3,36.6,46.6
			L36.6,46.6z"/>
		<g id="Grupo_43_1_" transform="translate(42.406 2.912)">
			<path id="Trazado_86_1_" class="st11" d="M42.5,14.7h-9.3V9.1h25.4v5.6h-9.7v24.1h-6.4V14.7z"/>
			<path id="Trazado_87_1_" class="st11" d="M104.5,27.6L92.8,9.1h7.8l7.5,12.4l7.7-12.4h7.7l-12,18.5l-0.1,11.2h-6.8L104.5,27.6z"
				/>
			<path id="Trazado_88_1_" class="st11" d="M128.5,13c3-3.1,7.1-4.8,11.4-4.8c8.8-0.1,16,7,16,15.8c0,0.1,0,0.2,0,0.3
				c0,3.7-1.4,7.2-3.8,10c-3,3.6-7.5,5.6-12.2,5.6c-8.6,0.2-15.8-6.6-16-15.2c0-0.1,0-0.2,0-0.4C123.8,20,125.5,16,128.5,13z
				 M139.8,33.9c5.9,0,8.5-4.6,8.5-9.6c0-5.4-2.5-10.1-8.5-10.1c-6.3,0-8.5,5.5-8.5,10.1C131.3,29.2,133.9,33.9,139.8,33.9
				L139.8,33.9z"/>
			<path id="Trazado_89_1_" class="st11" d="M194.3,9.1h8.5l11.8,29.7h-7.1l-2.6-6.6h-12.9l-2.6,6.6h-7.1L194.3,9.1z M194.3,27h8.6
				l-4.3-10.7L194.3,27z"/>
			<path id="Trazado_90_1_" class="st11" d="M167.2,14.7h-9.3V9.1h25.4v5.6h-9.7v24.1h-6.4L167.2,14.7z"/>
			<path id="Trazado_91_1_" class="st11" d="M64.8,13c3-3.1,7.1-4.8,11.4-4.8c8.8-0.1,16,7,16,15.8c0,0.1,0,0.2,0,0.3
				c0,3.7-1.4,7.2-3.8,10c-3,3.6-7.5,5.6-12.2,5.6c-8.6,0.2-15.8-6.6-16-15.2c0-0.1,0-0.2,0-0.4C60.2,20,61.8,16,64.8,13z
				 M76.2,33.9c5.9,0,8.5-4.6,8.5-9.6c0-5.4-2.5-10.1-8.5-10.1c-6.3,0-8.5,5.5-8.5,10.1C67.7,29.2,70.3,33.9,76.2,33.9z"/>
		</g>
	</g>
</g>
<g id="SUZUKI" class="st0">
	<g id="Grupo_47" transform="translate(0 0)" class="st1">
		<g id="Grupo_46">
			<path id="Trazado_92" class="st2" d="M27.4,3l25.2,17.4c-3.9,2.4-8.4,3.7-13,3.9c-3.1,0-5.1-1.2-9.7-4.3s-6.8-4.7-7.2-5.1
				c-1-0.7-2.3,0.3-1.3,1.2c1,0.8,31,20.9,31,20.9c-9.1,3.6-17.5,8.7-25,15L2.2,34.6c3.9-2.4,8.4-3.7,13-3.9c3.1,0,5.2,1.2,9.7,4.3
				c4.6,3.1,6.8,4.7,7.2,5.1c1,0.7,2.3-0.3,1.3-1.2c-1-0.8-31-20.9-31-20.9C11.5,14.3,19.9,9.3,27.4,3z"/>
			<path id="Trazado_93" class="st2" d="M76.8,33.1c0,0.4,0.6,3.1,5.1,3.1c3.4,0,4.2-1.1,4.2-1.9c0-5.2-22.4,0-22.4-11.8
				c0-7.2,8.1-9.7,16.6-9.7c18.8,0,17.5,9.2,17.5,9.2H84.5c0-1.7-2.5-3.1-4.3-3.1c-1.4,0-4.8,0-4.8,2c0,4.1,23.4,1.1,23.4,12.1
				c0,3.8-2,9.6-18.1,9.6c-19.6,0-17.6-9.4-17.6-9.4L76.8,33.1z M257.8,41.4V13.1h-10.2v28.2L257.8,41.4z M218.8,41.4V30.4l12,10.9
				h14.4l-15.8-15.1l15.9-13.1h-14.3l-12.2,10.6V13.1h-10v28.2L218.8,41.4z M169.8,19.3v-6.2h-32.8v7.3h16.1l-16.7,15.1v5.9h33.5v-7
				h-16.7L169.8,19.3z M100,32.6c0,8.3,9.6,9.3,17.2,9.3c7.6,0,17.2-0.9,17.2-9.3V13.1h-10.7c0,0,0,11.7,0,17.5c0,3.5-3.2,5-6.3,5
				s-6.3-1.5-6.3-5c0-5.6,0-17.5,0-17.5H100L100,32.6z M171.8,32.6c0,8.3,9.6,9.3,17.2,9.3c7.6,0,17.2-0.9,17.2-9.3V13.1h-10.7
				c0,0,0,11.7,0,17.5c0,3.5-3.2,5-6.3,5s-6.3-1.5-6.3-5c0-5.6,0-17.5,0-17.5h-11.1L171.8,32.6z"/>
		</g>
	</g>
	<g id="Grupo_47_1_" transform="translate(0 0)" class="st1">
		<g id="Grupo_46_1_">
			<path id="Trazado_92_1_" class="st2" d="M27.4,3l25.2,17.4c-3.9,2.4-8.4,3.7-13,3.9c-3.1,0-5.1-1.2-9.7-4.3s-6.8-4.7-7.2-5.1
				c-1-0.7-2.3,0.3-1.3,1.2c1,0.8,31,20.9,31,20.9c-9.1,3.6-17.5,8.7-25,15L2.2,34.6c3.9-2.4,8.4-3.7,13-3.9c3.1,0,5.2,1.2,9.7,4.3
				c4.6,3.1,6.8,4.7,7.2,5.1c1,0.7,2.3-0.3,1.3-1.2c-1-0.8-31-20.9-31-20.9C11.5,14.3,19.9,9.3,27.4,3z"/>
			<path id="Trazado_93_1_" class="st2" d="M76.8,33.1c0,0.4,0.6,3.1,5.1,3.1c3.4,0,4.2-1.1,4.2-1.9c0-5.2-22.4,0-22.4-11.8
				c0-7.2,8.1-9.7,16.6-9.7c18.8,0,17.5,9.2,17.5,9.2H84.5c0-1.7-2.5-3.1-4.3-3.1c-1.4,0-4.8,0-4.8,2c0,4.1,23.4,1.1,23.4,12.1
				c0,3.8-2,9.6-18.1,9.6c-19.6,0-17.6-9.4-17.6-9.4L76.8,33.1z M257.8,41.4V13.1h-10.2v28.2L257.8,41.4z M218.8,41.4V30.4l12,10.9
				h14.4l-15.8-15.1l15.9-13.1h-14.3l-12.2,10.6V13.1h-10v28.2L218.8,41.4z M169.8,19.3v-6.2h-32.8v7.3h16.1l-16.7,15.1v5.9h33.5v-7
				h-16.7L169.8,19.3z M100,32.6c0,8.3,9.6,9.3,17.2,9.3c7.6,0,17.2-0.9,17.2-9.3V13.1h-10.7c0,0,0,11.7,0,17.5c0,3.5-3.2,5-6.3,5
				s-6.3-1.5-6.3-5c0-5.6,0-17.5,0-17.5H100L100,32.6z M171.8,32.6c0,8.3,9.6,9.3,17.2,9.3c7.6,0,17.2-0.9,17.2-9.3V13.1h-10.7
				c0,0,0,11.7,0,17.5c0,3.5-3.2,5-6.3,5s-6.3-1.5-6.3-5c0-5.6,0-17.5,0-17.5h-11.1L171.8,32.6z"/>
		</g>
	</g>
	<g class="st1">
		<g>
			<path class="st12" d="M27.4,3l25.2,17.4c0,0-6.2,3.9-13,3.9c-3.1,0-5.1-1.2-9.7-4.3c-4.6-3.1-6.8-4.7-7.2-5.1
				c-1-0.7-2.3,0.3-1.3,1.2c1,0.8,31,20.9,31,20.9s-11.3,3.8-25,15L2.2,34.6c0,0,6.2-3.9,13-3.9c3.1,0,5.2,1.2,9.7,4.3
				c4.6,3.1,6.8,4.7,7.2,5.1c1,0.7,2.3-0.3,1.3-1.2c-1-0.8-31-20.9-31-20.9S13.7,14.1,27.4,3z"/>
			<path class="st13" d="M76.8,33.1c-0.1,0.4,0.6,3.1,5.1,3.1c3.4,0,4.2-1.1,4.2-1.9c0-5.2-22.4,0-22.4-11.8c0-7.2,8.1-9.7,16.6-9.7
				c18.8,0,17.5,9.2,17.5,9.2H84.5c0-1.7-2.5-3.1-4.3-3.1c-1.4,0-4.8,0-4.8,2c0,4.1,23.4,1.1,23.4,12.1c0,3.8-2,9.6-18.1,9.6
				c-19.6,0-17.6-9.4-17.6-9.4H76.8z M257.8,41.4V13.1h-10.2v28.2H257.8z M218.8,41.4V30.4l12,10.9h14.4l-15.8-15.1l15.9-13.1h-14.3
				l-12.2,10.6V13.1h-10v28.2H218.8z M169.8,19.3v-6.2h-32.8v7.3h16.1l-16.7,15.1v5.9h33.5v-7h-16.7L169.8,19.3z M100,32.6
				c0,8.3,9.6,9.3,17.2,9.3c7.6,0,17.2-0.9,17.2-9.3c0-6.1,0-19.4,0-19.4h-10.7c0,0,0,11.7,0,17.5c0,3.5-3.2,5-6.3,5
				c-3.2,0-6.3-1.5-6.3-5c0-5.7,0-17.5,0-17.5H100C100,13.1,100,26.8,100,32.6z M171.8,32.6c0,8.3,9.6,9.3,17.2,9.3
				c7.6,0,17.2-0.9,17.2-9.3c0-6.1,0-19.4,0-19.4h-10.7c0,0,0,11.7,0,17.5c0,3.5-3.2,5-6.3,5c-3.2,0-6.3-1.5-6.3-5
				c0-5.7,0-17.5,0-17.5h-11.1C171.8,13.1,171.8,26.8,171.8,32.6z"/>
		</g>
	</g>
</g>
<g id="RENT_A_CAR" class="st0">
	<g id="Grupo_185" transform="translate(-52.374 -39.786)" class="st1">
		<g id="Grupo_180" transform="translate(52.374 39.786)">
			<g id="Grupo_179">
				<g id="Grupo_178" transform="translate(0 25.763)">
					<path id="Trazado_496" class="st14" d="M60.2,11.8h-5.5c0-1.9-1.9-3.3-5.2-5.6c-5.4-3.8-12.8-9-12.8-21.7h5.5
						c0,4.4,1.1,8,3.3,11c2,2.7,4.6,4.5,7.2,6.3C56.4,4.2,60.2,6.9,60.2,11.8z"/>
				</g>
				<path id="Trazado_497" class="st14" d="M63.3,1.5c-5.8,0-10.6,2.8-12.6,7.2c-1.9,4.1-0.9,8.9,2.4,12.7c1.3,1.5,3.5,3.1,6,5
					c4.1,3.1,10.4,7.8,10.4,11.1H75c0-6-6.7-11-12.5-15.5c-0.4-0.3-0.7-0.6-1.1-0.8c-0.3-0.5-0.3-1,0-1.5c0.2-0.5,0.7-0.8,1.2-0.8
					H73l8.7-17.4H63.3z M69.4,13.4h-6.9c-2.5,0-4.7,1.4-5.9,3.5c-1.4-2-1.8-4.2-0.9-6.1c1.1-2.5,4-4,7.6-4h9.3L69.4,13.4z"/>
			</g>
		</g>
		<g id="Grupo_181" transform="translate(322 163.937)">
			<path id="Trazado_498" class="st14" d="M-142.1-80.6h3.6c2.8,0,4,0.6,4,3.2c0,1.7-0.5,2.5-1.8,2.9l1.9,3.7h-1.7l-1.7-3.5
				c-0.2,0-0.5,0-0.7,0h-1.9v3.4h-1.6L-142.1-80.6z M-140.5-75.8h1.8c1.6,0,2.5-0.1,2.5-1.7c0-1.6-0.9-1.7-2.5-1.7h-1.8V-75.8z"/>
			<path id="Trazado_499" class="st14" d="M-132.9-80.6h6.4v1.5h-4.8v2.5h4.1v1.4h-4.1v2.8h4.9v1.5h-6.5V-80.6z"/>
			<path id="Trazado_500" class="st14" d="M-123.6-70.9h-1.5l0-9.7h1.7l4.7,7.5l-0.1-7.5h1.5v9.7h-1.7l-4.7-7.6L-123.6-70.9z"/>
			<path id="Trazado_501" class="st14" d="M-113.1-79.1h-2.9v-1.5h7.5v1.5h-3l0,8.2h-1.6L-113.1-79.1z"/>
			<path id="Trazado_502" class="st14" d="M-108.2-75.8h3.3v1.2h-3.3V-75.8z"/>
			<path id="Trazado_503" class="st14" d="M-100.6-80.6h1.7l3.6,9.7H-97l-0.7-2h-4.2l-0.7,2h-1.7L-100.6-80.6z M-98.2-74.4l-1.6-4.7
				l-1.6,4.7H-98.2z"/>
			<path id="Trazado_504" class="st14" d="M-94.6-75.8h3.3v1.2h-3.3V-75.8z"/>
			<path id="Trazado_505" class="st14" d="M-85.5-70.6c-2.9,0-4.1-1.6-4.1-5.1c0-3.5,1.2-5.1,4.1-5.1c2.5,0,3.8,1.1,3.8,3.8h-1.6
				c-0.1-1.6-0.8-2.3-2.2-2.3c-1.7,0-2.4,1.1-2.4,3.6c0,2.6,0.7,3.6,2.4,3.6c1.4,0,2.1-0.6,2.2-2.2h1.6
				C-81.8-71.7-83.1-70.6-85.5-70.6z"/>
			<path id="Trazado_506" class="st14" d="M-77.7-80.6h1.7l3.6,9.7h-1.8l-0.7-2h-4.2l-0.7,2h-1.7L-77.7-80.6z M-75.2-74.4l-1.6-4.7
				l-1.6,4.7H-75.2z"/>
			<path id="Trazado_507" class="st14" d="M-71.2-80.6h3.6c2.8,0,4,0.6,4,3.2c0,1.7-0.5,2.5-1.8,2.9l1.9,3.7h-1.7l-1.7-3.5
				c-0.2,0-0.5,0-0.7,0h-1.9v3.4h-1.6L-71.2-80.6z M-69.6-75.8h1.8c1.6,0,2.5-0.1,2.5-1.7c0-1.6-0.9-1.7-2.5-1.7h-1.8L-69.6-75.8z"
				/>
		</g>
		<g id="Grupo_182" transform="translate(568.474 82.946)">
			<path id="Trazado_508" class="st14" d="M-293.5-24.3c-0.6-0.7-1.5-1.2-2.4-1.5l0.2,0.4c0,0-5.5-1.4-6.2,2.5l0.4-0.3
				c0,0-1,2.5,2.4,3.1c3.5,0.6,1.5,4.4-2,3.8l0.6-0.3c-1.3,0.2-2.7-0.1-3.8-0.9c0.2,0,0.5,0,0.7,0c-0.1-0.1-1.8-1.6-2-3
				c0.2,0.1,0.4,0.2,0.6,0.3c0,0.1-1.5-3.9,3.1-6.4c-0.1,0.2-0.2,0.4-0.2,0.7c0,0,1.5-1.5,4.6-1.2c-0.3,0.1-0.5,0.2-0.7,0.4
				C-296.4-26.8-294.6-25.9-293.5-24.3C-293.2-24.1-293.5-24.3-293.5-24.3z"/>
			<path id="Trazado_509" class="st14" d="M-304.8-16.8c0.6,0.7,1.5,1.2,2.4,1.5l-0.2-0.4c0,0,5.5,1.4,6.2-2.5l-0.4,0.3
				c0,0,1-2.5-2.4-3.1c-3.5-0.6-1.5-4.4,2-3.8l-0.6,0.3c1.3-0.2,2.7,0.1,3.8,0.9c-0.2,0-0.5,0-0.7,0c0.1,0.1,1.8,1.6,2,3
				c-0.2-0.1-0.4-0.2-0.6-0.3c0-0.1,1.5,3.9-3.1,6.4c0.1-0.2,0.2-0.4,0.2-0.7c0,0-1.5,1.5-4.6,1.2c0.3-0.1,0.5-0.2,0.7-0.4
				C-302-14.4-303.8-15.2-304.8-16.8C-305.1-17.1-304.8-16.9-304.8-16.8z"/>
		</g>
		<g id="Grupo_184" transform="translate(189.892 79.528)">
			<g id="Grupo_183">
				<path id="Trazado_510" class="st15" d="M-34.1-9c-0.6,2.4-1.6,4.1-3,5.2c-1.4,1.1-3.4,1.6-5.9,1.6h-11.5l1.1-4.6h10.8
					c1.1,0,1.9-0.2,2.4-0.5c0.5-0.4,0.9-0.9,1-1.6c0.1-0.2,0.1-0.5,0.1-0.8c0-0.3-0.1-0.6-0.3-0.9c-0.3-0.3-1-0.4-2-0.4h-4.9
					c-2.3,0-3.9-0.5-4.9-1.6c-0.5-0.7-0.8-1.6-0.8-2.7c0-0.8,0.1-1.5,0.3-2.2c0.6-2.4,1.6-4.1,3-5.3c1.4-1.1,3.4-1.7,5.9-1.7h11.4
					l-1.1,4.6l-10.7,0c-1.1,0-1.9,0.2-2.3,0.6c-0.5,0.3-0.9,0.9-1.1,1.8c0,0.2-0.1,0.4-0.1,0.6c0,0.3,0.1,0.6,0.2,0.8
					c0.3,0.3,0.9,0.5,1.6,0.5h5.5c2.4,0,4,0.5,4.7,1.5c0.5,0.6,0.8,1.5,0.8,2.7C-33.8-10.6-33.9-9.8-34.1-9z"/>
				<path id="Trazado_511" class="st15" d="M-10.5-13.4c-0.4,1.8-1,3.5-1.9,5.1c-0.7,1.4-1.6,2.6-2.8,3.6c-2.1,1.9-4.9,2.9-8.4,2.9
					c-3.5,0-5.9-1-7.1-2.9c-0.7-1.1-1-2.5-1-4.2c0-1.6,0.3-3.3,0.7-4.8c0.4-1.7,1-3.3,1.7-4.9c0.7-1.3,1.6-2.5,2.7-3.5
					c2.1-1.8,4.9-2.8,8.4-2.8c3.5,0,5.9,0.9,7.1,2.8c0.7,1.1,1.1,2.6,1.1,4.4C-10-16.2-10.2-14.8-10.5-13.4z M-15.8-13.4
					c0.3-1,0.4-2.1,0.4-3.2c0-0.8-0.1-1.5-0.5-2.2c-0.5-1.1-1.6-1.7-3.3-1.7c-1.6-0.1-3.1,0.6-4.2,1.7c-1.1,1.1-1.9,2.9-2.5,5.2
					c-0.3,1.1-0.5,2.3-0.5,3.5c0,0.7,0.1,1.5,0.4,2.1c0.5,1.1,1.7,1.7,3.4,1.7c1.6,0,3.1-0.6,4.2-1.7C-17.2-9.1-16.4-10.9-15.8-13.4
					L-15.8-13.4z"/>
				<path id="Trazado_512" class="st15" d="M26.1-2.2h-5.5l-0.6-5.1h-8.1l-3,5.1H3.1l13.9-22.3h5.5L26.1-2.2z M19.5-11.9l-0.9-6.8
					l-4,6.8H19.5z"/>
				<path id="Trazado_513" class="st15" d="M45.7-2.2h-5.4l-4.4-15.2L32.5-2.2h-5l5.2-22.3h5.8l4.2,14.4L46-24.5h5L45.7-2.2z"/>
				<path id="Trazado_514" class="st15" d="M69.4-2.2h-5.5l-0.6-5.1h-8.1l-3,5.1h-5.8l13.9-22.3h5.5L69.4-2.2z M62.8-11.9l-0.9-6.8
					l-4,6.8H62.8z"/>
			</g>
			<path id="Trazado_515" class="st15" d="M-0.5-6.5c-0.7,0-1.5-0.1-2.2-0.3C-3-7-3.2-7.1-3.4-7.3c-0.2-0.2-0.4-0.4-0.5-0.6
				c-0.2-0.3-0.2-0.7-0.2-1c0.1-0.9,0.3-1.7,0.5-2.6l3-13h-4.9l-3.1,13.2C-8.7-10.6-8.9-9.8-9-9C-9-8.4-9.1-7.9-9.1-7.3
				C-9-6.3-8.7-5.4-8.2-4.6C-7.7-3.8-7-3.1-6.1-2.7c0.9,0.3,2.3,0.5,4.1,0.5h2.5l2.7-4.3L-0.5-6.5z"/>
		</g>
	</g>
</g>
<g id="FLOTILLAS" class="st0">
	<g id="Grupo_199" transform="translate(-25.471 -136.658)" class="st1">
		<g id="Grupo_188" transform="translate(110.884 136.658)">
			<path id="Trazado_520" class="st16" d="M31.1,7.1c-0.6-0.4-1.3-0.1-2-0.2c-0.7-0.1-0.9-0.5-0.9-1.1c0-0.7,0.5-0.8,1-0.7
				c0.9,0.2,2.2-0.9,2.6,0.9c0.1,0.4,0.5,0.1,0.7-0.1c0.6-0.7,1.1-1.4,1.5-2.3c0.8-2,2.3-3,4.5-3c4.3,0,8.5,0,12.8,0
				c1.7,0,2.7,0.7,3.4,2.2c0.6,1.4,1.1,2.8,2.4,3.8c0.4-1.3,2.2-2.2,3.4-1.5C60.9,5.2,61,5.6,60.9,6c-0.1,0.5-0.3,0.8-0.8,0.8
				c-0.8,0-1.5,0-2.6,0c2.1,2.7,3.6,5.3,3.7,8.5c0,1.3,0,2.5-0.2,3.8c-0.1,0.8,0.1,1.9-1.2,2.1c-1.2,0.1-2.6,0.7-3.4-0.8
				c-0.4-0.7-0.9-0.7-1.5-0.7c-6.9,0-13.7,0-20.6,0c-0.6,0-1.2,0.2-1.6,0.7c-0.6,0.6-1.4,0.9-2.3,1.1c-1.4,0.2-2.2-0.2-2.2-1.8
				c0-1.3-0.1-2.5-0.2-3.8c-0.1-2.5,0.3-4.8,2-6.8C30.5,8.4,31,7.9,31.1,7.1z M55.3,6.5c-0.3-0.8-0.6-1.4-0.8-1.9
				c-0.6-2.3-2.1-3.1-4.5-3c-3.5,0.2-7,0-10.6,0c-3.7,0-4.2,0.4-5.3,3.9c-0.3,0.9,0,1,0.8,1C41.7,6.5,48.4,6.5,55.3,6.5L55.3,6.5z
				 M51.8,12.2c2,0.7,3.7,0.5,5.4,0.1c1-0.2,1-1,0.9-1.7c-0.1-0.9-0.8-0.9-1.5-0.8C54.9,10.2,53.2,10.8,51.8,12.2z M34.7,12.7
				c0.5,0,0.9-0.1,1.4-0.2c0.6-0.2,0.8-0.6,0.3-1c-1.2-1-2.6-1.5-4.2-1.6c-0.7,0-1.3,0.4-1.3,1.2c0,0.9,0.5,1.1,1.3,1.2
				C32.9,12.4,33.8,12.6,34.7,12.7L34.7,12.7z M31.7,6.5l-0.1,0.1l0.1,0L31.7,6.5z"/>
			<path id="Trazado_521" class="st17" d="M16.1,7.9c-1.2-0.3-2.5,0-2.8-1.3c-0.1-0.4,0.3-0.5,0.6-0.5c1,0.1,2.4-0.9,2.7,1.1
				c0.9-0.8,1.7-1.9,2.2-3c0.5-1.1,1.4-2,2.6-2c3.8-0.1,7.6,0,11.5,0C32.6,3,32,2.7,31.6,2.7c-3,0-6,0-8.9,0c-2.3,0-3.9,1.8-4.1,4
				c0,1,0.6,0.7,1.1,0.7c3.1,0,6.3,0,10.2,0c-3.6,3.1-2.8,6.8-2.8,10.3c0,1.2-0.5,1.4-1.6,1.4c-1.6-0.1-3.2,0-4.7,0
				c-1.4,0-2.8-0.4-3.8,1.3c-0.6,1-2.1,0.4-3.1,0.2c-0.9-0.2-0.6-1.1-0.6-1.7C13.1,15,12.8,11.1,16.1,7.9z M19.8,13
				c0.5-0.2,1.4,0.4,1.5-0.5c0.1-0.9-0.7-0.8-1.2-1c-0.9-0.4-1.8-0.7-2.7-1C16.7,10.2,16,10,15.8,11c-0.1,0.8,0,1.6,1.1,1.7
				C17.9,12.7,18.8,12.9,19.8,13z"/>
			<path id="Trazado_522" class="st18" d="M60.1,7.6c3.2,0,6.2,0,9.1,0c1.3,0,1.6-0.4,1.1-1.6c-1.1-2.8-1.7-3.3-4.7-3.3
				c-3.2,0-6.3,0-9.5,0c0-0.2,0-0.3,0.1-0.5c3.7-0.1,7.4-0.2,11.1-0.1c1.4,0,2.4,0.8,3.1,2.1c0.5,1,1.3,1.9,2.1,3.1
				c0.4-2.1,1.8-1.2,2.9-1.3c0.3,0,0.4,0.2,0.4,0.5c0,0.4-0.2,0.7-0.5,0.9c-0.6,0.4-1.3,0.1-2.2,0.4c3.1,3.2,3.2,7.1,2.8,11
				c-0.1,0.6,0.4,1.6-0.4,1.7c-1.1,0.2-2.6,0.8-3.4-0.5c-0.6-1-1.3-1-2.3-1c-2.1,0-4.3,0-6.4,0c-0.9,0-1.2-0.3-1.2-1.1
				c0-1.3,0-2.7,0-4C62.2,11.8,61.6,9.7,60.1,7.6z M69.2,13c0.9-0.1,1.9-0.3,3-0.3c1-0.1,1.2-0.8,1.1-1.5c-0.1-1-0.9-1-1.7-0.7
				c-1,0.3-1.9,0.7-2.9,1.1c-0.5,0.2-1.2,0.2-1,1C67.9,13.3,68.6,12.9,69.2,13L69.2,13z"/>
			<path id="Trazado_523" class="st19" d="M31.7,6.5l0,0.1l-0.1,0L31.7,6.5z"/>
		</g>
		<g id="Grupo_198" transform="translate(25.471 244.857)">
			<g id="Grupo_189">
				<path id="Trazado_524" class="st20" d="M79.5-75.4c0.4-0.8,0.9-1.6,1.6-2.3c0.7-0.6,1.5-1.1,2.4-1.3c1.2-0.3,2.4-0.5,3.6-0.4
					l4.4,0L90.8-77h-4.7c-0.6,0-1.1,0.1-1.6,0.2c-0.5,0.1-0.9,0.3-1.3,0.6c-0.4,0.3-0.7,0.6-0.9,1c-0.3,0.5-0.5,1-0.7,1.6l8.3,0
					l-0.7,2.4h-8.3l-1.5,5.6h-2.9l1.7-6.3C78.5-73.1,78.9-74.3,79.5-75.4z"/>
				<path id="Trazado_525" class="st20" d="M93.9-65.7c-0.4,0-0.8-0.1-1.2-0.1c-0.4-0.1-0.7-0.2-1-0.4c-0.3-0.2-0.6-0.5-0.8-0.8
					c-0.2-0.3-0.3-0.6-0.4-0.9c-0.1-0.3-0.1-0.7-0.1-1c0-0.4,0.1-0.7,0.1-1.1c0.1-0.4,0.1-0.7,0.2-1.1l2.2-8.2h2.9l-2,7.6
					c-0.2,0.6-0.3,1.1-0.4,1.7c-0.1,0.4-0.1,0.8,0,1.2c0.1,0.4,0.3,0.7,0.7,0.8c0.6,0.2,1.2,0.3,1.8,0.2l3.4,0l-0.6,2.3h-3.7
					C94.7-65.6,94.3-65.6,93.9-65.7z"/>
				<path id="Trazado_526" class="st20" d="M103.4-76.9c0.3-0.4,0.7-0.8,1.2-1.1c0.4-0.3,0.9-0.6,1.3-0.8c0.5-0.2,1-0.4,1.6-0.5
					c0.2,0,0.4-0.1,0.6-0.1c0.2,0,0.4-0.1,0.6-0.1c0.2,0,0.4,0,0.6-0.1c0.2,0,0.4,0,0.6,0c0.2,0,0.4,0,0.6,0c0.2,0,0.4,0,0.7,0
					c0.2,0,0.4,0.1,0.6,0.1c0.2,0,0.4,0.1,0.6,0.2c0.4,0.1,0.9,0.3,1.3,0.5c0.3,0.2,0.7,0.5,0.9,0.8c0.2,0.3,0.4,0.7,0.5,1.1
					c0.1,0.4,0.2,0.9,0.2,1.4c0,0.2,0,0.5,0,0.7c0,0.2,0,0.5-0.1,0.7c0,0.3-0.1,0.5-0.1,0.8s-0.1,0.5-0.2,0.8
					c-0.1,0.3-0.2,0.6-0.2,0.8c-0.1,0.3-0.2,0.5-0.3,0.8c-0.1,0.3-0.2,0.5-0.3,0.8c-0.1,0.2-0.2,0.5-0.4,0.7c-0.3,0.5-0.6,1-1,1.4
					c-0.3,0.4-0.7,0.8-1.2,1.1c-0.4,0.3-0.9,0.6-1.4,0.8c-0.5,0.2-1,0.4-1.6,0.5c-0.2,0-0.5,0.1-0.7,0.1c-0.2,0-0.4,0.1-0.7,0.1
					c-0.2,0-0.5,0-0.7,0.1c-0.2,0-0.5,0-0.7,0c-0.2,0-0.4,0-0.6,0c-0.2,0-0.4,0-0.6-0.1c-0.2,0-0.4-0.1-0.6-0.1
					c-0.2,0-0.4-0.1-0.5-0.1c-0.5-0.1-0.9-0.3-1.3-0.5c-0.4-0.2-0.7-0.5-0.9-0.8c-0.3-0.3-0.4-0.7-0.6-1.1c-0.1-0.5-0.2-0.9-0.2-1.4
					c0-0.2,0-0.5,0-0.7c0-0.2,0-0.5,0.1-0.8c0-0.3,0.1-0.5,0.1-0.8c0.1-0.3,0.1-0.5,0.2-0.8c0-0.1,0.1-0.3,0.1-0.4
					c0-0.1,0.1-0.3,0.1-0.4c0-0.1,0.1-0.3,0.1-0.4c0.1-0.1,0.1-0.3,0.2-0.4c0.1-0.3,0.2-0.5,0.3-0.8c0.1-0.2,0.2-0.5,0.4-0.7v0
					C102.8-76,103.1-76.5,103.4-76.9z M105.1-74.3c0,0.1-0.1,0.2-0.1,0.2c0,0.1-0.1,0.2-0.1,0.3c0,0.1-0.1,0.2-0.1,0.3
					c-0.1,0.2-0.1,0.3-0.2,0.5c-0.1,0.2-0.1,0.3-0.2,0.5c-0.1,0.2-0.1,0.4-0.1,0.5c0,0.2-0.1,0.4-0.1,0.5c0,0.2,0,0.3,0,0.5
					c0,0.2,0,0.3,0,0.5c0,0.3,0,0.6,0.1,0.8c0,0.2,0.1,0.5,0.2,0.7c0.1,0.2,0.2,0.4,0.4,0.6c0.2,0.2,0.4,0.3,0.7,0.4
					c0.1,0,0.2,0.1,0.3,0.1c0.1,0,0.2,0.1,0.3,0.1c0.1,0,0.2,0,0.3,0c0.1,0,0.2,0,0.4,0c0.1,0,0.2,0,0.4,0s0.3,0,0.4,0
					c0.1,0,0.1,0,0.2,0c0.1,0,0.1,0,0.2,0c0.1,0,0.1,0,0.2,0c0.1,0,0.1,0,0.2,0c0.3-0.1,0.6-0.2,0.9-0.4c0.3-0.2,0.5-0.3,0.8-0.6
					c0.2-0.2,0.4-0.5,0.6-0.7c0.2-0.3,0.4-0.5,0.5-0.8c0.1-0.2,0.2-0.3,0.2-0.5c0.1-0.2,0.1-0.3,0.2-0.5c0.1-0.2,0.1-0.4,0.2-0.5
					c0.1-0.2,0.1-0.4,0.2-0.5c0.1-0.2,0.1-0.4,0.1-0.5s0.1-0.3,0.1-0.5c0-0.2,0-0.4,0.1-0.5c0-0.2,0-0.3,0-0.5c0-0.3,0-0.6,0-0.8
					c0-0.2-0.1-0.5-0.2-0.7c-0.1-0.2-0.3-0.4-0.5-0.6c-0.2-0.2-0.4-0.3-0.7-0.4c-0.1,0-0.2-0.1-0.3-0.1c-0.1,0-0.2-0.1-0.3-0.1
					c-0.1,0-0.2,0-0.4,0c-0.1,0-0.2,0-0.4,0c-0.1,0-0.3,0-0.4,0c-0.1,0-0.2,0-0.4,0c-0.1,0-0.3,0-0.4,0.1c-0.1,0-0.2,0.1-0.4,0.1
					c-0.3,0.1-0.6,0.2-0.9,0.4c-0.3,0.2-0.5,0.3-0.7,0.6c-0.2,0.2-0.4,0.5-0.6,0.7c-0.2,0.3-0.4,0.5-0.5,0.8l0,0
					C105.2-74.5,105.1-74.4,105.1-74.3L105.1-74.3z"/>
				<path id="Trazado_527" class="st20" d="M116.8-77l0.7-2.4h11.9l-0.7,2.4h-4.5l-3,11.4h-3l3-11.4H116.8z"/>
				<path id="Trazado_528" class="st20" d="M127-65.6l3.7-13.8h3l-3.7,13.8H127z"/>
				<path id="Trazado_529" class="st20" d="M137.1-65.7c-0.4,0-0.8-0.1-1.2-0.1c-0.4-0.1-0.7-0.2-1-0.4c-0.3-0.2-0.6-0.5-0.8-0.8
					c-0.2-0.3-0.3-0.6-0.4-0.9c-0.1-0.3-0.1-0.7-0.1-1c0-0.4,0.1-0.7,0.1-1.1c0.1-0.4,0.1-0.7,0.2-1.1l2.2-8.2h2.9l-2,7.6
					c-0.2,0.6-0.3,1.1-0.4,1.7c-0.1,0.4-0.1,0.8,0,1.2c0.1,0.4,0.3,0.7,0.7,0.8c0.6,0.2,1.2,0.3,1.8,0.2l3.4,0l-0.6,2.3h-3.7
					C138-65.6,137.5-65.6,137.1-65.7z"/>
				<path id="Trazado_530" class="st20" d="M147.8-65.7c-0.4,0-0.8-0.1-1.2-0.1c-0.4-0.1-0.7-0.2-1-0.4c-0.3-0.2-0.6-0.5-0.8-0.8
					c-0.2-0.3-0.3-0.6-0.4-0.9c-0.1-0.3-0.1-0.7-0.1-1c0-0.4,0.1-0.7,0.1-1.1c0.1-0.4,0.1-0.7,0.2-1.1l2.2-8.2h2.9l-2,7.6
					c-0.2,0.6-0.3,1.1-0.4,1.7c-0.1,0.4-0.1,0.8,0,1.2c0.1,0.4,0.3,0.7,0.7,0.8c0.6,0.2,1.2,0.3,1.8,0.2l3.4,0l-0.6,2.3h-3.7
					C148.6-65.6,148.2-65.6,147.8-65.7z"/>
				<path id="Trazado_531" class="st20" d="M165-79.4l2.2,13.8h-3.2l-0.4-3.3h-6l-2.1,3.3h-3.1l9.5-13.8H165z M159.2-71.4h4.1
					l-0.7-5.3L159.2-71.4z"/>
				<path id="Trazado_532" class="st20" d="M175.6-76.9c-0.3,0-0.6,0-0.9,0.1c-0.3,0.1-0.5,0.2-0.8,0.3c-0.2,0.1-0.5,0.3-0.6,0.5
					c-0.2,0.3-0.3,0.6-0.4,0.9c-0.1,0.2-0.1,0.5,0,0.7c0,0.2,0.1,0.4,0.3,0.5c0.2,0.1,0.3,0.2,0.5,0.3c0.2,0.1,0.4,0.1,0.7,0.1
					l3.9,0c0.1,0,0.1,0,0.2,0h0.5c0,0,0.1,0,0.1,0h0.1c0.2,0,0.4,0,0.6,0.1c0.2,0,0.4,0.1,0.6,0.2c0.2,0.1,0.4,0.1,0.5,0.2
					c0.2,0.1,0.3,0.2,0.4,0.4c0.1,0.1,0.2,0.3,0.3,0.5c0.1,0.2,0.1,0.4,0.1,0.5c0,0.2,0,0.4,0,0.6c0,0.2,0,0.4-0.1,0.6
					c0,0,0,0.1,0,0.1c0,0,0,0.1,0,0.1c0,0,0,0.1,0,0.1c0,0,0,0.1,0,0.1c0,0,0,0.1,0,0.1c0,0,0,0.1,0,0.1c0,0,0,0.1,0,0.1
					c0,0,0,0.1,0,0.1c-0.2,0.7-0.5,1.4-0.9,2c-0.3,0.5-0.8,0.9-1.3,1.2c-0.5,0.3-1.1,0.5-1.7,0.6c-0.7,0.1-1.3,0.2-2,0.2h-7.7
					l0.7-2.5h7.3c0.3,0,0.6,0,0.9-0.1c0.3,0,0.6-0.1,0.8-0.2c0.3-0.1,0.5-0.3,0.6-0.5c0.2-0.3,0.3-0.6,0.3-1c0-0.2,0-0.5,0-0.7
					c-0.1-0.2-0.2-0.3-0.4-0.4c-0.2-0.1-0.4-0.1-0.6-0.2c-0.2,0-0.5-0.1-0.7-0.1l-3.4,0c-0.6,0-1.3,0-1.9-0.2
					c-0.5-0.1-0.9-0.3-1.3-0.6c-0.3-0.3-0.6-0.8-0.6-1.2c-0.1-0.7,0-1.3,0.2-1.9c0.2-0.7,0.5-1.4,0.9-2c0.3-0.5,0.8-0.9,1.3-1.2
					c0.5-0.3,1.1-0.5,1.7-0.7c0.7-0.2,1.4-0.2,2.1-0.2l7.6,0l-0.7,2.5L175.6-76.9z"/>
			</g>
			<g id="Grupo_197" transform="translate(267.47 63.671)">
				<g id="Grupo_192" transform="translate(42.945 5.503)">
					<g id="Grupo_190" transform="translate(0.012)">
						<path id="Trazado_533" class="st21" d="M-151.9-131l0,0.3l-0.9,0c-0.3,0-0.5,0.3-0.5,0.6c0,0.1,0.1,0.3,0.2,0.3h0.5l0-0.4
							l-0.5,0l0-0.3l0.9,0l-0.2,0.9h-1.1c-0.3-0.1-0.4-0.3-0.4-0.6c0-0.5,0.5-0.9,0.8-0.9C-152.5-131-151.9-131-151.9-131z"/>
						<path id="Trazado_534" class="st21" d="M-143.6-131h0.4l-0.3,1c0,0,0,0.3,0.3,0.3c0.4,0,0.4-0.3,0.4-0.3l0.2-1l0.4,0l-0.3,1.1
							c0,0-0.2,0.4-0.8,0.4s-0.7-0.3-0.7-0.5C-143.8-130.1-143.6-131-143.6-131z"/>
						<path id="Trazado_535" class="st21" d="M-137.4-131c-0.1,0-0.9,0-0.9,0l-0.4,1.6h0.4l0.1-0.6l0.7,0c0,0,0.5,0,0.6-0.5
							C-136.9-130.9-137.3-131-137.4-131z M-137.6-130.2h-0.6l0.1-0.4l0.6,0c0,0,0.1,0,0.1,0.2
							C-137.3-130.3-137.6-130.2-137.6-130.2z"/>
						<path id="Sustracción_3" class="st20" d="M-133-129.4L-133-129.4c-0.2,0-0.5-0.1-0.6-0.3c-0.1-0.3,0-0.7,0.2-0.9
							c0.2-0.4,0.7-0.4,0.9-0.4c0,0,0,0,0.1,0c0.2,0,0.5,0.1,0.6,0.3c0.1,0.2,0,0.5-0.1,0.7c0,0,0,0,0,0.1c-0.1,0.1-0.1,0.2-0.2,0.3
							C-132.5-129.5-132.8-129.4-133-129.4z M-132.7-130.7c-0.3,0-0.5,0.2-0.6,0.5c0,0.1,0,0.3,0,0.4c0.1,0.1,0.1,0.1,0.2,0.1h0
							c0.2,0,0.4-0.1,0.5-0.2c0.1-0.1,0.2-0.3,0.2-0.5c0-0.1,0-0.2,0-0.2C-132.4-130.7-132.5-130.7-132.7-130.7
							C-132.6-130.7-132.6-130.7-132.7-130.7z"/>
						<path id="Trazado_538" class="st21" d="M-147-130.5c0-0.1-0.1-0.4-0.4-0.4c-0.3,0-1.1,0-1.1,0l-0.3,1.6l0.4,0l0.1-0.6l0.5,0
							c0,0,0.3,0,0.2,0.3c0,0.2,0,0.3,0,0.3l0.4,0l0-0.4c0,0,0-0.3-0.2-0.3C-147-130.2-147-130.4-147-130.5z M-147.4-130.5
							c0,0.2-0.2,0.2-0.2,0.2h-0.6l0.1-0.4l0.6,0C-147.5-130.7-147.4-130.6-147.4-130.5C-147.4-130.5-147.4-130.5-147.4-130.5
							L-147.4-130.5z"/>
					</g>
					<g id="Grupo_191" transform="translate(0 10.965)">
						<path id="Trazado_539" class="st20" d="M-149.8-139.1l-0.2,0.7c0,0-1.8,0-2,0c-0.3,0-0.4,0.4-0.4,0.4s-0.2,0.4,0.2,0.4
							c0,0,1.1,0,1.2,0c0.4,0,0.8,0.4,0.8,0.8c0,0,0,0.1,0,0.1c-0.1,1-0.8,1.3-1.4,1.3c-0.6,0-2.1,0-2.1,0l0.2-0.7h1.8
							c0,0,0.6,0,0.7-0.4c0.1-0.4-0.3-0.4-0.4-0.4c-0.1,0-1.2,0-1.2,0s-0.7,0-0.6-1.1c0.1-0.6,0.6-1.1,1.3-1.1
							C-151.9-139.1-149.8-139.1-149.8-139.1z"/>
						<path id="Trazado_540" class="st20" d="M-146.6-138.8c-0.9-0.7-2.2,0-2.7,0.7c-0.5,0.5-0.8,1.8,0,2.4c0.8,0.7,2.2,0.1,2.8-0.7
							C-146.3-136.9-145.7-138-146.6-138.8z M-147.2-136.7c-0.4,0.5-1.2,0.8-1.7,0.4s-0.3-1.2,0-1.5c0.4-0.5,1.2-0.9,1.7-0.4
							C-146.6-137.7-146.9-137-147.2-136.7z"/>
						<path id="Trazado_541" class="st20" d="M-145.1-136.5c-0.1,0.4,0.4,0.4,0.4,0.4l1.1,0l-0.2,0.7h-1.4c-1,0-0.8-1.2-0.8-1.2
							l0.6-2.5h0.8L-145.1-136.5z"/>
						<path id="Trazado_542" class="st20" d="M-140.3-139.1l-0.9,0l-2.4,3.7l0.9,0l0.6-0.9l1.3,0l0.2,0.9l1,0L-140.3-139.1z
							 M-141.7-136.9l0.7-1.2l0.2,1.2L-141.7-136.9z"/>
						<path id="Trazado_543" class="st20" d="M-132.5-139.1l-0.9,0l-2.4,3.7l0.9,0l0.6-0.9l1.3,0l0.2,0.9l1,0L-132.5-139.1z
							 M-133.9-136.9l0.7-1.2l0.2,1.2L-133.9-136.9z"/>
						<path id="Trazado_544" class="st20" d="M-139.3-135.4h0.8l0.6-2.6l0.8,2.6l1,0l0.8-3.7h-0.8l-0.6,2.6l-0.8-2.6h-1
							L-139.3-135.4z"/>
					</g>
				</g>
				<g id="Grupo_193">
					<path id="Trazado_545" class="st22" d="M-119.6-118.8c0.6,0.2,1.2,0.2,1.7,0.2c0.4,0,0.9-0.1,1.3-0.2c-0.1,0-0.3,0-0.4,0v0
						c0.2-0.1,0.5-0.2,0.7-0.3c0,0,0,0,0.1,0c0.4-0.3,0.7-0.8,0.7-1.3c0,0-0.1,0.1-0.1,0.1c0,0.1-0.1,0.1-0.1,0.1h0
						c0.1-0.6,0-1.3-0.5-1.7v0.3c0,0-0.1,0-0.1,0c0,0,0,0,0,0c0,0-0.1-0.1-0.2-0.1c0,0,0,0,0,0c0,0,0,0-0.1,0c0,0-0.1-0.1-0.1-0.1
						c-0.2-0.1-0.5-0.2-0.7-0.3c-0.1,0-0.2,0-0.3-0.1c-0.2-0.1-0.3-0.1-0.5-0.2c0,0,0,0-0.1,0c0,0,0,0,0,0s0,0-0.1,0
						c0,0-0.1,0-0.1-0.1c-0.1-0.1-0.3-0.2-0.3-0.4c-0.1-0.2-0.2-0.4-0.1-0.6c0-0.5,0.3-0.9,0.8-1.2c0.5-0.2,1-0.4,1.6-0.4
						c0,0,0,0.1-0.1,0.1c-0.1,0.1-0.1,0.1-0.2,0.2c0.3-0.1,0.6-0.2,0.9-0.1c0.4,0,0.8,0.1,1.1,0.3c0.1,0,0.1,0.1,0.2,0.1
						c0,0,0.1,0,0.1,0.1c0.1,0.1,0.2,0.1,0.3,0.2c0,0,0,0,0.1,0c0,0,0,0,0,0c0,0,0,0,0,0c0,0,0,0,0,0c0,0,0.1,0.1,0.1,0.1
						c0,0,0,0,0,0c-0.2,0-0.3-0.1-0.5-0.1c0,0,0,0,0.1,0c0,0,0,0,0,0c0,0,0.1,0,0.1,0c0,0,0.1,0.1,0.2,0.1c0,0,0,0,0,0
						c0,0,0.1,0.1,0.1,0.1c0,0,0,0,0.1,0.1c0,0,0.1,0.1,0.1,0.1c0.1,0.1,0.2,0.2,0.3,0.3c0.1,0.1,0.2,0.3,0.3,0.5c0,0,0,0,0,0
						c0,0,0,0.1,0.1,0.1c0,0,0,0.1,0.1,0.2c0.1,0.2,0.2,0.4,0.2,0.6c0,0,0,0,0,0c0,0,0,0,0,0c0,0,0,0,0,0c0,0-0.1,0-0.1-0.1
						c0,0-0.1-0.1-0.1-0.1c0.2,0.4,0.3,0.9,0.3,1.3c0,0.6-0.2,1.2-0.5,1.7c0-0.1,0-0.3,0-0.4c-0.1,0.4-0.3,0.7-0.5,0.9
						c-0.1,0.1-0.2,0.2-0.4,0.4c0,0,0,0-0.1,0.1c0,0,0,0-0.1,0.1c0,0,0,0-0.1,0c0,0,0,0-0.1,0.1c0,0-0.1,0.1-0.1,0.1
						c-0.2,0.1-0.4,0.3-0.6,0.4c0,0,0,0,0,0c0,0,0,0,0-0.1c0.1-0.1,0.2-0.3,0.3-0.4c0,0-0.1,0.1-0.1,0.1c0,0,0,0,0,0
						c0,0,0,0-0.1,0.1c-0.7,0.5-1.5,0.7-2.3,0.7c-0.3,0-0.6,0-0.9,0v0c0.2-0.1,0.4-0.1,0.6-0.1c-0.1,0-0.2,0-0.3,0
						c-0.8-0.1-1.6-0.3-2.3-0.7c0,0-0.1-0.1-0.2-0.1c0,0,0,0,0,0c0,0,0,0-0.1,0c0,0,0,0,0,0c-0.1,0-0.1-0.1-0.2-0.2c0,0,0,0,0,0
						c0,0,0,0,0,0c-0.1-0.1-0.1-0.1-0.2-0.2c-0.2-0.2-0.3-0.3-0.5-0.5c0,0,0,0,0.1,0s0,0,0.1,0c0,0,0,0,0.1,0c0,0,0,0,0,0
						c0,0,0.1,0.1,0.1,0.1c0,0,0.1,0.1,0.1,0.1c0.1,0,0.1,0.1,0.2,0.1c0,0,0,0,0.1,0.1c0,0,0,0,0,0c0,0,0,0,0,0c0,0,0,0,0,0
						c0,0,0.1,0,0.1,0c0,0,0,0,0,0c0,0,0.1,0.1,0.1,0.1c0,0,0,0,0,0c0,0,0.1,0,0.1,0.1c0,0,0,0,0.1,0c0.3,0.2,0.7,0.3,1,0.5
						c0,0,0,0,0-0.1C-119.4-118.7-119.5-118.8-119.6-118.8L-119.6-118.8z"/>
					<path id="Trazado_546" class="st22" d="M-115.1-125.5c-0.6-0.2-1.2-0.3-1.7-0.2c-0.4,0-0.9,0.1-1.3,0.2c0.1,0,0.3,0,0.4,0v0
						c-0.2,0.1-0.5,0.2-0.7,0.3c0,0,0,0-0.1,0c-0.4,0.3-0.7,0.8-0.7,1.3c0,0,0.1-0.1,0.1-0.1c0-0.1,0.1-0.1,0.1-0.1h0
						c-0.1,0.6,0,1.3,0.4,1.7c0-0.1,0-0.2,0-0.3c0,0,0.1,0,0.1,0c0,0,0,0,0,0c0,0,0.1,0.1,0.2,0.1c0,0,0,0,0,0c0,0,0,0,0.1,0.1
						c0,0,0.1,0.1,0.1,0.1c0.1,0.1,0.3,0.1,0.4,0.2c0.1,0,0.2,0.1,0.3,0.1c0.1,0,0.2,0,0.3,0.1c0.2,0.1,0.3,0.1,0.5,0.2c0,0,0,0,0,0
						c0,0,0,0,0,0c0,0,0,0,0,0c0,0,0.1,0,0.1,0.1c0.1,0.1,0.3,0.2,0.3,0.4c0.1,0.2,0.2,0.4,0.1,0.6c0,0.5-0.3,0.9-0.8,1.2
						c-0.5,0.2-1,0.3-1.6,0.4c0,0,0,0,0.1-0.1c0.1-0.1,0.1-0.1,0.2-0.2c-0.3,0.1-0.6,0.2-0.9,0.1c-0.4,0-0.8-0.2-1.1-0.3
						c-0.1,0-0.1-0.1-0.2-0.1c0,0-0.1,0-0.1-0.1c-0.1-0.1-0.2-0.1-0.3-0.2c0,0,0,0,0,0c0,0,0,0,0,0c0,0,0,0,0,0c0,0,0,0,0,0
						c0,0-0.1-0.1-0.1-0.1c0,0,0,0,0,0c0.2,0,0.3,0.1,0.5,0.1c0,0,0,0-0.1,0c0,0,0,0,0,0c0,0-0.1,0-0.1,0c0,0-0.1-0.1-0.2-0.1
						c0,0,0,0,0,0c0,0-0.1-0.1-0.1-0.1c0,0,0,0-0.1-0.1c0,0-0.1-0.1-0.1-0.1c-0.1-0.1-0.2-0.2-0.3-0.3c-0.1-0.1-0.2-0.3-0.3-0.5
						c0,0,0,0,0,0c0,0,0-0.1-0.1-0.1c0,0,0-0.1-0.1-0.2c-0.1-0.2-0.2-0.4-0.2-0.6c0,0,0,0,0,0c0,0,0,0,0,0c0,0,0,0,0,0
						c0,0,0.1,0,0.1,0.1c0,0.1,0.1,0.1,0.1,0.1c-0.2-0.4-0.3-0.9-0.3-1.4c0-0.6,0.2-1.2,0.5-1.7c0,0.1,0,0.3,0,0.4
						c0.1-0.4,0.3-0.7,0.5-0.9c0.1-0.1,0.2-0.2,0.4-0.4c0,0,0,0,0.1,0c0,0,0,0,0.1-0.1c0,0,0,0,0.1,0c0,0,0,0,0.1-0.1
						c0,0,0.1-0.1,0.1-0.1c0.2-0.1,0.4-0.3,0.6-0.4c0,0,0,0,0,0c0,0,0,0,0,0.1c-0.1,0.1-0.2,0.3-0.3,0.4c0,0,0.1-0.1,0.1-0.1
						c0,0,0,0,0,0c0,0,0,0,0.1-0.1c0.7-0.4,1.5-0.7,2.3-0.7c0.3,0,0.6,0,0.9,0v0c-0.2,0.1-0.4,0.1-0.6,0.1c0.1,0,0.2,0,0.3,0
						c0.4,0,0.8,0.1,1.1,0.2c0.4,0.1,0.8,0.3,1.1,0.5c0,0,0.1,0.1,0.1,0.1c0,0,0,0,0,0c0,0,0,0,0.1,0s0,0,0,0c0.1,0,0.1,0.1,0.2,0.2
						c0,0,0,0,0,0c0,0,0,0,0,0c0.1,0.1,0.1,0.1,0.2,0.2c0.2,0.2,0.3,0.3,0.5,0.5c0,0,0,0-0.1,0.1s0,0-0.1,0c0,0,0,0-0.1,0
						c0,0,0,0-0.1,0c0,0-0.1-0.1-0.1-0.1c0,0-0.1-0.1-0.1-0.1c-0.1,0-0.1-0.1-0.2-0.1c0,0,0,0-0.1-0.1c0,0,0,0,0,0c0,0,0,0,0,0
						c0,0,0,0,0,0c0,0-0.1,0-0.1,0c0,0,0,0,0,0c0,0-0.1-0.1-0.1-0.1c0,0,0,0,0,0c0,0-0.1-0.1-0.1-0.1c0,0,0,0-0.1,0
						c-0.3-0.2-0.7-0.3-1-0.5c0,0,0,0,0,0.1C-115.3-125.7-115.2-125.6-115.1-125.5L-115.1-125.5z"/>
				</g>
				<g id="Grupo_196" transform="translate(31.363 0)">
					<g id="Grupo_194">
						<path id="Trazado_547" class="st20" d="M-144.7-126c-0.2,0-0.4-0.2-0.4-0.4s0.2-0.4,0.4-0.4c0.2,0,0.4,0.2,0.4,0.4
							c0,0,0,0,0,0C-144.2-126.2-144.4-126-144.7-126z M-144.7-126.8c-0.2,0-0.4,0.2-0.4,0.4c0,0.2,0.2,0.4,0.4,0.4
							c0.2,0,0.4-0.2,0.4-0.4v0C-144.3-126.7-144.5-126.8-144.7-126.8z"/>
					</g>
					<g id="Grupo_195" transform="translate(0.953 0.869)">
						<path id="Trazado_548" class="st20" d="M-145.8-127.1v-0.4h0.2c0,0,0.1,0,0.1,0c0,0,0,0,0,0c0,0,0,0,0,0.1c0,0,0,0.1,0,0.1
							c0,0-0.1,0-0.1,0c0,0,0,0,0,0c0,0,0,0,0,0.1l0.1,0.1h-0.1l-0.1-0.1c0,0,0,0,0-0.1c0,0,0,0,0,0c0,0,0,0,0,0h0L-145.8-127.1
							L-145.8-127.1z M-145.7-127.4L-145.7-127.4c0.1,0,0.1,0,0.1,0c0,0,0,0,0,0c0,0,0,0,0,0c0,0,0,0,0,0c0,0,0,0,0,0c0,0,0,0-0.1,0
							h-0.1L-145.7-127.4z"/>
					</g>
				</g>
			</g>
			<path id="Trazado_549" class="st23" d="M144.2-62.6H76.5v8.3h67.7C142.5-56.8,142.5-60.2,144.2-62.6z"/>
		</g>
	</g>
</g>
<g id="REFACCIONES" class="st0">
	<g id="Grupo_204" transform="translate(2162.809 -88.922)" class="st1">
		<path id="Trazado_550" class="st24" d="M-2093.9,116.3c-0.2,9,6.7,16.4,15.3,16.6c3.8,0.1,7.4-1.3,10.3-3.8h-16.4
			c-0.7,0-1.3-0.6-1.3-1.3c0-0.1,0-0.2,0-0.3c0.1-0.4,0.2-0.9,0.3-1.5c-3.1-2.7-4.7-6.7-4.3-10.7c0.6-5.7,4.8-10.1,10-10.8
			c1.2-1.6,2.5-1.7,2.5-1.7h7.4c-2.4-1.6-5.1-2.4-8-2.5C-2086.6,100.1-2093.7,107.3-2093.9,116.3z"/>
		<path id="Trazado_551" class="st24" d="M-2078.6,134.1c-9.3-0.2-16.7-8.2-16.5-17.9c0.2-9.7,7.9-17.4,17.2-17.2
			c3.7,0.1,7.2,1.4,10.1,3.8h7.2l2.2-3l-4.9-5l-4.4,3.7c-1.7-1.1-3.6-1.9-5.5-2.4l-0.2-5.6l-6.8-0.5l-1,5.7c-2,0.3-4,1-5.8,1.9
			l-3.5-4.1l-5.5,4.2l2.7,5c-1.4,1.6-2.5,3.4-3.3,5.4l-5.2-0.7l-1.7,6.9l5.1,2c0,2.1,0.2,4.2,0.8,6.3l-4.4,2.9l3,6.4l5.3-1.9
			c1.3,1.6,2.8,3,4.5,4.2l-1.6,5.3l6.2,2.9l2.9-5.1c0.5,0.1,1.1,0.2,1.6,0.2c1.4,0.2,2.9,0.1,4.3,0l2.1,5.3l6.6-1.9l-0.9-5.9
			c1.7-1,3.3-2.3,4.6-3.7l4.9,2.7l3.1-4.8h-10.8C-2069.7,132.4-2074.1,134.2-2078.6,134.1z"/>
		<g id="Grupo_203" transform="translate(-2079.976 149.256)">
			<g id="Grupo_201" transform="translate(11.849)">
				<path id="Trazado_552" class="st25" d="M-7.2-42.3c-0.2,0-0.3,0-0.5,0.1c-0.1,0-0.3,0.1-0.4,0.2c-0.1,0.1-0.2,0.2-0.3,0.3
					c-0.1,0.1-0.2,0.3-0.2,0.5c0,0.1,0,0.2,0,0.4c0,0.1,0.1,0.2,0.1,0.2c0.1,0.1,0.2,0.1,0.3,0.1c0.1,0,0.2,0,0.3,0l2,0
					c0,0,0.1,0,0.1,0h0.2c0,0,0,0,0.1,0h0.1c0.1,0,0.2,0,0.3,0c0.1,0,0.2,0,0.3,0.1c0.1,0,0.2,0.1,0.3,0.1c0.1,0.1,0.2,0.1,0.2,0.2
					c0.1,0.1,0.1,0.2,0.1,0.2c0,0.1,0.1,0.2,0.1,0.3c0,0.1,0,0.2,0,0.3c0,0.1,0,0.2,0,0.3c0,0,0,0,0,0.1c0,0,0,0,0,0c0,0,0,0,0,0.1
					c0,0,0,0,0,0c0,0,0,0,0,0c0,0,0,0,0,0c0,0,0,0,0,0.1c0,0,0,0,0,0c-0.1,0.4-0.3,0.7-0.5,1.1C-4.8-37.2-5-37-5.3-36.8
					c-0.3,0.2-0.6,0.3-0.9,0.3c-0.3,0.1-0.7,0.1-1.1,0.1h-4l0.3-1.3h3.8c0.2,0,0.3,0,0.5,0c0.1,0,0.3-0.1,0.4-0.1
					c0.1-0.1,0.3-0.2,0.3-0.3c0.1-0.2,0.2-0.3,0.2-0.5c0-0.1,0-0.3,0-0.4c0-0.1-0.1-0.2-0.2-0.2c-0.1,0-0.2-0.1-0.3-0.1
					c-0.1,0-0.3,0-0.4,0l-1.8,0c-0.3,0-0.7,0-1-0.1c-0.2-0.1-0.5-0.2-0.7-0.3c-0.2-0.2-0.3-0.4-0.3-0.6c0-0.3,0-0.7,0.1-1
					c0.1-0.4,0.2-0.7,0.5-1.1c0.2-0.3,0.4-0.5,0.7-0.7c0.3-0.2,0.6-0.3,0.9-0.3c0.4-0.1,0.7-0.1,1.1-0.1l4,0l-0.3,1.3L-7.2-42.3z"/>
				<path id="Trazado_553" class="st25" d="M-1.9-42.3c0.2-0.2,0.4-0.4,0.6-0.6c0.2-0.2,0.5-0.3,0.7-0.4c0.3-0.1,0.5-0.2,0.8-0.3
					c0.1,0,0.2,0,0.3-0.1c0.1,0,0.2,0,0.3-0.1c0.1,0,0.2,0,0.3,0s0.2,0,0.3,0c0.1,0,0.2,0,0.3,0c0.1,0,0.2,0,0.3,0
					c0.1,0,0.2,0,0.3,0c0.1,0,0.2,0,0.3,0.1c0.2,0.1,0.5,0.2,0.7,0.3C3.7-43.2,3.8-43,4-42.9c0.1,0.2,0.2,0.4,0.3,0.6
					c0.1,0.2,0.1,0.5,0.1,0.7c0,0.1,0,0.2,0,0.4s0,0.3,0,0.4c0,0.1,0,0.3-0.1,0.4c0,0.1-0.1,0.3-0.1,0.4c0,0.1-0.1,0.3-0.1,0.4
					c0,0.1-0.1,0.3-0.1,0.4c-0.1,0.1-0.1,0.3-0.2,0.4c-0.1,0.1-0.1,0.3-0.2,0.4c-0.1,0.3-0.3,0.5-0.5,0.7c-0.2,0.2-0.4,0.4-0.6,0.6
					c-0.2,0.2-0.5,0.3-0.7,0.4c-0.3,0.1-0.5,0.2-0.8,0.3c-0.1,0-0.2,0-0.4,0.1c-0.1,0-0.2,0-0.3,0c-0.1,0-0.2,0-0.4,0
					c-0.1,0-0.2,0-0.4,0c-0.1,0-0.2,0-0.3,0c-0.1,0-0.2,0-0.3,0c-0.1,0-0.2,0-0.3-0.1c-0.1,0-0.2,0-0.3,0c-0.2-0.1-0.5-0.1-0.7-0.3
					c-0.2-0.1-0.4-0.3-0.5-0.4c-0.1-0.2-0.2-0.4-0.3-0.6c-0.1-0.2-0.1-0.5-0.1-0.7c0-0.1,0-0.2,0-0.4c0-0.1,0-0.3,0-0.4
					c0-0.1,0-0.3,0.1-0.4l0.1-0.4c0-0.1,0-0.1,0.1-0.2c0-0.1,0-0.1,0.1-0.2c0-0.1,0-0.1,0.1-0.2c0-0.1,0.1-0.1,0.1-0.2
					c0.1-0.1,0.1-0.3,0.2-0.4s0.1-0.2,0.2-0.4v0C-2.3-41.8-2.1-42.1-1.9-42.3z M-1.1-40.9c0,0,0,0.1-0.1,0.1c0,0,0,0.1-0.1,0.1
					c0,0,0,0.1-0.1,0.1c0,0.1-0.1,0.2-0.1,0.3c0,0.1-0.1,0.2-0.1,0.3c0,0.1,0,0.2-0.1,0.3c0,0.1,0,0.2,0,0.3c0,0.1,0,0.2,0,0.3
					c0,0.1,0,0.2,0,0.3c0,0.1,0,0.3,0,0.4c0,0.1,0.1,0.3,0.1,0.4c0.1,0.1,0.1,0.2,0.2,0.3c0.1,0.1,0.2,0.2,0.4,0.2
					c0.1,0,0.1,0,0.2,0c0.1,0,0.1,0,0.2,0c0.1,0,0.1,0,0.2,0c0.1,0,0.1,0,0.2,0c0.1,0,0.1,0,0.2,0c0.1,0,0.1,0,0.2,0l0.1,0
					c0,0,0.1,0,0.1,0c0,0,0.1,0,0.1,0c0,0,0.1,0,0.1,0c0.2-0.1,0.3-0.1,0.5-0.2c0.1-0.1,0.3-0.2,0.4-0.3c0.1-0.1,0.2-0.2,0.3-0.4
					c0.1-0.1,0.2-0.3,0.3-0.4c0-0.1,0.1-0.2,0.1-0.3c0-0.1,0.1-0.2,0.1-0.3c0-0.1,0.1-0.2,0.1-0.3s0.1-0.2,0.1-0.3
					c0-0.1,0-0.2,0.1-0.3s0-0.2,0-0.3c0-0.1,0-0.2,0-0.3c0-0.1,0-0.2,0-0.3c0-0.1,0-0.3,0-0.4c0-0.1-0.1-0.3-0.1-0.4
					c-0.1-0.1-0.1-0.2-0.2-0.3c-0.1-0.1-0.2-0.2-0.4-0.2c-0.1,0-0.1,0-0.2-0.1c-0.1,0-0.1,0-0.2,0c-0.1,0-0.1,0-0.2,0
					c-0.1,0-0.1,0-0.2,0c-0.1,0-0.1,0-0.2,0c-0.1,0-0.1,0-0.2,0c-0.1,0-0.1,0-0.2,0c-0.1,0-0.1,0-0.2,0.1c-0.2,0.1-0.3,0.1-0.5,0.2
					c-0.1,0.1-0.3,0.2-0.4,0.3c-0.1,0.1-0.2,0.2-0.3,0.4c-0.1,0.1-0.2,0.3-0.3,0.4l0,0C-1-41-1-41-1.1-40.9L-1.1-40.9z"/>
				<path id="Trazado_554" class="st25" d="M6.4-36.4c-0.2,0-0.4,0-0.6-0.1c-0.2,0-0.4-0.1-0.5-0.2C5.1-36.8,5-37,4.9-37.1
					c-0.1-0.1-0.2-0.3-0.2-0.5c0-0.2-0.1-0.4,0-0.5c0-0.2,0-0.4,0.1-0.6c0-0.2,0.1-0.4,0.1-0.6l1.2-4.3h1.5l-1.1,3.9
					c-0.1,0.3-0.1,0.6-0.2,0.9c0,0.2,0,0.4,0,0.6c0,0.2,0.2,0.3,0.4,0.4c0.3,0.1,0.6,0.1,0.9,0.1l1.8,0L9-36.4H7
					C6.8-36.4,6.6-36.4,6.4-36.4z"/>
				<path id="Trazado_555" class="st25" d="M15.4-43.6l1.1,7.2h-1.7l-0.2-1.7h-3.1l-1.1,1.7H8.8l5-7.2H15.4z M12.3-39.4h2.1
					l-0.4-2.8L12.3-39.4z"/>
				<path id="Trazado_556" class="st25" d="M20.8-43.6l1.6,5.2l1.3-5.2h1.5l-1.9,7.2h-1.8l-1.6-5.4l-1.4,5.4H17l1.9-7.2L20.8-43.6z"
					/>
				<path id="Trazado_557" class="st25" d="M30.4-43.6l1.1,7.2h-1.7l-0.2-1.7h-3.1l-1.1,1.7h-1.6l5-7.2H30.4z M27.4-39.4h2.1
					l-0.4-2.8L27.4-39.4z"/>
			</g>
			<g id="Grupo_202" transform="translate(0 37.959)">
				<path id="Trazado_558" class="st25" d="M6.7-71.7c0.1,0,0.1,0,0.2,0h0.3c0,0,0.1,0,0.1,0h0.1c0.2,0,0.4,0,0.6,0.1
					c0.2,0,0.4,0.1,0.6,0.1c0.2,0.1,0.4,0.1,0.5,0.3c0.2,0.1,0.3,0.2,0.4,0.4c0.1,0.1,0.2,0.3,0.3,0.5c0.1,0.2,0.1,0.3,0.1,0.5
					c0,0.2,0,0.4,0,0.6c0,0.2,0,0.4-0.1,0.6c0,0,0,0.1,0,0.1c0,0,0,0.1,0,0.1c0,0,0,0,0,0.1c0,0,0,0,0,0c0,0,0,0,0,0.1
					c0,0,0,0,0,0.1c-0.1,0.4-0.3,0.8-0.4,1.1c-0.2,0.4-0.4,0.7-0.7,1c-0.3,0.3-0.6,0.5-0.9,0.7C7.4-65.2,7-65,6.6-65l1.6,4.8H5.4
					l-1.3-4.5H1.2L0-60.1h-2.4l3.1-11.6L6.7-71.7z M2.6-69.7l-0.8,2.9h3c0,0,0,0,0,0h0.1c0.3,0,0.5,0,0.7-0.1c0.2,0,0.5-0.1,0.7-0.2
					c0.2-0.1,0.4-0.2,0.6-0.4c0.2-0.2,0.3-0.5,0.4-0.8c0.1-0.3,0.1-0.5,0-0.8c0-0.2-0.2-0.4-0.4-0.4c-0.2-0.1-0.4-0.1-0.7-0.2
					c-0.3,0-0.5-0.1-0.8-0.1l0,0L2.6-69.7z"/>
				<path id="Trazado_559" class="st25" d="M15.8-69.5c-0.4,0.1-0.7,0.3-1,0.5c-0.3,0.2-0.5,0.5-0.7,0.8c-0.2,0.4-0.4,0.7-0.5,1.1
					l6.8,0l-0.5,2H13c-0.1,0.2-0.1,0.4-0.1,0.6c0,0.2,0,0.4,0,0.6c0,0.2,0,0.4,0.1,0.5c0,0.2,0.1,0.3,0.2,0.5
					c0.1,0.1,0.2,0.3,0.3,0.4c0.1,0.1,0.3,0.2,0.4,0.2c0.2,0,0.3,0.1,0.5,0.1c0.2,0,0.4,0,0.5,0H15l4,0l-0.5,2h-4.1
					c-0.3,0-0.7,0-1,0c-0.3,0-0.6-0.1-0.9-0.1c-0.3-0.1-0.6-0.1-0.8-0.3c-0.3-0.1-0.5-0.3-0.7-0.5c-0.2-0.3-0.4-0.5-0.6-0.9
					c-0.1-0.3-0.2-0.7-0.2-1c0-0.4,0-0.8,0-1.2c0-0.4,0.1-0.8,0.2-1.2c0,0,0-0.1,0-0.1c0,0,0-0.1,0-0.1c0,0,0-0.1,0-0.1
					c0,0,0-0.1,0-0.1c0,0,0-0.1,0-0.1c0,0,0-0.1,0-0.1c0,0,0-0.1,0-0.1c0,0,0-0.1,0-0.1c0.3-0.8,0.6-1.6,1.1-2.4
					c0.4-0.6,0.9-1.2,1.5-1.7c0.6-0.4,1.2-0.8,1.9-1c0.8-0.2,1.6-0.3,2.4-0.3l4,0l-0.5,2h-4C16.6-69.7,16.2-69.6,15.8-69.5z"/>
				<path id="Trazado_560" class="st25" d="M22.9-68.3c0.3-0.7,0.8-1.4,1.3-1.9c0.6-0.5,1.2-0.9,2-1.1c1-0.3,2-0.4,3-0.4l3.7,0
					l-0.5,2h-3.9c-0.5,0-0.9,0.1-1.4,0.2c-0.4,0.1-0.7,0.3-1.1,0.5c-0.3,0.2-0.6,0.5-0.8,0.9c-0.2,0.4-0.4,0.9-0.6,1.3l7,0l-0.5,2
					h-7l-1.3,4.7h-2.4l1.4-5.3C22.2-66.4,22.5-67.4,22.9-68.3z"/>
				<path id="Trazado_561" class="st25" d="M40.5-71.7l1.8,11.6h-2.7l-0.3-2.8h-5l-1.8,2.8h-2.6l8-11.6H40.5z M35.6-65h3.4l-0.6-4.5
					L35.6-65z"/>
				<path id="Trazado_562" class="st25" d="M48.9-69.4c-0.4,0.2-0.8,0.5-1,0.9c-0.3,0.4-0.5,0.8-0.7,1.2c-0.2,0.5-0.4,0.9-0.5,1.4
					c0,0,0,0.1,0,0.1s0,0.1,0,0.1c0,0.1,0,0.1,0,0.1s0,0.1,0,0.1c0,0.1,0,0.2-0.1,0.3c0,0.1,0,0.2-0.1,0.3c0,0.2-0.1,0.4-0.1,0.6
					c0,0.2,0,0.4,0,0.5c0,0.2,0,0.3,0.1,0.5c0,0.2,0.1,0.3,0.2,0.5c0.1,0.1,0.2,0.3,0.3,0.4c0.1,0.1,0.3,0.2,0.4,0.2
					c0.2,0,0.3,0.1,0.5,0.1c0.2,0,0.4,0,0.5,0h0.1l4,0l-0.5,2h-4.1c-0.3,0-0.7,0-1,0c-0.3,0-0.6-0.1-0.9-0.1
					c-0.3-0.1-0.6-0.1-0.8-0.3c-0.3-0.1-0.5-0.3-0.7-0.5c-0.2-0.3-0.4-0.5-0.6-0.9c-0.1-0.3-0.2-0.7-0.2-1c0-0.4,0-0.8,0-1.2
					c0-0.4,0.1-0.8,0.2-1.2c0,0,0-0.1,0-0.1c0,0,0-0.1,0-0.1c0,0,0-0.1,0-0.1c0,0,0-0.1,0-0.1c0,0,0-0.1,0-0.1c0,0,0-0.1,0-0.1
					c0,0,0-0.1,0-0.1c0,0,0-0.1,0-0.1c0.3-0.8,0.6-1.6,1.1-2.4c0.4-0.6,0.9-1.2,1.5-1.7c0.6-0.4,1.2-0.8,1.9-1
					c0.8-0.2,1.6-0.3,2.4-0.3l4,0l-0.5,2h-4C50-69.7,49.4-69.6,48.9-69.4z"/>
				<path id="Trazado_563" class="st25" d="M59.5-69.4c-0.4,0.2-0.8,0.5-1,0.9c-0.3,0.4-0.5,0.8-0.7,1.2c-0.2,0.5-0.4,0.9-0.5,1.4
					c0,0,0,0.1,0,0.1c0,0,0,0.1,0,0.1c0,0.1,0,0.1,0,0.1s0,0.1,0,0.1c0,0.1,0,0.2-0.1,0.3c0,0.1,0,0.2-0.1,0.3
					c0,0.2-0.1,0.4-0.1,0.6c0,0.2,0,0.4,0,0.5c0,0.2,0,0.3,0.1,0.5c0,0.2,0.1,0.3,0.2,0.5c0.1,0.1,0.2,0.3,0.3,0.4
					c0.1,0.1,0.3,0.2,0.4,0.2c0.2,0,0.3,0.1,0.5,0.1c0.2,0,0.4,0,0.5,0H59l4,0l-0.5,2h-4.1c-0.3,0-0.7,0-1,0c-0.3,0-0.6-0.1-0.9-0.1
					c-0.3-0.1-0.6-0.1-0.8-0.3c-0.3-0.1-0.5-0.3-0.7-0.5c-0.2-0.3-0.4-0.5-0.6-0.9c-0.1-0.3-0.2-0.7-0.2-1c0-0.4,0-0.8,0-1.2
					c0-0.4,0.1-0.8,0.2-1.2c0,0,0-0.1,0-0.1c0,0,0-0.1,0-0.1c0,0,0-0.1,0-0.1c0,0,0-0.1,0-0.1c0,0,0-0.1,0-0.1c0,0,0-0.1,0-0.1
					c0,0,0-0.1,0-0.1c0,0,0-0.1,0-0.1c0.3-0.8,0.6-1.6,1.1-2.4c0.4-0.6,0.9-1.2,1.5-1.7c0.6-0.4,1.2-0.8,1.9-1
					c0.8-0.2,1.6-0.3,2.4-0.3l4,0l-0.5,2h-4C60.5-69.7,60-69.6,59.5-69.4z"/>
				<path id="Trazado_564" class="st25" d="M64.3-60.1l3.1-11.6h2.5l-3.1,11.6H64.3z"/>
				<path id="Trazado_565" class="st25" d="M71.9-69.6c0.3-0.3,0.6-0.6,1-0.9c0.3-0.3,0.7-0.5,1.1-0.7c0.4-0.2,0.9-0.4,1.3-0.5
					c0.2,0,0.3-0.1,0.5-0.1c0.2,0,0.3-0.1,0.5-0.1c0.2,0,0.3,0,0.5,0c0.2,0,0.4,0,0.5,0c0.2,0,0.4,0,0.5,0c0.2,0,0.4,0,0.6,0
					c0.2,0,0.4,0,0.5,0.1c0.2,0,0.3,0.1,0.5,0.1c0.4,0.1,0.7,0.2,1.1,0.4c0.3,0.2,0.5,0.4,0.8,0.7c0.2,0.3,0.4,0.6,0.5,0.9
					c0.1,0.4,0.2,0.8,0.2,1.2c0,0.2,0,0.4,0,0.6c0,0.2,0,0.4-0.1,0.6c0,0.2-0.1,0.4-0.1,0.6c0,0.2-0.1,0.4-0.1,0.6
					c-0.1,0.2-0.1,0.5-0.2,0.7c-0.1,0.2-0.1,0.4-0.2,0.7c-0.1,0.2-0.2,0.4-0.3,0.7c-0.1,0.2-0.2,0.4-0.3,0.6
					c-0.2,0.4-0.5,0.8-0.8,1.2c-0.3,0.3-0.6,0.7-1,0.9c-0.4,0.3-0.7,0.5-1.1,0.7c-0.4,0.2-0.9,0.3-1.3,0.4c-0.2,0-0.4,0.1-0.6,0.1
					c-0.2,0-0.4,0.1-0.5,0.1c-0.2,0-0.4,0-0.6,0c-0.2,0-0.4,0-0.6,0c-0.2,0-0.3,0-0.5,0c-0.2,0-0.3,0-0.5,0c-0.2,0-0.3,0-0.5-0.1
					c-0.2,0-0.3-0.1-0.5-0.1c-0.4-0.1-0.7-0.2-1.1-0.4c-0.3-0.2-0.6-0.4-0.8-0.7c-0.2-0.3-0.4-0.6-0.5-0.9c-0.1-0.4-0.2-0.8-0.2-1.2
					c0-0.2,0-0.4,0-0.6c0-0.2,0-0.4,0.1-0.6c0-0.2,0.1-0.4,0.1-0.7l0.2-0.7c0-0.1,0.1-0.2,0.1-0.3c0-0.1,0.1-0.2,0.1-0.3
					c0-0.1,0.1-0.2,0.1-0.3c0-0.1,0.1-0.2,0.1-0.3c0.1-0.2,0.2-0.4,0.3-0.6c0.1-0.2,0.2-0.4,0.3-0.6v0
					C71.3-68.9,71.6-69.3,71.9-69.6z M73.2-67.4c0,0.1-0.1,0.1-0.1,0.2c0,0.1-0.1,0.2-0.1,0.2c0,0.1-0.1,0.2-0.1,0.2
					c-0.1,0.1-0.1,0.3-0.2,0.4c0,0.1-0.1,0.3-0.1,0.4c0,0.2-0.1,0.3-0.1,0.5c0,0.2-0.1,0.3-0.1,0.5c0,0.1,0,0.3,0,0.4
					c0,0.1,0,0.3,0,0.4c0,0.2,0,0.5,0,0.7c0,0.2,0.1,0.4,0.2,0.6c0.1,0.2,0.2,0.3,0.4,0.5c0.2,0.1,0.4,0.3,0.6,0.3
					c0.1,0,0.2,0.1,0.3,0.1c0.1,0,0.2,0,0.3,0.1c0.1,0,0.2,0,0.3,0c0.1,0,0.2,0,0.3,0c0.1,0,0.2,0,0.3,0c0.1,0,0.2,0,0.3,0
					c0.1,0,0.1,0,0.2,0c0,0,0.1,0,0.2,0c0.1,0,0.1,0,0.2,0c0,0,0.1,0,0.2,0c0.3-0.1,0.5-0.2,0.8-0.3c0.2-0.1,0.4-0.3,0.6-0.5
					c0.2-0.2,0.4-0.4,0.5-0.6c0.2-0.2,0.3-0.5,0.4-0.7c0.1-0.1,0.1-0.3,0.2-0.4c0.1-0.1,0.1-0.3,0.2-0.4c0.1-0.2,0.1-0.3,0.2-0.5
					s0.1-0.3,0.1-0.5s0.1-0.3,0.1-0.4s0-0.3,0.1-0.4c0-0.1,0-0.3,0.1-0.4c0-0.1,0-0.3,0-0.4c0-0.2,0-0.5,0-0.7
					c0-0.2-0.1-0.4-0.2-0.6c-0.1-0.2-0.2-0.3-0.4-0.5c-0.2-0.1-0.4-0.3-0.6-0.3c-0.1,0-0.2-0.1-0.3-0.1c-0.1,0-0.2,0-0.3-0.1
					c-0.1,0-0.2,0-0.3,0c-0.1,0-0.2,0-0.3,0c-0.1,0-0.2,0-0.3,0c-0.1,0-0.2,0-0.3,0c-0.1,0-0.2,0-0.3,0.1c-0.1,0-0.2,0.1-0.3,0.1
					c-0.3,0.1-0.5,0.2-0.7,0.3c-0.2,0.1-0.4,0.3-0.6,0.5c-0.2,0.2-0.4,0.4-0.5,0.6c-0.2,0.2-0.3,0.5-0.4,0.7l0,0
					C73.3-67.6,73.3-67.5,73.2-67.4L73.2-67.4z"/>
				<path id="Trazado_566" class="st25" d="M87.9-71.7l2.5,8.3l2.1-8.3H95l-3.1,11.6h-2.8l-2.6-8.8l-2.2,8.8h-2.5l3.1-11.6H87.9z"/>
				<path id="Trazado_567" class="st25" d="M100.3-69.5c-0.4,0.1-0.7,0.3-1,0.5c-0.3,0.2-0.5,0.5-0.7,0.8c-0.2,0.4-0.4,0.7-0.5,1.1
					l6.8,0l-0.5,2h-6.8c-0.1,0.2-0.1,0.4-0.1,0.6c0,0.2,0,0.4,0,0.6c0,0.2,0,0.4,0.1,0.5c0,0.2,0.1,0.3,0.2,0.5
					c0.1,0.1,0.2,0.3,0.3,0.4c0.1,0.1,0.3,0.2,0.4,0.2c0.2,0,0.3,0.1,0.5,0.1c0.2,0,0.4,0,0.5,0h0.1l4,0l-0.5,2h-4.1
					c-0.3,0-0.7,0-1,0c-0.3,0-0.6-0.1-0.9-0.1c-0.3-0.1-0.6-0.1-0.8-0.3c-0.3-0.1-0.5-0.3-0.7-0.5c-0.2-0.3-0.4-0.5-0.6-0.9
					c-0.1-0.3-0.2-0.7-0.2-1c0-0.4,0-0.8,0-1.2c0-0.4,0.1-0.8,0.2-1.2c0,0,0-0.1,0-0.1c0,0,0-0.1,0-0.1c0,0,0-0.1,0-0.1
					c0,0,0-0.1,0-0.1c0,0,0-0.1,0-0.1c0,0,0-0.1,0-0.1c0,0,0-0.1,0-0.1c0,0,0-0.1,0-0.1c0.3-0.8,0.6-1.6,1.1-2.4
					c0.4-0.6,0.9-1.2,1.5-1.7c0.6-0.4,1.2-0.8,1.9-1c0.8-0.2,1.6-0.3,2.4-0.3l4,0l-0.5,2h-4C101.1-69.7,100.7-69.6,100.3-69.5z"/>
				<path id="Trazado_568" class="st25" d="M111.5-69.7c-0.3,0-0.5,0-0.8,0.1c-0.2,0.1-0.5,0.1-0.7,0.2c-0.2,0.1-0.4,0.3-0.5,0.5
					c-0.2,0.2-0.3,0.5-0.3,0.7c-0.1,0.2-0.1,0.4,0,0.6c0,0.2,0.1,0.3,0.2,0.4c0.1,0.1,0.3,0.2,0.4,0.2c0.2,0,0.4,0.1,0.6,0.1l3.2,0
					c0.1,0,0.1,0,0.2,0h0.4c0,0,0.1,0,0.1,0h0.1c0.2,0,0.4,0,0.5,0.1c0.2,0,0.4,0.1,0.5,0.1c0.2,0,0.3,0.1,0.5,0.2
					c0.1,0.1,0.3,0.2,0.4,0.3c0.1,0.1,0.2,0.3,0.2,0.4c0.1,0.1,0.1,0.3,0.1,0.5c0,0.2,0,0.3,0,0.5c0,0.2,0,0.4-0.1,0.5
					c0,0,0,0.1,0,0.1c0,0,0,0,0,0.1c0,0,0,0.1,0,0.1c0,0,0,0,0,0.1c0,0,0,0,0,0.1c0,0,0,0,0,0.1c0,0,0,0.1,0,0.1c0,0,0,0,0,0.1
					c-0.2,0.6-0.4,1.2-0.8,1.7c-0.3,0.4-0.7,0.8-1.1,1c-0.4,0.2-0.9,0.4-1.4,0.5c-0.6,0.1-1.1,0.2-1.7,0.2H105l0.5-2.1h6.1
					c0.3,0,0.5,0,0.8,0c0.2,0,0.5-0.1,0.7-0.2c0.2-0.1,0.4-0.2,0.5-0.4c0.2-0.2,0.3-0.5,0.3-0.8c0-0.2,0-0.4,0-0.6
					c0-0.2-0.2-0.3-0.3-0.3c-0.2-0.1-0.3-0.1-0.5-0.1c-0.2,0-0.4-0.1-0.6-0.1l-2.9,0c-0.5,0-1.1,0-1.6-0.2c-0.4-0.1-0.8-0.3-1.1-0.5
					c-0.3-0.3-0.5-0.6-0.5-1c0-0.6,0-1.1,0.2-1.6c0.2-0.6,0.4-1.2,0.7-1.7c0.3-0.4,0.7-0.8,1.1-1c0.4-0.3,0.9-0.4,1.4-0.6
					c0.6-0.1,1.1-0.2,1.7-0.2l6.4,0l-0.5,2.1L111.5-69.7z"/>
			</g>
		</g>
	</g>
</g>
<g id="Capa_12" class="st0">
	<g id="Grupo_224" transform="translate(-23.766 -64.107)" class="st1">
		<g id="Grupo_214" transform="translate(239.693 100.194)">
			<g id="Grupo_213">
				<g id="Grupo_212">
					<g id="Grupo_206" transform="translate(0 0.962)">
						<path id="Trazado_569" class="st26" d="M-96.7-25.8l-0.9,4c0,0-10.6,0-11.3,0c-1.8,0-2.4,2-2.4,2s-0.9,2.4,1.1,2.4
							c0,0,6.4,0,6.9,0c0.5,0,4.9,0.3,4.6,5.4c-0.4,5.5-4.4,7.2-8.1,7.3c-3.7,0.1-12.2-0.1-12.2-0.1l0.9-3.9h10.1
							c0,0,3.3,0.3,3.9-2.5c0.5-2.3-1.5-2.4-2.1-2.4c-0.7,0-6.9-0.1-6.9-0.1s-4.3-0.3-3.2-6.1c1-5.9,6.9-6.1,7.2-6.1
							C-108.8-25.9-96.7-25.8-96.7-25.8z"/>
					</g>
					<g id="Grupo_207" transform="translate(80.24)">
						<path id="Trazado_570" class="st26" d="M-158.7-23.5c-5-3.8-12.5-0.3-15.7,3.9c-2.6,2.9-4.8,10.2-0.2,14
							c4.7,3.8,12.3,0.7,15.9-3.9C-156.5-12.3-153.5-18.9-158.7-23.5z M-161.6-11.3c-2.2,2.9-7.1,4.9-10,2.5c-2.9-2.4-1.6-7,0.1-8.9
							c2-2.7,6.7-4.9,9.9-2.5C-158.4-17.3-160.2-13.1-161.6-11.3z"/>
					</g>
					<g id="Grupo_208" transform="translate(163.589 0.962)">
						<path id="Trazado_571" class="st26" d="M-233-11.2c-0.7,2.6,2.4,2.5,2.4,2.5l6.6-0.1l-1,4h-8.1c-5.7,0-4.5-6.6-4.5-6.6
							l3.3-14.5h4.5L-233-11.2z"/>
					</g>
					<g id="Grupo_209" transform="translate(213.044 0.755)">
						<path id="Trazado_572" class="st26" d="M-254.9-25.7l-5.4-0.1l-13.5,21.3l5.4,0.1l3.2-5l7.5,0.1l0.9,4.9l5.5,0.1L-254.9-25.7z
							 M-263-13.4l4.2-6.9l1.2,6.8L-263-13.4z"/>
					</g>
					<g id="Grupo_210" transform="translate(374.969 0.755)">
						<path id="Trazado_573" class="st26" d="M-372.4-25.7l-5.4-0.1l-13.5,21.3l5.4,0.1l3.2-5l7.5,0.1l0.9,4.9l5.5,0.1L-372.4-25.7z
							 M-380.6-13.4l4.2-6.9l1.1,6.8L-380.6-13.4z"/>
					</g>
					<g id="Grupo_211" transform="translate(301.622 0.961)">
						<path id="Trazado_574" class="st26" d="M-338.1-4.6h4.4l3.7-14.9l4.7,14.9l5.5-0.1l4.7-21.2h-4.3l-3.5,15.1l-4.4-15.2h-5.6
							L-338.1-4.6z"/>
					</g>
				</g>
			</g>
		</g>
		<g id="Grupo_217" transform="translate(23.766 64.117)">
			<g id="Grupo_215" transform="translate(6.118 31.166)">
				<path id="Trazado_575" class="st27" d="M44.5,15.1c2.8,0.9,6.2,1.3,9.8,1.1c2.5-0.1,5-0.5,7.5-1.1C61.1,15,60.4,15,59.6,15v-0.1
					c1.4-0.4,2.6-1,3.8-1.7c0.1-0.1,0.2-0.1,0.3-0.2c2.1-1.6,3.7-4.1,4-7.6c0-0.1-0.3,0.3-0.4,0.4c-0.2,0.3-0.4,0.6-0.6,0.8h-0.1
					c1-3.9-0.7-7.6-2.6-9.6v1.8c0,0.2-0.3-0.1-0.4-0.2c-0.1-0.1-0.2-0.2-0.2-0.2c-0.2-0.2-0.6-0.5-0.9-0.7c0,0-0.1,0-0.2-0.1
					c-0.1,0-0.2-0.2-0.3-0.3c-0.2-0.1-0.5-0.3-0.8-0.4c-0.7-0.4-1.5-0.7-2.3-1c-0.6-0.2-1.2-0.5-1.8-0.6c-0.6-0.2-1.3-0.3-2-0.5
					c-0.9-0.3-1.8-0.7-2.6-1.1c-0.1,0-0.2-0.1-0.3-0.1c-0.1-0.1-0.1-0.2-0.2-0.2c-0.1-0.1-0.2-0.1-0.3-0.1c-0.2-0.1-0.3-0.3-0.4-0.4
					c-0.8-0.6-1.4-1.3-1.9-2.2c-0.6-1.1-0.9-2.3-0.8-3.6c0.2-3.2,2-5.2,4.4-6.5c2.4-1.3,5.5-1.9,8.8-2.1c0,0.2-0.2,0.3-0.3,0.4
					c-0.3,0.3-0.7,0.6-1.1,1c1.5-0.7,3.2-1,4.9-0.8c2.3,0.1,4.4,1,6.1,1.8c0.3,0.2,0.6,0.4,1,0.6c0.2,0.1,0.4,0.2,0.6,0.4
					c0.6,0.3,1.1,0.7,1.6,1.1c0.1,0.1,0.2,0.1,0.3,0.2c0.1,0.1,0.1,0.1,0.2,0.2c0,0,0,0,0.1,0.1c0,0,0.1,0,0.2,0.1
					c0.1,0.1,0.3,0.3,0.5,0.5c0,0,0.3,0,0.2,0.2c-1-0.1-1.9-0.3-2.9-0.5c-0.1,0.1,0.2,0.1,0.3,0.2c0.1,0,0.1,0.1,0.2,0.2
					c0.1,0.1,0.3,0.1,0.4,0.2c0.3,0.2,0.6,0.5,1,0.7c0.1,0,0.2,0.1,0.2,0.1c0.1,0.1,0.4,0.3,0.6,0.4c0.1,0.1,0.2,0.2,0.3,0.3
					c0.2,0.2,0.5,0.4,0.7,0.6c0.5,0.5,1,1,1.5,1.6c0.6,0.8,1.2,1.7,1.7,2.6c0,0.1,0.1,0.1,0.1,0.2c0.1,0.2,0.3,0.4,0.4,0.6
					c0.1,0.3,0.2,0.6,0.4,1c0.5,1.1,0.9,2.3,1.1,3.5c0,0.2-0.2-0.1-0.2-0.1c-0.1,0-0.1,0-0.2-0.1c0,0,0-0.1-0.1-0.1
					c-0.1-0.1-0.3-0.2-0.5-0.3c-0.3-0.3-0.5-0.6-0.8-0.7c1.1,2.4,1.6,5,1.5,7.6c-0.2,3.8-1.6,6.9-3,9.4c-0.1-0.7,0-1.6,0-2.4
					c-0.4,2.2-1.6,3.9-2.9,5.3c-0.7,0.7-1.3,1.4-2,2.1c-0.1,0.1-0.3,0.2-0.4,0.3c-0.1,0.1-0.2,0.2-0.3,0.3c-0.1,0.1-0.3,0.2-0.4,0.3
					c-0.1,0.1-0.2,0.2-0.3,0.3c-0.3,0.2-0.5,0.4-0.8,0.6c-1,0.8-2.1,1.6-3.2,2.2c-0.1,0-0.1,0-0.1,0.1c-0.1-0.2,0.1-0.2,0.2-0.3
					c0.5-0.7,1.1-1.7,1.6-2.4c-0.2-0.1-0.4,0.3-0.6,0.5c0,0-0.2,0.1-0.2,0.1c-0.1,0.1-0.3,0.3-0.4,0.4c-3,2.3-7.5,3.7-12.7,3.9
					c-1.7,0-3.3,0-5-0.2v-0.1c1.1-0.3,2.2-0.6,3.3-0.8c-0.6-0.2-1.1-0.1-1.7-0.1c-2.2-0.1-4.3-0.5-6.4-1.2c-2.3-0.7-4.4-1.7-6.4-3
					c-0.3-0.2-0.5-0.3-0.8-0.6c-0.1-0.1-0.1-0.2-0.2-0.2c-0.1-0.1-0.2-0.1-0.3-0.2c-0.1-0.1-0.1-0.2-0.2-0.2
					c-0.4-0.3-0.7-0.5-1.1-0.8c-0.1-0.1-0.1-0.2-0.2-0.2c-0.1-0.1-0.2-0.1-0.3-0.2c-0.3-0.3-0.6-0.6-1-1c-1-0.9-1.8-1.9-2.6-3
					c0-0.1,0.2-0.2,0.3-0.3c0.1-0.1,0.2-0.2,0.3-0.2s0.2-0.1,0.3-0.2c0.1-0.1,0.2-0.2,0.3-0.2c0.2,0.1,0.4,0.3,0.6,0.5
					c0.2,0.2,0.4,0.3,0.6,0.5c0.3,0.3,0.6,0.5,1,0.7c0.1,0.1,0.3,0.2,0.4,0.3c0,0,0.1,0.1,0.2,0.1c0,0,0.1,0.1,0.2,0.1
					c0,0,0.1,0.1,0.2,0.1c0.1,0,0.3,0.1,0.4,0.2c0,0,0,0.1,0.1,0.1c0.3,0.1,0.5,0.3,0.8,0.4c0.1,0,0.1,0,0.1,0.1
					c0.3,0.1,0.5,0.3,0.8,0.4c0.1,0.1,0.2,0.2,0.3,0.2c1.7,0.9,3.7,1.8,5.7,2.6c0.1-0.1-0.2-0.2-0.3-0.3c-0.3-0.3-0.8-0.7-1.1-1.1
					L44.5,15.1z"/>
			</g>
			<g id="Grupo_216">
				<path id="Trazado_576" class="st27" d="M75.5,8.8c-2.7-1-6.2-1.3-9.8-1.2c-2.5,0.1-5,0.5-7.5,1.1c0.7,0.1,1.4,0.1,2.1,0.1v0.1
					c-1.4,0.4-2.6,0.9-3.8,1.7c-0.1,0.1-0.2,0.2-0.3,0.2c-2.1,1.6-3.7,4.1-4.1,7.5c0,0.1,0.3-0.3,0.4-0.4c0.2-0.3,0.4-0.5,0.6-0.8
					h0.1c-1,3.9,0.7,7.6,2.5,9.7c0-0.6,0-1.2,0-1.8c0-0.2,0.3,0.1,0.4,0.2c0.1,0.1,0.1,0.2,0.2,0.2c0.3,0.2,0.6,0.5,0.9,0.7
					c0,0,0.1,0,0.2,0.1c0.1,0.1,0.2,0.2,0.3,0.3c0.2,0.1,0.5,0.3,0.8,0.5c0.7,0.4,1.5,0.7,2.3,1c0.6,0.2,1.2,0.5,1.8,0.6
					c0.6,0.2,1.3,0.3,1.9,0.5c0.9,0.3,1.8,0.7,2.6,1.1c0.1,0.1,0.2,0.1,0.3,0.1c0.1,0.1,0.1,0.2,0.2,0.2c0.1,0.1,0.2,0.1,0.3,0.1
					c0.2,0.1,0.3,0.3,0.4,0.4c0.8,0.6,1.4,1.4,1.9,2.2c0.6,1.1,0.9,2.3,0.7,3.6c-0.2,3.2-2,5.2-4.4,6.5c-2.4,1.3-5.6,1.8-8.8,2
					c0-0.2,0.2-0.3,0.3-0.4c0.3-0.3,0.7-0.6,1.1-1c-1.5,0.7-3.2,0.9-4.9,0.8c-2.3-0.1-4.4-1-6.1-1.9c-0.3-0.2-0.6-0.4-0.9-0.6
					c-0.2-0.1-0.4-0.3-0.6-0.4c-0.6-0.4-1.1-0.7-1.6-1.1c-0.1-0.1-0.2-0.1-0.3-0.2c-0.1-0.1-0.1-0.1-0.2-0.2c0,0,0-0.1-0.1-0.1
					c0,0-0.1,0-0.2-0.1c-0.1-0.1-0.3-0.3-0.5-0.5c0,0-0.3,0-0.2-0.2c1,0.2,1.9,0.4,2.9,0.5c0.1-0.1-0.2-0.1-0.3-0.2
					c-0.1,0-0.1-0.1-0.2-0.2c-0.1-0.1-0.3-0.1-0.5-0.2c-0.3-0.2-0.6-0.5-0.9-0.7c-0.1,0-0.2-0.1-0.2-0.1c-0.1-0.1-0.4-0.3-0.6-0.5
					c-0.1-0.1-0.2-0.2-0.3-0.3c-0.2-0.2-0.5-0.4-0.7-0.6c-0.5-0.5-1-1-1.4-1.6c-0.6-0.8-1.2-1.7-1.7-2.6c0-0.1-0.1-0.1-0.1-0.2
					c-0.1-0.2-0.3-0.4-0.4-0.6c-0.1-0.3-0.2-0.6-0.4-0.9c-0.5-1.1-0.9-2.3-1.1-3.5c0-0.2,0.2,0,0.2,0.1c0,0,0.1,0,0.2,0.1
					c0,0,0,0.1,0.1,0.1c0.1,0.1,0.3,0.2,0.4,0.3c0.3,0.2,0.5,0.6,0.8,0.7c-1.1-2.4-1.6-5-1.4-7.6c0.2-3.8,1.6-6.9,3.1-9.3
					c0.1,0.7,0,1.6,0,2.4c0.4-2.2,1.6-3.9,2.9-5.3c0.7-0.7,1.3-1.4,2-2.1c0.1-0.1,0.3-0.2,0.4-0.3c0.1-0.1,0.2-0.2,0.3-0.3
					c0.1-0.1,0.3-0.2,0.4-0.3c0.1-0.1,0.2-0.2,0.3-0.3c0.3-0.2,0.5-0.4,0.8-0.5c1-0.8,2.1-1.5,3.2-2.2c0,0,0.1,0,0.1-0.1
					c0.1,0.1-0.1,0.2-0.2,0.3c-0.5,0.7-1.1,1.7-1.7,2.4c0.2,0.1,0.4-0.3,0.6-0.5c0,0,0.2-0.1,0.2-0.1c0.1-0.1,0.3-0.3,0.5-0.4
					c3.1-2.3,7.5-3.6,12.7-3.8c1.7,0,3.3,0,5,0.2v0.1c-1.1,0.3-2.2,0.6-3.3,0.8c0.6,0.2,1.1,0.1,1.7,0.1c2.2,0.1,4.3,0.5,6.4,1.2
					c2.3,0.7,4.4,1.7,6.4,3c0.3,0.2,0.5,0.4,0.8,0.6c0.1,0.1,0.1,0.2,0.2,0.2c0.1,0.1,0.2,0.1,0.3,0.2c0.1,0.1,0.1,0.2,0.2,0.2
					c0.4,0.3,0.7,0.5,1.1,0.9c0.1,0.1,0.1,0.2,0.2,0.2C83,8.9,83.1,8.9,83.2,9c0.3,0.3,0.6,0.7,0.9,1c0.9,0.9,1.8,2,2.5,3
					c0,0.1-0.2,0.2-0.3,0.3c-0.1,0.1-0.2,0.2-0.3,0.2c-0.1,0.1-0.2,0.1-0.3,0.2c-0.1,0.1-0.2,0.2-0.3,0.2c-0.2-0.1-0.4-0.3-0.6-0.5
					c-0.2-0.2-0.4-0.3-0.6-0.5c-0.3-0.2-0.6-0.5-0.9-0.7c-0.1-0.1-0.3-0.2-0.4-0.3c0-0.1-0.1-0.1-0.2-0.1c-0.1,0-0.1-0.1-0.2-0.1
					c0-0.1-0.1-0.1-0.2-0.1c-0.1-0.1-0.3-0.1-0.4-0.2c0,0,0-0.1-0.1-0.1c-0.3-0.1-0.5-0.3-0.8-0.5c-0.1,0-0.1,0-0.1-0.1
					c-0.2-0.2-0.5-0.3-0.8-0.4c-0.1-0.1-0.2-0.2-0.3-0.2c-1.7-1-3.7-1.9-5.6-2.7c-0.1,0.1,0.2,0.2,0.3,0.3c0.3,0.3,0.7,0.7,1.1,1.1
					L75.5,8.8z"/>
			</g>
		</g>
		<g id="Grupo_222" transform="translate(189.774 64.107)">
			<g id="Grupo_219">
				<g id="Grupo_218">
					<path id="Trazado_577" class="st26" d="M-80.3,5.9c-1.4,0-2.4-1.1-2.5-2.4S-81.7,1-80.3,1s2.4,1.1,2.5,2.4c0,0,0,0,0,0
						C-77.9,4.8-78.9,5.9-80.3,5.9z M-80.3,1.4c-1.1,0-2,0.9-2,2s0.9,2,2,2c1.1,0,2-0.9,2-2C-78.2,2.3-79.2,1.4-80.3,1.4
						C-80.3,1.4-80.3,1.4-80.3,1.4L-80.3,1.4z"/>
				</g>
			</g>
			<g id="Grupo_221" transform="translate(5.038 4.605)">
				<g id="Grupo_220">
					<path id="Trazado_578" class="st26" d="M-86.4,0.1v-2.4h1c0.2,0,0.4,0,0.6,0.1c0.1,0,0.2,0.1,0.3,0.2c0.1,0.1,0.1,0.2,0.1,0.4
						c0,0.2-0.1,0.3-0.2,0.4C-84.7-1.1-84.9-1-85.1-1c0.1,0,0.2,0.1,0.3,0.2c0.1,0.1,0.2,0.2,0.3,0.4l0.3,0.5h-0.6l-0.3-0.5
						c-0.1-0.1-0.2-0.2-0.3-0.4c0,0-0.1-0.1-0.1-0.1c-0.1,0-0.2,0-0.2,0h-0.1v1L-86.4,0.1z M-85.9-1.3h0.4c0.1,0,0.3,0,0.4,0
						c0.1,0,0.1,0,0.1-0.1c0-0.1,0-0.1,0-0.2c0-0.1,0-0.1-0.1-0.2c0-0.1-0.1-0.1-0.2-0.1c0,0-0.2,0-0.4,0h-0.4L-85.9-1.3z"/>
				</g>
			</g>
		</g>
		<g id="Grupo_223" transform="translate(237.941 197.067)">
			<path id="Trazado_579" class="st28" d="M-112.1-93.6c-0.2,0-0.4,0-0.7,0.1c-0.2,0-0.4,0.1-0.6,0.2c-0.2,0.1-0.3,0.2-0.4,0.4
				c-0.1,0.2-0.2,0.4-0.3,0.6c0,0.2-0.1,0.3,0,0.5c0,0.1,0.1,0.3,0.2,0.3c0.1,0.1,0.2,0.1,0.4,0.2c0.2,0,0.3,0.1,0.5,0.1l2.8,0
				c0,0,0.1,0,0.1,0h0.3c0,0,0.1,0,0.1,0h0.1c0.2,0,0.3,0,0.5,0.1c0.2,0,0.3,0.1,0.5,0.1c0.1,0,0.3,0.1,0.4,0.2
				c0.1,0.1,0.2,0.2,0.3,0.3c0.1,0.1,0.2,0.2,0.2,0.3c0.1,0.1,0.1,0.3,0.1,0.4c0,0.1,0,0.3,0,0.4c0,0.2,0,0.3,0,0.5c0,0,0,0.1,0,0.1
				c0,0,0,0,0,0.1c0,0,0,0.1,0,0.1c0,0,0,0,0,0.1c0,0,0,0,0,0.1c0,0,0,0,0,0.1c0,0,0,0.1,0,0.1c0,0,0,0,0,0.1
				c-0.1,0.5-0.4,1-0.7,1.5c-0.2,0.4-0.6,0.7-0.9,0.9c-0.4,0.2-0.8,0.4-1.2,0.5c-0.5,0.1-1,0.2-1.5,0.2h-5.6l0.5-1.8h5.3
				c0.2,0,0.4,0,0.7,0c0.2,0,0.4-0.1,0.6-0.2c0.2-0.1,0.4-0.2,0.5-0.4c0.1-0.2,0.2-0.4,0.3-0.7c0-0.2,0-0.4,0-0.5
				c0-0.1-0.1-0.2-0.3-0.3c-0.1-0.1-0.3-0.1-0.4-0.1c-0.2,0-0.3,0-0.5-0.1l-2.5,0c-0.5,0-0.9,0-1.4-0.1c-0.3-0.1-0.7-0.2-0.9-0.5
				c-0.3-0.2-0.4-0.6-0.4-0.9c0-0.5,0-1,0.2-1.4c0.1-0.5,0.3-1,0.6-1.5c0.2-0.4,0.6-0.7,1-0.9c0.4-0.2,0.8-0.4,1.2-0.5
				c0.5-0.1,1-0.2,1.5-0.2l5.5,0l-0.5,1.8L-112.1-93.6z"/>
			<path id="Trazado_580" class="st28" d="M-99-93.4c-0.3,0.1-0.6,0.3-0.8,0.5c-0.2,0.2-0.5,0.5-0.6,0.7c-0.2,0.3-0.4,0.6-0.5,1
				l5.9,0l-0.5,1.7h-5.9c0,0.2-0.1,0.4-0.1,0.5c0,0.2,0,0.3,0,0.5c0,0.2,0,0.3,0,0.5c0,0.1,0.1,0.3,0.2,0.4c0.1,0.1,0.2,0.2,0.3,0.3
				c0.1,0.1,0.2,0.1,0.4,0.2c0.1,0,0.3,0,0.4,0.1c0.2,0,0.3,0,0.5,0h0.1l3.5,0l-0.5,1.7h-3.6c-0.3,0-0.6,0-0.8,0
				c-0.3,0-0.5-0.1-0.8-0.1c-0.2,0-0.5-0.1-0.7-0.3c-0.2-0.1-0.4-0.3-0.6-0.5c-0.2-0.2-0.4-0.5-0.5-0.8c-0.1-0.3-0.2-0.6-0.2-0.9
				c0-0.3,0-0.7,0-1c0-0.3,0.1-0.7,0.2-1c0,0,0-0.1,0-0.1c0,0,0-0.1,0-0.1c0,0,0-0.1,0-0.1s0-0.1,0-0.1c0,0,0-0.1,0-0.1
				c0,0,0-0.1,0-0.1c0,0,0-0.1,0-0.1c0,0,0-0.1,0-0.1c0.2-0.7,0.5-1.4,0.9-2.1c0.3-0.5,0.8-1,1.3-1.4c0.5-0.4,1.1-0.7,1.6-0.8
				c0.7-0.2,1.4-0.3,2.1-0.3l3.5,0l-0.5,1.7h-3.5C-98.3-93.6-98.6-93.5-99-93.4z"/>
			<path id="Trazado_581" class="st28" d="M-86.2-95.3l0.5,7.7l4.6-7.7h3.1l-2.7,10h-2.1l2.2-7.8l-4.7,7.8h-2.2l-0.5-7.9l-1.9,7.9
				H-92l2.7-10H-86.2z"/>
			<path id="Trazado_582" class="st28" d="M-75.8-85.3l2.7-10h2.2l-2.7,10H-75.8z"/>
			<path id="Trazado_583" class="st28" d="M-63.4-95.3l2.2,7.2l1.8-7.2h2.2l-2.7,10h-2.4l-2.3-7.6l-1.9,7.6h-2.2l2.7-10H-63.4z"/>
			<path id="Trazado_584" class="st28" d="M-51.9-89.3c-0.1,0.4-0.2,0.7-0.2,1.1c0,0.3,0,0.5,0.1,0.8c0.1,0.2,0.3,0.4,0.6,0.5
				c0.4,0.1,0.7,0.2,1.1,0.2c0.4,0,0.8,0,1.2-0.2c0.3-0.1,0.6-0.3,0.8-0.5c0.2-0.2,0.4-0.5,0.5-0.8c0.2-0.4,0.3-0.7,0.4-1.1l1.6-6
				h2.1l-1.6,6.1c0,0.1,0,0.1,0,0.2c0,0.1,0,0.1,0,0.2c0,0.1,0,0.1-0.1,0.2c0,0.1,0,0.1-0.1,0.2c-0.1,0.2-0.1,0.4-0.2,0.5
				s-0.1,0.3-0.2,0.5c-0.1,0.2-0.2,0.3-0.3,0.5c-0.1,0.2-0.2,0.3-0.4,0.5c-0.2,0.2-0.4,0.4-0.7,0.5c-0.2,0.2-0.5,0.3-0.8,0.4
				c-0.2,0.1-0.4,0.1-0.5,0.2c-0.2,0.1-0.3,0.1-0.5,0.1c-0.1,0-0.2,0-0.3,0c-0.1,0-0.2,0-0.3,0c-0.1,0-0.2,0-0.3,0
				c-0.1,0-0.2,0-0.3,0h-0.1c0,0-0.1,0-0.1,0h-0.6c0,0-0.1,0-0.1,0h-0.1c-0.1,0-0.2,0-0.3,0c-0.1,0-0.2,0-0.3,0
				c-0.2,0-0.5,0-0.7-0.1c-0.2-0.1-0.4-0.1-0.7-0.2c-0.2-0.1-0.4-0.2-0.5-0.4c-0.2-0.2-0.3-0.3-0.4-0.5c-0.1-0.1-0.1-0.3-0.2-0.5
				c0-0.2,0-0.3,0-0.5c0-0.2,0-0.3,0-0.5c0-0.2,0.1-0.4,0.1-0.5c0-0.1,0-0.1,0-0.2c0-0.1,0-0.1,0-0.2c0,0,0-0.1,0-0.1
				c0,0,0-0.1,0-0.1c0,0,0-0.1,0-0.1c0,0,0-0.1,0-0.1l1.6-6.1h2.1L-51.9-89.3z"/>
			<path id="Trazado_585" class="st28" d="M-36.3-93.4c-0.3,0.1-0.6,0.3-0.8,0.5c-0.2,0.2-0.5,0.5-0.6,0.7c-0.2,0.3-0.4,0.6-0.5,1
				l5.9,0l-0.5,1.7h-5.9c0,0.2-0.1,0.4-0.1,0.5c0,0.2,0,0.3,0,0.5c0,0.2,0,0.3,0,0.5c0,0.1,0.1,0.3,0.2,0.4c0.1,0.1,0.2,0.2,0.3,0.3
				c0.1,0.1,0.2,0.1,0.4,0.2c0.1,0,0.3,0,0.4,0.1c0.2,0,0.3,0,0.5,0h0.1l3.5,0l-0.5,1.7h-3.6c-0.3,0-0.6,0-0.8,0
				c-0.3,0-0.5-0.1-0.8-0.1c-0.2,0-0.5-0.1-0.7-0.3c-0.2-0.1-0.4-0.3-0.6-0.5c-0.2-0.2-0.4-0.5-0.5-0.8c-0.1-0.3-0.2-0.6-0.2-0.9
				c0-0.3,0-0.7,0-1c0-0.3,0.1-0.7,0.2-1c0,0,0-0.1,0-0.1c0,0,0-0.1,0-0.1c0,0,0-0.1,0-0.1c0,0,0-0.1,0-0.1c0,0,0-0.1,0-0.1
				c0,0,0-0.1,0-0.1c0,0,0-0.1,0-0.1c0,0,0-0.1,0-0.1c0.2-0.7,0.5-1.4,0.9-2.1c0.3-0.5,0.8-1,1.3-1.4c0.5-0.4,1.1-0.7,1.6-0.8
				c0.7-0.2,1.4-0.3,2.1-0.3l3.5,0l-0.5,1.7h-3.5C-35.6-93.6-35.9-93.5-36.3-93.4z"/>
			<path id="Trazado_586" class="st28" d="M-28.1-95.3h2.4l1,7.5l5.1-7.5h2.2l-6.9,10h-2.2L-28.1-95.3z"/>
			<path id="Trazado_587" class="st28" d="M-14.5-93.5c0.3-0.3,0.5-0.6,0.8-0.8c0.3-0.2,0.6-0.4,1-0.6c0.4-0.2,0.7-0.3,1.1-0.4
				c0.1,0,0.3-0.1,0.4-0.1c0.2,0,0.3-0.1,0.5-0.1c0.1,0,0.3,0,0.5,0c0.2,0,0.3,0,0.5,0c0.2,0,0.3,0,0.5,0c0.2,0,0.3,0,0.5,0
				c0.2,0,0.3,0,0.5,0.1c0.1,0,0.3,0.1,0.4,0.1c0.3,0.1,0.6,0.2,0.9,0.4c0.3,0.2,0.5,0.4,0.7,0.6c0.2,0.2,0.3,0.5,0.4,0.8
				c0.1,0.3,0.2,0.7,0.2,1c0,0.2,0,0.3,0,0.5s0,0.4,0,0.5c0,0.2-0.1,0.4-0.1,0.6c0,0.2-0.1,0.4-0.1,0.6c-0.1,0.2-0.1,0.4-0.2,0.6
				c-0.1,0.2-0.1,0.4-0.2,0.6c-0.1,0.2-0.2,0.4-0.3,0.6c-0.1,0.2-0.2,0.4-0.3,0.5c-0.2,0.4-0.4,0.7-0.7,1c-0.3,0.3-0.5,0.6-0.8,0.8
				c-0.3,0.2-0.6,0.4-1,0.6c-0.4,0.2-0.7,0.3-1.1,0.4c-0.2,0-0.3,0.1-0.5,0.1c-0.2,0-0.3,0-0.5,0.1c-0.2,0-0.3,0-0.5,0
				c-0.2,0-0.3,0-0.5,0c-0.1,0-0.3,0-0.4,0c-0.1,0-0.3,0-0.4,0c-0.1,0-0.3,0-0.4-0.1c-0.1,0-0.3-0.1-0.4-0.1
				c-0.3-0.1-0.6-0.2-0.9-0.4c-0.3-0.1-0.5-0.3-0.7-0.6c-0.2-0.2-0.3-0.5-0.4-0.8c-0.1-0.3-0.2-0.7-0.2-1c0-0.2,0-0.3,0-0.5
				c0-0.2,0-0.4,0-0.6c0-0.2,0.1-0.4,0.1-0.6l0.1-0.6c0-0.1,0.1-0.2,0.1-0.3c0-0.1,0.1-0.2,0.1-0.3c0-0.1,0.1-0.2,0.1-0.3
				s0.1-0.2,0.1-0.3c0.1-0.2,0.2-0.4,0.2-0.6c0.1-0.2,0.2-0.3,0.3-0.5v0C-15-92.9-14.7-93.2-14.5-93.5z M-13.3-91.6
				c0,0.1-0.1,0.1-0.1,0.2c0,0.1-0.1,0.1-0.1,0.2s0,0.1-0.1,0.2c0,0.1-0.1,0.2-0.1,0.4c0,0.1-0.1,0.3-0.1,0.4c0,0.1-0.1,0.3-0.1,0.4
				c0,0.1-0.1,0.3-0.1,0.4c0,0.1,0,0.2,0,0.4c0,0.1,0,0.2,0,0.4c0,0.2,0,0.4,0,0.6c0,0.2,0.1,0.4,0.2,0.5c0.1,0.2,0.2,0.3,0.3,0.4
				c0.1,0.1,0.3,0.2,0.5,0.3c0.1,0,0.2,0.1,0.2,0.1c0.1,0,0.2,0,0.2,0.1c0.1,0,0.2,0,0.2,0c0.1,0,0.2,0,0.3,0c0.1,0,0.2,0,0.3,0
				c0.1,0,0.2,0,0.3,0c0,0,0.1,0,0.1,0c0,0,0.1,0,0.1,0c0,0,0.1,0,0.1,0c0,0,0.1,0,0.1,0c0.2-0.1,0.4-0.2,0.7-0.3
				c0.2-0.1,0.4-0.3,0.6-0.4c0.2-0.2,0.3-0.3,0.4-0.5c0.1-0.2,0.3-0.4,0.4-0.6c0.1-0.1,0.1-0.2,0.2-0.4c0.1-0.1,0.1-0.2,0.1-0.4
				l0.1-0.4c0-0.1,0.1-0.3,0.1-0.4c0-0.1,0.1-0.3,0.1-0.4c0-0.1,0-0.2,0.1-0.4c0-0.1,0-0.3,0-0.4c0-0.1,0-0.2,0-0.4
				c0-0.2,0-0.4,0-0.6c0-0.2-0.1-0.4-0.2-0.5c-0.1-0.2-0.2-0.3-0.3-0.4c-0.1-0.1-0.3-0.2-0.5-0.3c-0.1,0-0.2-0.1-0.2-0.1
				c-0.1,0-0.2,0-0.2,0c-0.1,0-0.2,0-0.3,0c-0.1,0-0.2,0-0.3,0c-0.1,0-0.2,0-0.3,0c-0.1,0-0.2,0-0.3,0c-0.1,0-0.2,0-0.3,0
				c-0.1,0-0.2,0-0.3,0.1c-0.2,0.1-0.4,0.2-0.6,0.3c-0.2,0.1-0.4,0.3-0.5,0.4c-0.2,0.2-0.3,0.3-0.4,0.5c-0.1,0.2-0.3,0.4-0.4,0.6
				l0,0C-13.2-91.8-13.3-91.7-13.3-91.6z"/>
			<path id="Trazado_588" class="st28" d="M2.3-93.6c-0.2,0-0.4,0-0.7,0.1c-0.2,0-0.4,0.1-0.6,0.2c-0.2,0.1-0.3,0.2-0.4,0.4
				c-0.1,0.2-0.2,0.4-0.3,0.6c0,0.2-0.1,0.3,0,0.5c0,0.1,0.1,0.3,0.2,0.3c0.1,0.1,0.2,0.1,0.4,0.2c0.2,0,0.3,0.1,0.5,0.1l2.8,0
				c0,0,0.1,0,0.1,0h0.3c0,0,0.1,0,0.1,0h0.1c0.2,0,0.3,0,0.5,0.1C5.4-91,5.6-91,5.7-91c0.1,0,0.3,0.1,0.4,0.2
				c0.1,0.1,0.2,0.2,0.3,0.3c0.1,0.1,0.2,0.2,0.2,0.3c0.1,0.1,0.1,0.3,0.1,0.4c0,0.1,0,0.3,0,0.4c0,0.2,0,0.3,0,0.5c0,0,0,0.1,0,0.1
				c0,0,0,0,0,0.1c0,0,0,0.1,0,0.1c0,0,0,0,0,0.1c0,0,0,0,0,0.1c0,0,0,0,0,0.1c0,0,0,0.1,0,0.1c0,0,0,0,0,0.1
				c-0.1,0.5-0.4,1-0.7,1.5c-0.2,0.4-0.6,0.7-0.9,0.9c-0.4,0.2-0.8,0.4-1.2,0.5c-0.5,0.1-1,0.2-1.5,0.2h-5.6l0.5-1.8h5.3
				c0.2,0,0.4,0,0.7,0c0.2,0,0.4-0.1,0.6-0.2c0.2-0.1,0.3-0.2,0.5-0.4c0.1-0.2,0.2-0.4,0.3-0.7c0-0.2,0-0.4,0-0.5
				c0-0.1-0.1-0.2-0.3-0.3c-0.1-0.1-0.3-0.1-0.4-0.1c-0.2,0-0.3,0-0.5-0.1l-2.5,0c-0.5,0-0.9,0-1.4-0.1C-1-89.6-1.3-89.8-1.6-90
				C-1.8-90.2-2-90.6-2-90.9c0-0.5,0-1,0.2-1.4c0.1-0.5,0.3-1,0.6-1.5c0.2-0.4,0.6-0.7,1-0.9c0.4-0.2,0.8-0.4,1.2-0.5
				c0.5-0.1,1-0.2,1.5-0.2l5.5,0l-0.5,1.8L2.3-93.6z"/>
		</g>
	</g>
</g>
</svg>
